{
.appVersion = "939";
classes = (
{
automatic = 1;
code = "A Aacute Abreve Abreveacute Abrevedotbelow Abrevegrave Abrevehookabove Abrevetilde Acircumflex Acircumflexacute Acircumflexdotbelow Acircumflexgrave Acircumflexhookabove Acircumflextilde Adblgrave Adieresis Adotbelow Agrave Ahookabove Ainvertedbreve Amacron Aogonek Aring Aringacute Atilde AE AEacute B C Cacute Ccaron Ccedilla Ccircumflex Cdotaccent D DZcaron Eth Dcaron Dcroat Dzcaron E Eacute Ebreve Ecaron Ecircumflex Ecircumflexacute Ecircumflexdotbelow Ecircumflexgrave Ecircumflexhookabove Ecircumflextilde Edblgrave Edieresis Edotaccent Edotbelow Egrave Ehookabove Einvertedbreve Emacron Eogonek Etilde F G Gbreve Gcaron Gcircumflex Gcommaaccent Gdotaccent H Hbar Hcircumflex I IJ Iacute Ibreve Icircumflex Idblgrave Idieresis Idotaccent Idotbelow Igrave Ihookabove Iinvertedbreve Imacron Iogonek Itilde J Jcircumflex K Kcommaaccent L LJ Lacute Lcaron Lcommaaccent Ldot Lj Lslash M N NJ Nacute Ncaron Ncommaaccent Eng Nhookleft Nj Ntilde O Oacute Obreve Ocircumflex Ocircumflexacute Ocircumflexdotbelow Ocircumflexgrave Ocircumflexhookabove Ocircumflextilde Odblgrave Odieresis Odieresismacron Odotaccentmacron Odotbelow Ograve Ohookabove Ohorn Ohornacute Ohorndotbelow Ohorngrave Ohornhookabove Ohorntilde Ohungarumlaut Oinvertedbreve Omacron Oogonek Oslash Oslashacute Otilde Otildemacron OE P Thorn Q R Racute Rcaron Rcommaaccent Rdblgrave Rinvertedbreve S Sacute Scaron Scedilla Scircumflex Scommaaccent Germandbls Schwa T Tbar Tcaron Tcedilla Tcommaaccent U Uacute Ubreve Ucircumflex Udblgrave Udieresis Udotbelow Ugrave Uhookabove Uhorn Uhornacute Uhorndotbelow Uhorngrave Uhornhookabove Uhorntilde Uhungarumlaut Uinvertedbreve Umacron Uogonek Uring Utilde V W Wacute Wcircumflex Wdieresis Wgrave X Y Yacute Ycircumflex Ydieresis Ydotbelow Ygrave Yhookabove Ymacron Ytilde Z Zacute Zcaron Zdotaccent";
name = Uppercase;
}
);

glyphs = (
{
glyphname = A;
lastChange = "2016-09-28 13:49:01 +0000";
layers = (
{
anchors = (
{
name = bottom;
position = "{355, 0}";
},
{
name = ogonek;
position = "{629, 10}";
},
{
name = top;
position = "{355, 700}";
}
);
hints = (
{
horizontal = 1;
place = "{36, 21}";
target = up;
type = BottomGhost;
},
{
horizontal = 1;
place = "{768, -20}";
target = down;
type = TopGhost;
}
);
layerId = UUID0;
paths = (
{
closed = 1;
nodes = (
"80 0 LINE",
"360 708 LINE",
"351 708 LINE",
"630 0 LINE",
"645 0 LINE",
"356 732 LINE",
"354 732 LINE",
"65 0 LINE"
);
},
{
closed = 1;
nodes = (
"181 268 LINE",
"530 268 LINE",
"530 281 LINE",
"181 281 LINE"
);
}
);
width = 710;
},
{
anchors = (
{
name = bottom;
position = "{348, 0}";
},
{
name = ogonek;
position = "{620, 10}";
},
{
name = top;
position = "{348, 776}";
}
);
hints = (
{
horizontal = 1;
place = "{0, 21}";
target = up;
type = BottomGhost;
},
{
horizontal = 1;
place = "{732, -20}";
target = down;
type = TopGhost;
}
);
layerId = UUID1;
paths = (
{
closed = 1;
nodes = (
"155 0 LINE",
"409 610 LINE",
"304 538 LINE",
"516 0 LINE",
"684 0 LINE",
"352 765 LINE",
"344 765 LINE",
"12 0 LINE"
);
},
{
closed = 1;
nodes = (
"194 144 LINE",
"511 144 LINE",
"460 266 LINE",
"239 266 LINE"
);
}
);
width = 696;
}
);
leftKerningGroup = A;
rightKerningGroup = A;
unicode = 0041;
},
{
glyphname = AE;
lastChange = "2016-09-28 14:06:49 +0000";
layers = (
{
anchors = (
{
name = bottom;
position = "{473, 0}";
},
{
name = top;
position = "{620, 700}";
}
);
hints = (
{
horizontal = 1;
place = "{36, 21}";
target = up;
type = BottomGhost;
},
{
horizontal = 1;
place = "{736, -20}";
target = down;
type = TopGhost;
}
);
layerId = UUID0;
paths = (
{
closed = 1;
nodes = (
"462 0 LINE",
"841 0 LINE",
"841 14 LINE",
"476 14 LINE",
"476 346 LINE",
"788 346 LINE",
"788 360 LINE",
"476 360 LINE",
"476 686 LINE",
"827 686 LINE",
"827 700 LINE",
"462 700 LINE"
);
},
{
closed = 1;
nodes = (
"462 700 LINE",
"25 0 LINE",
"40 0 LINE",
"466 675 LINE",
"469 683 OFFCURVE",
"472 692 OFFCURVE",
"475 700 CURVE"
);
},
{
closed = 1;
nodes = (
"161 208 LINE",
"470 208 LINE",
"470 222 LINE",
"161 222 LINE"
);
}
);
width = 921;
},
{
anchors = (
{
name = bottom;
position = "{563, 0}";
},
{
name = top;
position = "{673, 756}";
}
);
hints = (
{
horizontal = 1;
place = "{0, 21}";
target = up;
type = BottomGhost;
},
{
horizontal = 1;
place = "{700, -20}";
target = down;
type = TopGhost;
}
);
layerId = UUID1;
paths = (
{
closed = 1;
nodes = (
"486 0 LINE",
"912 0 LINE",
"912 140 LINE",
"631 140 LINE",
"631 297 LINE",
"857 297 LINE",
"857 437 LINE",
"631 437 LINE",
"631 596 LINE",
"898 596 LINE",
"898 736 LINE",
"486 736 LINE"
);
},
{
closed = 1;
nodes = (
"486 736 LINE",
"5 0 LINE",
"173 0 LINE",
"490 524 LINE",
"490 524 OFFCURVE",
"498 550 OFFCURVE",
"501 565 CURVE"
);
},
{
closed = 1;
nodes = (
"227 161 LINE",
"503 161 LINE",
"503 276 LINE",
"272 276 LINE"
);
}
);
width = 967;
}
);
rightMetricsKey = E;
unicode = 00C6;
},
{
glyphname = B;
lastChange = "2016-09-28 13:22:36 +0000";
layers = (
{
anchors = (
{
name = bottom;
position = "{273, 0}";
},
{
name = top;
position = "{273, 700}";
}
);
hints = (
{
place = "{449, 72}";
},
{
horizontal = 1;
place = "{31, 21}";
target = up;
type = BottomGhost;
},
{
horizontal = 1;
place = "{731, -20}";
target = down;
type = TopGhost;
}
);
layerId = UUID0;
paths = (
{
closed = 1;
nodes = (
"120 700 LINE",
"120 0 LINE",
"283 0 LINE SMOOTH",
"393 0 OFFCURVE",
"495 62 OFFCURVE",
"495 179 CURVE SMOOTH",
"495 276 OFFCURVE",
"418 340 OFFCURVE",
"334 353 CURVE",
"333 349 LINE",
"424 366 OFFCURVE",
"458 444 OFFCURVE",
"458 522 CURVE SMOOTH",
"458 650 OFFCURVE",
"387 700 OFFCURVE",
"255 700 CURVE SMOOTH"
);
},
{
closed = 1;
nodes = (
"134 357 LINE",
"134 687 LINE",
"256 687 LINE SMOOTH",
"371 687 OFFCURVE",
"444 641 OFFCURVE",
"444 522 CURVE SMOOTH",
"444 427 OFFCURVE",
"397 357 OFFCURVE",
"281 357 CURVE SMOOTH"
);
},
{
closed = 1;
nodes = (
"134 13 LINE",
"134 344 LINE",
"282 344 LINE SMOOTH",
"375 344 OFFCURVE",
"481 293 OFFCURVE",
"481 176 CURVE SMOOTH",
"481 68 OFFCURVE",
"390 13 OFFCURVE",
"282 13 CURVE SMOOTH"
);
}
);
width = 570;
},
{
anchors = (
{
name = bottom;
position = "{336, 0}";
},
{
name = top;
position = "{336, 736}";
}
);
hints = (
{
place = "{377, 108}";
},
{
horizontal = 1;
place = "{0, 21}";
target = up;
type = BottomGhost;
},
{
horizontal = 1;
place = "{700, -20}";
target = down;
type = TopGhost;
}
);
layerId = UUID1;
paths = (
{
closed = 1;
nodes = (
"95 736 LINE",
"95 0 LINE",
"340 0 LINE",
"471 0 OFFCURVE",
"597 57 OFFCURVE",
"597 217 CURVE",
"597 346 OFFCURVE",
"464 425 OFFCURVE",
"283 425 CURVE",
"306 347 LINE",
"453 347 OFFCURVE",
"562 415 OFFCURVE",
"562 551 CURVE",
"562 673 OFFCURVE",
"464 736 OFFCURVE",
"311 736 CURVE"
);
},
{
closed = 1;
nodes = (
"240 435 LINE",
"240 596 LINE",
"318 596 LINE",
"375 596 OFFCURVE",
"412 571 OFFCURVE",
"412 520 CURVE",
"412 476 OFFCURVE",
"385 435 OFFCURVE",
"328 435 CURVE"
);
},
{
closed = 1;
nodes = (
"240 135 LINE",
"240 295 LINE",
"323 295 LINE",
"385 295 OFFCURVE",
"447 280 OFFCURVE",
"447 217 CURVE",
"447 160 OFFCURVE",
"397 135 OFFCURVE",
"333 135 CURVE"
);
}
);
width = 647;
}
);
leftMetricsKey = H;
rightKerningGroup = B;
rightMetricsKey = O;
unicode = 0042;
},
{
glyphname = C;
lastChange = "2016-12-02 15:03:51 +0000";
layers = (
{
anchors = (
{
name = bottom;
position = "{415, 0}";
},
{
name = top;
position = "{415, 710}";
}
);
hints = (
{
horizontal = 1;
place = "{744, -20}";
target = down;
type = TopGhost;
},
{
horizontal = 1;
place = "{28, 21}";
target = up;
type = BottomGhost;
}
);
layerId = UUID0;
paths = (
{
closed = 1;
nodes = (
"605 54 LINE",
"553 24 OFFCURVE",
"494 5 OFFCURVE",
"429 5 CURVE SMOOTH",
"222 5 OFFCURVE",
"89 163 OFFCURVE",
"89 345 CURVE SMOOTH",
"89 540 OFFCURVE",
"243 695 OFFCURVE",
"432 695 CURVE SMOOTH",
"495 695 OFFCURVE",
"556 677 OFFCURVE",
"607 646 CURVE",
"615 658 LINE",
"561 690 OFFCURVE",
"499 708 OFFCURVE",
"432 708 CURVE SMOOTH",
"235 708 OFFCURVE",
"75 549 OFFCURVE",
"75 346 CURVE SMOOTH",
"75 154 OFFCURVE",
"217 -8 OFFCURVE",
"429 -8 CURVE SMOOTH",
"501 -8 OFFCURVE",
"561 11 OFFCURVE",
"614 42 CURVE"
);
}
);
width = 690;
},
{
anchors = (
{
name = bottom;
position = "{399, 0}";
},
{
name = top;
position = "{389, 756}";
}
);
hints = (
{
horizontal = 1;
place = "{708, -20}";
target = down;
type = TopGhost;
},
{
horizontal = 1;
place = "{-8, 21}";
target = up;
type = BottomGhost;
}
);
layerId = UUID1;
paths = (
{
closed = 1;
nodes = (
"587 191 LINE",
"558 163 OFFCURVE",
"501 132 OFFCURVE",
"422 132 CURVE SMOOTH",
"287 132 OFFCURVE",
"201 228 OFFCURVE",
"201 370 CURVE SMOOTH",
"201 503 OFFCURVE",
"300 604 OFFCURVE",
"413 604 CURVE",
"485 604 OFFCURVE",
"542 569 OFFCURVE",
"575 544 CURVE",
"632 681 LINE",
"584 711 OFFCURVE",
"506 744 OFFCURVE",
"408 744 CURVE SMOOTH",
"194 744 OFFCURVE",
"50 586 OFFCURVE",
"50 362 CURVE SMOOTH",
"50 163 OFFCURVE",
"186 -4 OFFCURVE",
"419 -8 CURVE SMOOTH",
"532 -10 OFFCURVE",
"622 41 OFFCURVE",
"647 61 CURVE"
);
}
);
width = 697;
}
);
leftKerningGroup = O;
leftMetricsKey = O;
rightMetricsKey = O;
unicode = 0043;
},
{
glyphname = D;
lastChange = "2016-11-30 14:58:45 +0000";
layers = (
{
anchors = (
{
name = bottom;
position = "{350, 0}";
},
{
name = center;
position = "{125, 350}";
},
{
name = top;
position = "{290, 700}";
}
);
hints = (
{
horizontal = 1;
place = "{31, 21}";
target = up;
type = BottomGhost;
},
{
horizontal = 1;
place = "{731, -20}";
target = down;
type = TopGhost;
}
);
layerId = UUID0;
paths = (
{
closed = 1;
nodes = (
"311 0 LINE SMOOTH",
"488 0 OFFCURVE",
"649 136 OFFCURVE",
"649 350 CURVE SMOOTH",
"649 508 OFFCURVE",
"545 700 OFFCURVE",
"278 700 CURVE SMOOTH",
"120 700 LINE",
"120 0 LINE"
);
},
{
closed = 1;
nodes = (
"134 686 LINE",
"272 686 LINE SMOOTH",
"537 686 OFFCURVE",
"635 501 OFFCURVE",
"635 350 CURVE SMOOTH",
"635 144 OFFCURVE",
"483 13 OFFCURVE",
"303 13 CURVE",
"134 13 LINE"
);
}
);
width = 724;
},
{
anchors = (
{
name = bottom;
position = "{398, 0}";
},
{
name = center;
position = "{167, 368}";
},
{
name = top;
position = "{318, 736}";
}
);
hints = (
{
horizontal = 1;
place = "{79, 21}";
target = up;
type = BottomGhost;
},
{
horizontal = 1;
place = "{622, -20}";
target = down;
type = TopGhost;
}
);
layerId = UUID1;
paths = (
{
closed = 1;
nodes = (
"351 0 LINE",
"551 0 OFFCURVE",
"721 136 OFFCURVE",
"721 355 CURVE",
"721 540 OFFCURVE",
"612 736 OFFCURVE",
"315 736 CURVE",
"95 736 LINE",
"95 0 LINE"
);
},
{
closed = 1;
nodes = (
"240 597 LINE",
"358 597 LINE",
"425 597 OFFCURVE",
"571 557 OFFCURVE",
"571 365 CURVE",
"571 217 OFFCURVE",
"473 140 OFFCURVE",
"326 140 CURVE",
"240 140 LINE"
);
}
);
width = 771;
}
);
leftMetricsKey = H;
rightKerningGroup = O;
rightMetricsKey = O;
unicode = 0044;
},
{
glyphname = E;
lastChange = "2016-09-28 13:30:31 +0000";
layers = (
{
anchors = (
{
name = bottom;
position = "{315, 0}";
},
{
name = ogonek;
position = "{532, 10}";
},
{
name = top;
position = "{315, 700}";
},
{
name = topleft;
position = "{0, 700}";
}
);
hints = (
{
horizontal = 1;
place = "{36, 21}";
target = up;
type = BottomGhost;
},
{
horizontal = 1;
place = "{736, -20}";
target = down;
type = TopGhost;
}
);
layerId = UUID0;
paths = (
{
closed = 1;
nodes = (
"120 0 LINE",
"549 0 LINE",
"549 13 LINE",
"134 13 LINE",
"134 347 LINE",
"496 347 LINE",
"496 360 LINE",
"134 360 LINE",
"134 687 LINE",
"535 687 LINE",
"535 700 LINE",
"120 700 LINE"
);
}
);
width = 629;
},
{
anchors = (
{
name = bottom;
position = "{346, 0}";
},
{
name = ogonek;
position = "{547, 10}";
},
{
name = top;
position = "{346, 756}";
},
{
name = topleft;
position = "{45, 736}";
}
);
hints = (
{
horizontal = 1;
place = "{0, 21}";
target = up;
type = BottomGhost;
},
{
horizontal = 1;
place = "{700, -20}";
target = down;
type = TopGhost;
}
);
layerId = UUID1;
paths = (
{
closed = 1;
nodes = (
"95 0 LINE",
"611 0 LINE",
"611 140 LINE",
"240 140 LINE",
"240 299 LINE",
"556 299 LINE",
"556 439 LINE",
"240 439 LINE",
"240 596 LINE",
"597 596 LINE",
"597 736 LINE",
"95 736 LINE"
);
}
);
width = 666;
}
);
leftMetricsKey = H;
unicode = 0045;
},
{
glyphname = F;
lastChange = "2016-12-02 14:44:34 +0000";
layers = (
{
anchors = (
{
name = bottom;
position = "{288, 0}";
},
{
name = top;
position = "{288, 700}";
}
);
hints = (
{
horizontal = 1;
place = "{36, 21}";
target = up;
type = BottomGhost;
},
{
horizontal = 1;
place = "{736, -20}";
target = down;
type = TopGhost;
}
);
layerId = UUID0;
paths = (
{
closed = 1;
nodes = (
"120 0 LINE",
"134 0 LINE",
"134 336 LINE",
"456 336 LINE",
"456 349 LINE",
"134 349 LINE",
"134 687 LINE",
"495 687 LINE",
"495 700 LINE",
"120 700 LINE"
);
}
);
width = 570;
},
{
anchors = (
{
name = bottom;
position = "{313, 0}";
},
{
name = top;
position = "{313, 736}";
}
);
hints = (
{
horizontal = 1;
place = "{0, 21}";
target = up;
type = BottomGhost;
},
{
horizontal = 1;
place = "{700, -20}";
target = down;
type = TopGhost;
}
);
layerId = UUID1;
paths = (
{
closed = 1;
nodes = (
"95 0 LINE",
"240 0 LINE",
"240 289 LINE",
"513 289 LINE",
"513 429 LINE",
"240 429 LINE",
"240 596 LINE",
"555 596 LINE",
"555 736 LINE",
"95 736 LINE"
);
}
);
width = 600;
}
);
leftMetricsKey = H;
rightKerningGroup = F;
unicode = 0046;
},
{
glyphname = G;
lastChange = "2016-09-28 13:34:27 +0000";
layers = (
{
anchors = (
{
name = bottom;
position = "{390, 0}";
},
{
name = top;
position = "{400, 700}";
}
);
hints = (
{
horizontal = 1;
place = "{744, -20}";
target = down;
type = TopGhost;
},
{
horizontal = 1;
place = "{28, 21}";
target = up;
type = BottomGhost;
}
);
layerId = UUID0;
paths = (
{
closed = 1;
nodes = (
"634 300 LINE",
"448 300 LINE",
"448 287 LINE",
"620 287 LINE",
"620 51 LINE",
"569 22 OFFCURVE",
"491 5 OFFCURVE",
"429 5 CURVE SMOOTH",
"222 5 OFFCURVE",
"89 159 OFFCURVE",
"89 348 CURVE SMOOTH",
"89 538 OFFCURVE",
"243 695 OFFCURVE",
"432 695 CURVE SMOOTH",
"495 695 OFFCURVE",
"556 677 OFFCURVE",
"607 646 CURVE",
"615 658 LINE",
"561 690 OFFCURVE",
"499 708 OFFCURVE",
"432 708 CURVE SMOOTH",
"235 708 OFFCURVE",
"75 547 OFFCURVE",
"75 349 CURVE SMOOTH",
"75 152 OFFCURVE",
"215 -8 OFFCURVE",
"432 -8 CURVE SMOOTH",
"499 -8 OFFCURVE",
"581 11 OFFCURVE",
"634 42 CURVE"
);
}
);
width = 734;
},
{
anchors = (
{
name = bottom;
position = "{381, 0}";
},
{
name = top;
position = "{411, 736}";
}
);
hints = (
{
horizontal = 1;
place = "{708, -20}";
target = down;
type = TopGhost;
},
{
horizontal = 1;
place = "{-8, 21}";
target = up;
type = BottomGhost;
}
);
layerId = UUID1;
paths = (
{
closed = 1;
nodes = (
"692 385 LINE",
"418 385 LINE",
"418 245 LINE",
"545 245 LINE",
"545 156 LINE",
"521 142 OFFCURVE",
"485 137 OFFCURVE",
"444 137 CURVE",
"301 137 OFFCURVE",
"200 221 OFFCURVE",
"200 360 CURVE",
"200 518 OFFCURVE",
"288 598 OFFCURVE",
"447 598 CURVE",
"494 598 OFFCURVE",
"574 575 OFFCURVE",
"611 555 CURVE",
"658 690 LINE",
"603 720 OFFCURVE",
"523 744 OFFCURVE",
"428 744 CURVE",
"227 744 OFFCURVE",
"50 616 OFFCURVE",
"50 347 CURVE",
"50 141 OFFCURVE",
"201 -8 OFFCURVE",
"440 -8 CURVE",
"530 -8 OFFCURVE",
"657 37 OFFCURVE",
"692 74 CURVE"
);
}
);
width = 762;
}
);
leftKerningGroup = O;
leftMetricsKey = O;
unicode = 0047;
},
{
glyphname = H;
lastChange = "2016-09-27 13:57:05 +0000";
layers = (
{
anchors = (
{
name = bottom;
position = "{366, 0}";
},
{
name = center;
position = "{366, 350}";
},
{
name = top;
position = "{366, 700}";
},
{
name = topleft;
position = "{0, 700}";
}
);
hints = (
{
horizontal = 1;
place = "{36, 21}";
target = up;
type = BottomGhost;
},
{
horizontal = 1;
place = "{736, -20}";
target = down;
type = TopGhost;
}
);
layerId = UUID0;
paths = (
{
closed = 1;
nodes = (
"598 700 LINE",
"598 359 LINE",
"134 359 LINE",
"134 700 LINE",
"120 700 LINE",
"120 0 LINE",
"134 0 LINE",
"134 346 LINE",
"598 346 LINE",
"598 0 LINE",
"612 0 LINE",
"612 700 LINE"
);
}
);
width = 732;
},
{
anchors = (
{
name = bottom;
position = "{405, 0}";
},
{
name = center;
position = "{405, 368}";
},
{
name = top;
position = "{405, 736}";
},
{
name = topleft;
position = "{45, 736}";
}
);
hints = (
{
horizontal = 1;
place = "{0, 21}";
target = up;
type = BottomGhost;
},
{
horizontal = 1;
place = "{700, -20}";
target = down;
type = TopGhost;
}
);
layerId = UUID1;
paths = (
{
closed = 1;
nodes = (
"569 736 LINE",
"569 439 LINE",
"240 439 LINE",
"240 736 LINE",
"95 736 LINE",
"95 0 LINE",
"240 0 LINE",
"240 299 LINE",
"569 299 LINE",
"569 0 LINE",
"714 0 LINE",
"714 736 LINE"
);
}
);
width = 809;
}
);
unicode = 0048;
},
{
glyphname = Hbar;
lastChange = "2016-09-27 13:57:23 +0000";
layers = (
{
components = (
{
name = H;
transform = "{1, 0, 0, 1, 48, 0}";
}
);
hints = (
{
horizontal = 1;
place = "{528, 21}";
target = up;
type = BottomGhost;
},
{
horizontal = 1;
place = "{542, -20}";
target = down;
type = TopGhost;
}
);
layerId = UUID0;
paths = (
{
closed = 1;
nodes = (
"120 492 LINE",
"770 492 LINE",
"770 506 LINE",
"120 506 LINE"
);
}
);
width = 890;
},
{
components = (
{
name = H;
transform = "{1, 0, 0, 1, 92, 0}";
}
);
hints = (
{
horizontal = 1;
place = "{478, 21}";
target = up;
type = BottomGhost;
},
{
horizontal = 1;
place = "{531, -20}";
target = down;
type = TopGhost;
}
);
layerId = UUID1;
paths = (
{
closed = 1;
nodes = (
"95 499 LINE",
"880 499 LINE",
"880 606 LINE",
"95 606 LINE"
);
}
);
width = 975;
}
);
leftMetricsKey = H;
rightKerningGroup = z;
rightMetricsKey = H;
unicode = 0126;
},
{
glyphname = I;
lastChange = "2016-09-27 13:57:23 +0000";
layers = (
{
anchors = (
{
name = bottom;
position = "{127, 0}";
},
{
name = ogonek;
position = "{116, 10}";
},
{
name = top;
position = "{127, 700}";
},
{
name = topleft;
position = "{0, 700}";
}
);
hints = (
{
horizontal = 1;
place = "{36, 21}";
target = up;
type = BottomGhost;
},
{
horizontal = 1;
place = "{736, -20}";
target = down;
type = TopGhost;
}
);
layerId = UUID0;
paths = (
{
closed = 1;
nodes = (
"120 0 LINE",
"134 0 LINE",
"134 700 LINE",
"120 700 LINE"
);
}
);
width = 254;
},
{
anchors = (
{
name = bottom;
position = "{168, 0}";
},
{
name = ogonek;
position = "{213, 10}";
},
{
name = top;
position = "{168, 756}";
},
{
name = topleft;
position = "{45, 736}";
}
);
hints = (
{
horizontal = 1;
place = "{0, 21}";
target = up;
type = BottomGhost;
},
{
horizontal = 1;
place = "{700, -20}";
target = down;
type = TopGhost;
}
);
layerId = UUID1;
paths = (
{
closed = 1;
nodes = (
"95 0 LINE",
"240 0 LINE",
"240 736 LINE",
"95 736 LINE"
);
}
);
width = 335;
}
);
leftMetricsKey = H;
rightMetricsKey = H;
unicode = 0049;
},
{
glyphname = Iogonek;
lastChange = "2016-09-24 00:06:29 +0000";
layers = (
{
anchors = (
{
name = _ogonek;
position = "{116, 10}";
}
);
components = (
{
name = I;
}
);
layerId = UUID0;
paths = (
{
closed = 1;
nodes = (
"128 -186 OFFCURVE",
"155 -161 OFFCURVE",
"168 -133 CURVE",
"157 -127 LINE",
"143 -152 OFFCURVE",
"122 -172 OFFCURVE",
"96 -172 CURVE",
"68 -172 OFFCURVE",
"41 -148 OFFCURVE",
"41 -111 CURVE",
"41 -72 OFFCURVE",
"73 -34 OFFCURVE",
"132 0 CURVE",
"129 6 LINE",
"125 12 LINE",
"73 -15 OFFCURVE",
"26 -60 OFFCURVE",
"26 -111 CURVE",
"26 -156 OFFCURVE",
"59 -186 OFFCURVE",
"95 -186 CURVE"
);
}
);
width = 254;
},
{
anchors = (
{
name = _ogonek;
position = "{188, 10}";
}
);
components = (
{
name = I;
}
);
layerId = UUID1;
paths = (
{
closed = 1;
nodes = (
"199 -232 OFFCURVE",
"258 -201 OFFCURVE",
"288 -157 CURVE",
"238 -85 LINE",
"216 -118 OFFCURVE",
"193 -134 OFFCURVE",
"166 -134 CURVE",
"143 -134 OFFCURVE",
"122 -126 OFFCURVE",
"122 -92 CURVE SMOOTH",
"122 -50 OFFCURVE",
"167 -26 OFFCURVE",
"235 0 CURVE",
"210 6 LINE",
"92 0 LINE",
"37 -22 OFFCURVE",
"7 -69 OFFCURVE",
"7 -113 CURVE SMOOTH",
"7 -191 OFFCURVE",
"71 -232 OFFCURVE",
"153 -232 CURVE"
);
}
);
width = 285;
}
);
unicode = 012E;
},
{
glyphname = J;
lastChange = "2016-09-28 13:31:17 +0000";
layers = (
{
anchors = (
{
name = bottom;
position = "{168, 0}";
},
{
name = top;
position = "{168, 700}";
}
);
hints = (
{
horizontal = 1;
place = "{-106, 21}";
target = up;
type = BottomGhost;
},
{
horizontal = 1;
place = "{736, -20}";
target = down;
type = TopGhost;
}
);
layerId = UUID0;
paths = (
{
closed = 1;
nodes = (
"185 700 LINE",
"171 700 LINE",
"171 93 LINE SMOOTH",
"171 -42 OFFCURVE",
"98 -124 OFFCURVE",
"0 -129 CURVE",
"0 -142 LINE",
"0 -142 LINE",
"101 -138 OFFCURVE",
"185 -58 OFFCURVE",
"185 90 CURVE SMOOTH"
);
}
);
width = 305;
},
{
anchors = (
{
name = bottom;
position = "{168, 0}";
},
{
name = top;
position = "{238, 756}";
}
);
hints = (
{
horizontal = 1;
place = "{-144, 21}";
target = up;
type = BottomGhost;
},
{
horizontal = 1;
place = "{700, -20}";
target = down;
type = TopGhost;
}
);
layerId = UUID1;
paths = (
{
closed = 1;
nodes = (
"305 736 LINE",
"159 736 LINE",
"159 158 LINE SMOOTH",
"159 38 OFFCURVE",
"96 -7 OFFCURVE",
"5 -12 CURVE",
"5 -153 LINE",
"5 -153 LINE",
"182 -148 OFFCURVE",
"305 -37 OFFCURVE",
"305 155 CURVE SMOOTH"
);
}
);
width = 400;
}
);
rightMetricsKey = H;
unicode = 004A;
},
{
glyphname = K;
lastChange = "2016-09-28 13:34:43 +0000";
layers = (
{
anchors = (
{
name = bottom;
position = "{304, 0}";
},
{
name = top;
position = "{304, 700}";
}
);
hints = (
{
horizontal = 1;
place = "{36, 21}";
target = up;
type = BottomGhost;
},
{
horizontal = 1;
place = "{737, -20}";
target = down;
type = TopGhost;
},
{
horizontal = 1;
place = "{736, -20}";
target = down;
type = TopGhost;
}
);
layerId = UUID0;
paths = (
{
closed = 1;
nodes = (
"134 700 LINE",
"120 700 LINE",
"120 0 LINE",
"134 0 LINE",
"133 316 LINE",
"237 414 LINE",
"565 0 LINE",
"583 0 LINE",
"248 424 LINE",
"538 700 LINE",
"520 700 LINE",
"129 328 LINE",
"133 326 LINE",
"134 360 LINE"
);
}
);
width = 638;
},
{
anchors = (
{
name = bottom;
position = "{330, 0}";
},
{
name = top;
position = "{380, 736}";
}
);
hints = (
{
horizontal = 1;
place = "{0, 21}";
target = up;
type = BottomGhost;
},
{
horizontal = 1;
place = "{700, -20}";
target = down;
type = TopGhost;
},
{
horizontal = 1;
place = "{700, -20}";
target = down;
type = TopGhost;
}
);
layerId = UUID1;
paths = (
{
closed = 1;
nodes = (
"242 736 LINE",
"95 736 LINE",
"95 0 LINE",
"242 0 LINE",
"242 278 LINE",
"278 314 LINE",
"505 0 LINE",
"689 0 LINE",
"384 406 LINE",
"688 736 LINE",
"500 736 LINE",
"260 465 LINE",
"238 437 LINE",
"242 474 LINE"
);
}
);
width = 704;
}
);
leftMetricsKey = H;
rightKerningGroup = K;
unicode = 004B;
},
{
glyphname = L;
lastChange = "2016-09-28 13:39:54 +0000";
layers = (
{
anchors = (
{
name = bottom;
position = "{310, 0}";
},
{
name = center;
position = "{310, 350}";
},
{
name = top;
position = "{127, 700}";
},
{
name = topright;
position = "{619, 700}";
}
);
hints = (
{
horizontal = 1;
place = "{36, 21}";
target = up;
type = BottomGhost;
},
{
horizontal = 1;
place = "{736, -20}";
target = down;
type = TopGhost;
}
);
layerId = UUID0;
paths = (
{
closed = 1;
nodes = (
"120 0 LINE",
"539 0 LINE",
"539 13 LINE",
"134 13 LINE",
"134 700 LINE",
"120 700 LINE"
);
}
);
width = 589;
},
{
anchors = (
{
name = bottom;
position = "{328, 0}";
},
{
name = center;
position = "{328, 368}";
},
{
name = top;
position = "{165, 756}";
},
{
name = topright;
position = "{611, 736}";
}
);
hints = (
{
horizontal = 1;
place = "{0, 21}";
target = up;
type = BottomGhost;
},
{
horizontal = 1;
place = "{700, -20}";
target = down;
type = TopGhost;
}
);
layerId = UUID1;
paths = (
{
closed = 1;
nodes = (
"95 0 LINE",
"586 0 LINE",
"586 140 LINE",
"240 140 LINE",
"240 736 LINE",
"95 736 LINE"
);
}
);
width = 641;
}
);
leftMetricsKey = H;
rightKerningGroup = L;
unicode = 004C;
},
{
glyphname = Lslash;
lastChange = "2016-09-17 20:05:21 +0000";
layers = (
{
components = (
{
name = L;
}
);
hints = (
{
horizontal = 1;
place = "{215, 21}";
target = up;
type = BottomGhost;
},
{
horizontal = 1;
place = "{229, -20}";
target = down;
type = TopGhost;
}
);
layerId = UUID0;
paths = (
{
closed = 1;
nodes = (
"33 293 LINE",
"33 279 LINE",
"347 394 LINE",
"347 408 LINE"
);
}
);
width = 570;
},
{
components = (
{
name = L;
}
);
hints = (
{
horizontal = 1;
place = "{327, 21}";
target = up;
type = BottomGhost;
},
{
horizontal = 1;
place = "{408, -20}";
target = down;
type = TopGhost;
}
);
layerId = UUID1;
paths = (
{
closed = 1;
nodes = (
"5 368 LINE",
"35 255 LINE",
"441 381 LINE",
"411 494 LINE"
);
}
);
width = 640;
}
);
unicode = 0141;
},
{
glyphname = M;
lastChange = "2016-09-27 13:57:23 +0000";
layers = (
{
anchors = (
{
name = bottom;
position = "{446, 0}";
},
{
name = top;
position = "{446, 700}";
}
);
hints = (
{
horizontal = 1;
place = "{36, 21}";
target = up;
type = BottomGhost;
},
{
horizontal = 1;
place = "{768, -20}";
target = down;
type = TopGhost;
}
);
layerId = UUID0;
paths = (
{
closed = 1;
nodes = (
"134 0 LINE",
"134 675 LINE",
"132 670 LINE",
"445 230 LINE",
"447 230 LINE",
"760 670 LINE",
"758 675 LINE",
"758 0 LINE",
"772 0 LINE",
"772 711 LINE",
"771 711 LINE",
"443 244 LINE",
"449 244 LINE",
"121 711 LINE",
"120 711 LINE",
"120 0 LINE"
);
}
);
width = 892;
},
{
anchors = (
{
name = bottom;
position = "{474, 0}";
},
{
name = top;
position = "{474, 736}";
}
);
hints = (
{
horizontal = 1;
place = "{0, 21}";
target = up;
type = BottomGhost;
},
{
horizontal = 1;
place = "{732, -20}";
target = down;
type = TopGhost;
}
);
layerId = UUID1;
paths = (
{
closed = 1;
nodes = (
"235 0 LINE",
"235 433 LINE",
"210 364 LINE",
"466 10 LINE",
"468 10 LINE",
"717 364 LINE",
"708 439 LINE",
"708 0 LINE",
"853 0 LINE",
"853 766 LINE",
"851 766 LINE",
"443 200 LINE",
"505 186 LINE",
"96 766 LINE",
"95 766 LINE",
"95 0 LINE"
);
}
);
width = 948;
}
);
leftMetricsKey = H;
rightMetricsKey = H;
unicode = 004D;
},
{
glyphname = N;
lastChange = "2016-09-27 13:57:23 +0000";
layers = (
{
anchors = (
{
name = bottom;
position = "{406, 0}";
},
{
name = top;
position = "{406, 700}";
}
);
hints = (
{
horizontal = 1;
place = "{768, -20}";
target = down;
type = TopGhost;
},
{
horizontal = 1;
place = "{4, 21}";
target = up;
type = BottomGhost;
}
);
layerId = UUID0;
paths = (
{
closed = 1;
nodes = (
"691 -12 LINE",
"691 700 LINE",
"677 700 LINE",
"677 16 LINE",
"687 14 LINE",
"121 711 LINE",
"120 711 LINE",
"120 0 LINE",
"134 0 LINE",
"134 686 LINE",
"130 676 LINE",
"690 -12 LINE"
);
}
);
width = 811;
},
{
anchors = (
{
name = bottom;
position = "{427, 0}";
},
{
name = top;
position = "{407, 736}";
}
);
hints = (
{
horizontal = 1;
place = "{732, -20}";
target = down;
type = TopGhost;
},
{
horizontal = 1;
place = "{-32, 21}";
target = up;
type = BottomGhost;
}
);
layerId = UUID1;
paths = (
{
closed = 1;
nodes = (
"758 -30 LINE",
"758 736 LINE",
"612 736 LINE",
"615 277 LINE",
"647 263 LINE",
"101 765 LINE",
"95 765 LINE",
"95 0 LINE",
"242 0 LINE",
"239 450 LINE",
"196 474 LINE",
"754 -30 LINE"
);
}
);
width = 853;
}
);
leftMetricsKey = H;
rightMetricsKey = H;
unicode = 004E;
},
{
glyphname = Eng;
lastChange = "2016-09-21 17:31:49 +0000";
layers = (
{
hints = (
{
horizontal = 1;
place = "{768, -20}";
target = down;
type = TopGhost;
},
{
horizontal = 1;
place = "{4, 21}";
target = up;
type = BottomGhost;
},
{
horizontal = 1;
place = "{-155, 21}";
target = up;
type = BottomGhost;
},
{
horizontal = 1;
place = "{545, -20}";
target = down;
type = TopGhost;
}
);
layerId = UUID0;
paths = (
{
closed = 1;
nodes = (
"691 -12 LINE",
"691 700 LINE",
"677 700 LINE",
"677 16 LINE",
"687 14 LINE",
"121 711 LINE",
"120 711 LINE",
"120 0 LINE",
"134 0 LINE",
"134 686 LINE",
"130 676 LINE",
"690 -12 LINE"
);
},
{
closed = 1;
nodes = (
"677 62 LINE",
"677 -11 LINE SMOOTH",
"677 -79 OFFCURVE",
"655 -134 OFFCURVE",
"622 -171 CURVE",
"634 -180 LINE",
"669 -141 OFFCURVE",
"691 -83 OFFCURVE",
"691 -7 CURVE SMOOTH",
"691 62 LINE"
);
}
);
width = 811;
},
{
hints = (
{
horizontal = 1;
place = "{732, -20}";
target = down;
type = TopGhost;
},
{
horizontal = 1;
place = "{-32, 21}";
target = up;
type = BottomGhost;
},
{
horizontal = 1;
place = "{-181, 21}";
target = up;
type = BottomGhost;
},
{
horizontal = 1;
place = "{573, -20}";
target = down;
type = TopGhost;
}
);
layerId = UUID1;
paths = (
{
closed = 1;
nodes = (
"733 4 LINE",
"733 736 LINE",
"587 736 LINE",
"590 277 LINE",
"622 263 LINE",
"76 765 LINE",
"70 765 LINE",
"70 0 LINE",
"217 0 LINE",
"214 450 LINE",
"171 474 LINE",
"729 -30 LINE"
);
},
{
closed = 1;
nodes = (
"594 163 LINE",
"594 8 LINE",
"594 -53 OFFCURVE",
"571 -95 OFFCURVE",
"531 -124 CURVE",
"611 -211 LINE",
"695 -167 OFFCURVE",
"733 -96 OFFCURVE",
"733 0 CURVE",
"733 30 LINE"
);
}
);
width = 803;
}
);
unicode = 014A;
},
{
glyphname = Nhookleft;
lastChange = "2016-09-27 13:57:23 +0000";
layers = (
{
layerId = UUID0;
paths = (
{
closed = 1;
nodes = (
"691 -12 LINE",
"691 700 LINE",
"677 700 LINE",
"677 16 LINE",
"687 14 LINE",
"121 711 LINE",
"120 711 LINE",
"120 0 LINE",
"134 0 LINE",
"134 686 LINE",
"130 676 LINE",
"690 -12 LINE"
);
},
{
closed = 1;
nodes = (
"120 62 LINE",
"120 -11 LINE SMOOTH",
"120 -79 OFFCURVE",
"98 -134 OFFCURVE",
"65 -171 CURVE",
"77 -180 LINE",
"112 -141 OFFCURVE",
"134 -83 OFFCURVE",
"134 -7 CURVE SMOOTH",
"134 62 LINE"
);
}
);
width = 811;
},
{
layerId = UUID1;
paths = (
{
closed = 1;
nodes = (
"733 4 LINE",
"733 736 LINE",
"587 736 LINE",
"590 277 LINE",
"622 263 LINE",
"76 765 LINE",
"70 765 LINE",
"70 0 LINE",
"217 0 LINE",
"214 450 LINE",
"171 474 LINE",
"729 -30 LINE"
);
},
{
closed = 1;
nodes = (
"70 163 LINE",
"70 8 LINE",
"70 -53 OFFCURVE",
"47 -95 OFFCURVE",
"7 -124 CURVE",
"95 -211 LINE",
"179 -167 OFFCURVE",
"217 -96 OFFCURVE",
"217 0 CURVE",
"217 30 LINE"
);
}
);
width = 828;
}
);
rightMetricsKey = N;
unicode = 019D;
},
{
glyphname = O;
lastChange = "2016-10-05 14:45:13 +0000";
layers = (
{
anchors = (
{
name = bottom;
position = "{433, 0}";
},
{
name = center;
position = "{433, 350}";
},
{
name = ogonek;
position = "{525, 10}";
},
{
name = top;
position = "{433, 700}";
},
{
name = topleft;
position = "{25, 700}";
},
{
name = topright;
position = "{530, 825}";
}
);
hints = (
{
horizontal = 1;
place = "{23, 21}";
target = up;
type = BottomGhost;
},
{
horizontal = 1;
place = "{739, -20}";
target = down;
type = TopGhost;
}
);
layerId = UUID0;
paths = (
{
closed = 1;
nodes = (
"75 141 OFFCURVE",
"235 -8 OFFCURVE",
"432 -8 CURVE SMOOTH",
"630 -8 OFFCURVE",
"791 152 OFFCURVE",
"791 349 CURVE SMOOTH",
"791 547 OFFCURVE",
"630 708 OFFCURVE",
"432 708 CURVE SMOOTH",
"235 708 OFFCURVE",
"75 547 OFFCURVE",
"75 349 CURVE"
);
},
{
closed = 1;
nodes = (
"89 532 OFFCURVE",
"237 695 OFFCURVE",
"432 695 CURVE SMOOTH",
"621 695 OFFCURVE",
"777 538 OFFCURVE",
"777 349 CURVE SMOOTH",
"777 158 OFFCURVE",
"621 5 OFFCURVE",
"429 5 CURVE SMOOTH",
"242 5 OFFCURVE",
"89 159 OFFCURVE",
"89 348 CURVE"
);
}
);
width = 866;
},
{
anchors = (
{
name = bottom;
position = "{426, 0}";
},
{
name = center;
position = "{426, 368}";
},
{
name = ogonek;
position = "{597, 10}";
},
{
name = top;
position = "{426, 746}";
},
{
name = topleft;
position = "{20, 736}";
},
{
name = topright;
position = "{503, 840}";
}
);
annotations = (
{
position = "{300.18, 381.51}";
type = Text;
}
);
hints = (
{
horizontal = 1;
place = "{71, 21}";
target = up;
type = BottomGhost;
},
{
horizontal = 1;
place = "{629, -20}";
target = down;
type = TopGhost;
}
);
layerId = UUID1;
paths = (
{
closed = 1;
nodes = (
"50 159 OFFCURVE",
"218 -8 OFFCURVE",
"425 -8 CURVE",
"630 -8 OFFCURVE",
"802 160 OFFCURVE",
"802 367 CURVE",
"802 570 OFFCURVE",
"630 744 OFFCURVE",
"425 744 CURVE",
"218 744 OFFCURVE",
"50 570 OFFCURVE",
"50 367 CURVE"
);
},
{
closed = 1;
nodes = (
"200 500 OFFCURVE",
"298 604 OFFCURVE",
"426 604 CURVE",
"553 604 OFFCURVE",
"652 500 OFFCURVE",
"652 367 CURVE",
"652 236 OFFCURVE",
"556 132 OFFCURVE",
"430 132 CURVE",
"300 132 OFFCURVE",
"200 237 OFFCURVE",
"200 367 CURVE"
);
}
);
width = 852;
}
);
leftKerningGroup = O;
rightKerningGroup = O;
unicode = 004F;
},
{
glyphname = Oogonek;
lastChange = "2016-09-24 00:17:01 +0000";
layers = (
{
hints = (
{
horizontal = 1;
place = "{23, 21}";
target = up;
type = BottomGhost;
},
{
horizontal = 1;
place = "{739, -20}";
target = down;
type = TopGhost;
}
);
layerId = UUID0;
paths = (
{
closed = 1;
nodes = (
"467 -8 OFFCURVE",
"523 1 OFFCURVE",
"549 12 CURVE",
"553 21 LINE",
"500 -3 OFFCURVE",
"435 -39 OFFCURVE",
"435 -111 CURVE",
"435 -156 OFFCURVE",
"468 -186 OFFCURVE",
"504 -186 CURVE",
"537 -186 OFFCURVE",
"564 -161 OFFCURVE",
"577 -133 CURVE",
"566 -127 LINE",
"552 -152 OFFCURVE",
"531 -172 OFFCURVE",
"505 -172 CURVE",
"477 -172 OFFCURVE",
"450 -148 OFFCURVE",
"450 -111 CURVE",
"450 -20 OFFCURVE",
"553 -4 OFFCURVE",
"647 65 CURVE",
"721 119 OFFCURVE",
"791 210 OFFCURVE",
"791 349 CURVE",
"791 547 OFFCURVE",
"630 708 OFFCURVE",
"432 708 CURVE",
"235 708 OFFCURVE",
"75 547 OFFCURVE",
"75 349 CURVE",
"75 141 OFFCURVE",
"235 -8 OFFCURVE",
"432 -8 CURVE"
);
},
{
closed = 1;
nodes = (
"242 5 OFFCURVE",
"89 159 OFFCURVE",
"89 348 CURVE",
"89 532 OFFCURVE",
"237 695 OFFCURVE",
"432 695 CURVE",
"621 695 OFFCURVE",
"777 538 OFFCURVE",
"777 349 CURVE",
"777 158 OFFCURVE",
"621 5 OFFCURVE",
"432 5 CURVE"
);
}
);
width = 866;
},
{
background = {
paths = (
{
closed = 1;
nodes = (
"481 0 LINE",
"426 -22 OFFCURVE",
"396 -69 OFFCURVE",
"396 -113 CURVE SMOOTH",
"396 -191 OFFCURVE",
"458 -226 OFFCURVE",
"540 -226 CURVE SMOOTH",
"597 -226 OFFCURVE",
"660 -193 OFFCURVE",
"680 -144 CURVE",
"610 -92 LINE",
"604 -110 OFFCURVE",
"582 -134 OFFCURVE",
"555 -134 CURVE SMOOTH",
"532 -134 OFFCURVE",
"511 -126 OFFCURVE",
"511 -71 CURVE SMOOTH",
"511 -9 OFFCURVE",
"554 11 OFFCURVE",
"620 47 CURVE SMOOTH",
"732 108 OFFCURVE",
"802 231 OFFCURVE",
"802 367 CURVE",
"802 570 OFFCURVE",
"630 744 OFFCURVE",
"425 744 CURVE",
"218 744 OFFCURVE",
"50 570 OFFCURVE",
"50 367 CURVE",
"50 160 OFFCURVE",
"218 -8 OFFCURVE",
"425 -8 CURVE",
"496 -8 OFFCURVE",
"555 12 OFFCURVE",
"613 47 CURVE"
);
},
{
closed = 1;
nodes = (
"200 496 OFFCURVE",
"298 600 OFFCURVE",
"426 600 CURVE",
"553 600 OFFCURVE",
"652 496 OFFCURVE",
"652 367 CURVE",
"652 237 OFFCURVE",
"556 133 OFFCURVE",
"430 133 CURVE",
"300 133 OFFCURVE",
"200 238 OFFCURVE",
"200 367 CURVE"
);
}
);
};
hints = (
{
horizontal = 1;
place = "{71, 21}";
target = up;
type = BottomGhost;
},
{
horizontal = 1;
place = "{629, -20}";
target = down;
type = TopGhost;
}
);
layerId = UUID1;
paths = (
{
closed = 1;
nodes = (
"496 -8 OFFCURVE",
"555 12 OFFCURVE",
"613 47 CURVE",
"481 0 LINE",
"426 -22 OFFCURVE",
"396 -69 OFFCURVE",
"396 -113 CURVE SMOOTH",
"396 -191 OFFCURVE",
"460 -232 OFFCURVE",
"542 -232 CURVE",
"588 -232 OFFCURVE",
"647 -201 OFFCURVE",
"677 -157 CURVE",
"627 -85 LINE",
"605 -118 OFFCURVE",
"582 -134 OFFCURVE",
"555 -134 CURVE",
"532 -134 OFFCURVE",
"511 -126 OFFCURVE",
"511 -90 CURVE SMOOTH",
"511 -38 OFFCURVE",
"588 -3 OFFCURVE",
"663 64 CURVE SMOOTH",
"734 126 OFFCURVE",
"802 214 OFFCURVE",
"802 367 CURVE",
"802 570 OFFCURVE",
"630 744 OFFCURVE",
"425 744 CURVE",
"218 744 OFFCURVE",
"50 570 OFFCURVE",
"50 367 CURVE",
"50 160 OFFCURVE",
"218 -8 OFFCURVE",
"425 -8 CURVE"
);
},
{
closed = 1;
nodes = (
"300 133 OFFCURVE",
"200 238 OFFCURVE",
"200 367 CURVE",
"200 496 OFFCURVE",
"298 600 OFFCURVE",
"426 600 CURVE",
"553 600 OFFCURVE",
"652 496 OFFCURVE",
"652 367 CURVE",
"652 237 OFFCURVE",
"556 133 OFFCURVE",
"430 133 CURVE"
);
}
);
width = 852;
}
);
unicode = 01EA;
},
{
glyphname = Oslash;
lastChange = "2016-09-17 23:46:27 +0000";
layers = (
{
anchors = (
{
name = bottom;
position = "{428, 0}";
},
{
name = top;
position = "{428, 700}";
}
);
components = (
{
name = O;
}
);
hints = (
{
horizontal = 1;
place = "{28, 21}";
target = up;
type = BottomGhost;
},
{
horizontal = 1;
place = "{744, -20}";
target = down;
type = TopGhost;
}
);
layerId = UUID0;
paths = (
{
closed = 1;
nodes = (
"714 716 LINE",
"122 8 LINE",
"130 0 LINE",
"722 708 LINE"
);
}
);
width = 856;
},
{
anchors = (
{
name = bottom;
position = "{429, 0}";
},
{
name = top;
position = "{429, 736}";
}
);
components = (
{
name = O;
}
);
hints = (
{
horizontal = 1;
place = "{-17, 21}";
target = up;
type = BottomGhost;
},
{
horizontal = 1;
place = "{719, -20}";
target = down;
type = TopGhost;
}
);
layerId = UUID1;
paths = (
{
closed = 1;
nodes = (
"681 759 LINE",
"76 60 LINE",
"168 -23 LINE",
"771 675 LINE"
);
}
);
width = 858;
}
);
unicode = 00D8;
},
{
glyphname = OE;
lastChange = "2016-09-24 00:03:31 +0000";
layers = (
{
anchors = (
{
name = bottom;
position = "{504, 0}";
},
{
name = top;
position = "{504, 700}";
}
);
hints = (
{
horizontal = 1;
place = "{28, 21}";
target = up;
type = BottomGhost;
},
{
horizontal = 1;
place = "{744, -20}";
target = down;
type = TopGhost;
},
{
horizontal = 1;
place = "{36, 21}";
target = up;
type = BottomGhost;
},
{
horizontal = 1;
place = "{736, -20}";
target = down;
type = TopGhost;
}
);
layerId = UUID0;
paths = (
{
closed = 1;
nodes = (
"528 696 LINE",
"499 704 OFFCURVE",
"469 708 OFFCURVE",
"437 708 CURVE SMOOTH",
"240 708 OFFCURVE",
"80 547 OFFCURVE",
"80 349 CURVE SMOOTH",
"80 152 OFFCURVE",
"240 -8 OFFCURVE",
"437 -8 CURVE SMOOTH",
"468 -8 OFFCURVE",
"498 -4 OFFCURVE",
"526 3 CURVE",
"511 14 LINE",
"486 8 OFFCURVE",
"461 5 OFFCURVE",
"438 5 CURVE SMOOTH",
"247 5 OFFCURVE",
"94 159 OFFCURVE",
"94 348 CURVE SMOOTH",
"94 538 OFFCURVE",
"248 695 OFFCURVE",
"437 695 CURVE SMOOTH",
"463 695 OFFCURVE",
"488 692 OFFCURVE",
"512 687 CURVE"
);
},
{
closed = 1;
nodes = (
"506 0 LINE",
"905 0 LINE",
"905 14 LINE",
"520 14 LINE",
"520 346 LINE",
"852 346 LINE",
"852 360 LINE",
"520 360 LINE",
"520 686 LINE",
"891 686 LINE",
"891 700 LINE",
"506 700 LINE"
);
}
);
width = 1008;
},
{
anchors = (
{
name = bottom;
position = "{511, 0}";
},
{
name = top;
position = "{511, 736}";
}
);
hints = (
{
horizontal = 1;
place = "{71, 21}";
target = up;
type = BottomGhost;
},
{
horizontal = 1;
place = "{629, -20}";
target = down;
type = TopGhost;
},
{
horizontal = 1;
place = "{0, 21}";
target = up;
type = BottomGhost;
},
{
horizontal = 1;
place = "{700, -20}";
target = down;
type = TopGhost;
}
);
layerId = UUID1;
paths = (
{
closed = 1;
nodes = (
"529 731 LINE",
"499 739 OFFCURVE",
"467 744 OFFCURVE",
"434 744 CURVE SMOOTH",
"227 744 OFFCURVE",
"59 570 OFFCURVE",
"59 367 CURVE SMOOTH",
"59 160 OFFCURVE",
"227 -8 OFFCURVE",
"434 -8 CURVE SMOOTH",
"466 -8 OFFCURVE",
"496 -4 OFFCURVE",
"526 4 CURVE",
"489 139 LINE",
"473 135 OFFCURVE",
"456 133 OFFCURVE",
"439 133 CURVE SMOOTH",
"311 133 OFFCURVE",
"209 238 OFFCURVE",
"209 367 CURVE SMOOTH",
"209 496 OFFCURVE",
"309 600 OFFCURVE",
"435 600 CURVE SMOOTH",
"452 600 OFFCURVE",
"468 598 OFFCURVE",
"484 594 CURVE"
);
},
{
closed = 1;
nodes = (
"477 0 LINE",
"963 0 LINE",
"963 139 LINE",
"627 139 LINE",
"627 299 LINE",
"908 299 LINE",
"908 437 LINE",
"627 437 LINE",
"627 601 LINE",
"949 601 LINE",
"949 736 LINE",
"477 736 LINE"
);
}
);
width = 1021;
}
);
unicode = 0152;
},
{
glyphname = P;
lastChange = "2016-09-28 13:44:29 +0000";
layers = (
{
anchors = (
{
name = bottom;
position = "{255, 0}";
},
{
name = top;
position = "{255, 700}";
}
);
hints = (
{
horizontal = 1;
place = "{36, 21}";
target = up;
type = BottomGhost;
},
{
horizontal = 1;
place = "{736, -20}";
target = down;
type = TopGhost;
}
);
layerId = UUID0;
paths = (
{
closed = 1;
nodes = (
"120 700 LINE",
"120 0 LINE",
"134 0 LINE",
"134 321 LINE",
"246 321 LINE SMOOTH",
"395 321 OFFCURVE",
"460 416 OFFCURVE",
"460 516 CURVE SMOOTH",
"460 644 OFFCURVE",
"375 700 OFFCURVE",
"262 700 CURVE SMOOTH"
);
},
{
closed = 1;
nodes = (
"134 334 LINE",
"134 687 LINE",
"260 687 LINE SMOOTH",
"369 687 OFFCURVE",
"446 630 OFFCURVE",
"446 518 CURVE SMOOTH",
"446 446 OFFCURVE",
"404 334 OFFCURVE",
"246 334 CURVE SMOOTH"
);
}
);
width = 525;
},
{
anchors = (
{
name = bottom;
position = "{331, 0}";
},
{
name = top;
position = "{331, 736}";
}
);
hints = (
{
horizontal = 1;
place = "{0, 21}";
target = up;
type = BottomGhost;
},
{
horizontal = 1;
place = "{700, -20}";
target = down;
type = TopGhost;
}
);
layerId = UUID1;
paths = (
{
closed = 1;
nodes = (
"95 736 LINE",
"95 0 LINE",
"240 0 LINE",
"240 233 LINE",
"344 233 LINE SMOOTH",
"536 233 OFFCURVE",
"601 367 OFFCURVE",
"601 488 CURVE SMOOTH",
"601 639 OFFCURVE",
"500 736 OFFCURVE",
"318 736 CURVE SMOOTH"
);
},
{
closed = 1;
nodes = (
"240 374 LINE",
"240 596 LINE",
"344 596 LINE SMOOTH",
"446 596 OFFCURVE",
"456 513 OFFCURVE",
"456 484 CURVE SMOOTH",
"456 446 OFFCURVE",
"431 374 OFFCURVE",
"343 374 CURVE SMOOTH"
);
}
);
width = 636;
}
);
leftMetricsKey = H;
rightKerningGroup = P;
unicode = 0050;
},
{
glyphname = Thorn;
lastChange = "2016-09-28 14:06:42 +0000";
layers = (
{
anchors = (
{
name = bottom;
position = "{285, 0}";
},
{
name = top;
position = "{285, 700}";
}
);
hints = (
{
horizontal = 1;
place = "{736, -20}";
target = down;
type = TopGhost;
},
{
horizontal = 1;
place = "{36, 21}";
target = up;
type = BottomGhost;
}
);
layerId = UUID0;
paths = (
{
closed = 1;
nodes = (
"134 535 LINE",
"134 700 LINE",
"120 700 LINE",
"120 0 LINE",
"134 0 LINE",
"134 156 LINE",
"246 156 LINE SMOOTH",
"395 156 OFFCURVE",
"460 251 OFFCURVE",
"460 351 CURVE SMOOTH",
"460 489 OFFCURVE",
"337 535 OFFCURVE",
"260 535 CURVE SMOOTH"
);
},
{
closed = 1;
nodes = (
"134 170 LINE",
"134 521 LINE",
"250 521 LINE SMOOTH",
"361 521 OFFCURVE",
"446 455 OFFCURVE",
"446 353 CURVE SMOOTH",
"446 281 OFFCURVE",
"404 170 OFFCURVE",
"249 170 CURVE SMOOTH"
);
}
);
width = 525;
},
{
anchors = (
{
name = bottom;
position = "{272, 0}";
},
{
name = top;
position = "{272, 736}";
}
);
hints = (
{
horizontal = 1;
place = "{700, -20}";
target = down;
type = TopGhost;
},
{
horizontal = 1;
place = "{0, 21}";
target = up;
type = BottomGhost;
}
);
layerId = UUID1;
paths = (
{
closed = 1;
nodes = (
"245 616 LINE",
"245 714 LINE",
"95 714 LINE",
"95 0 LINE",
"245 0 LINE",
"245 113 LINE",
"354 113 LINE SMOOTH",
"546 113 OFFCURVE",
"601 247 OFFCURVE",
"601 368 CURVE SMOOTH",
"601 519 OFFCURVE",
"530 616 OFFCURVE",
"348 616 CURVE SMOOTH"
);
},
{
closed = 1;
nodes = (
"245 254 LINE",
"245 476 LINE",
"339 476 LINE SMOOTH",
"429 476 OFFCURVE",
"451 413 OFFCURVE",
"451 364 CURVE SMOOTH",
"451 306 OFFCURVE",
"414 254 OFFCURVE",
"338 254 CURVE SMOOTH"
);
}
);
width = 636;
}
);
leftMetricsKey = H;
rightMetricsKey = P;
unicode = 00DE;
},
{
glyphname = Q;
lastChange = "2016-09-27 13:12:54 +0000";
layers = (
{
anchors = (
{
name = bottom;
position = "{439, 0}";
},
{
name = top;
position = "{439, 700}";
}
);
hints = (
{
horizontal = 1;
place = "{23, 21}";
target = up;
type = BottomGhost;
},
{
horizontal = 1;
place = "{739, -20}";
target = down;
type = TopGhost;
}
);
layerId = UUID0;
paths = (
{
closed = 1;
nodes = (
"496 0 LINE",
"803 0 LINE",
"803 13 LINE",
"521 13 LINE"
);
},
{
closed = 1;
nodes = (
"75 141 OFFCURVE",
"235 -8 OFFCURVE",
"432 -8 CURVE SMOOTH",
"630 -8 OFFCURVE",
"791 152 OFFCURVE",
"791 349 CURVE SMOOTH",
"791 547 OFFCURVE",
"630 708 OFFCURVE",
"432 708 CURVE SMOOTH",
"235 708 OFFCURVE",
"75 547 OFFCURVE",
"75 349 CURVE"
);
},
{
closed = 1;
nodes = (
"89 532 OFFCURVE",
"237 695 OFFCURVE",
"432 695 CURVE SMOOTH",
"621 695 OFFCURVE",
"777 538 OFFCURVE",
"777 349 CURVE SMOOTH",
"777 158 OFFCURVE",
"621 5 OFFCURVE",
"429 5 CURVE SMOOTH",
"242 5 OFFCURVE",
"89 159 OFFCURVE",
"89 348 CURVE"
);
}
);
width = 878;
},
{
anchors = (
{
name = bottom;
position = "{435, 0}";
},
{
name = top;
position = "{435, 736}";
}
);
hints = (
{
horizontal = 1;
place = "{-8, 21}";
target = up;
type = BottomGhost;
},
{
horizontal = 1;
place = "{708, -20}";
target = down;
type = TopGhost;
}
);
layerId = UUID1;
paths = (
{
closed = 1;
nodes = (
"425 0 LINE",
"843 0 LINE",
"843 142 LINE",
"615 142 LINE"
);
},
{
closed = 1;
nodes = (
"50 160 OFFCURVE",
"218 -8 OFFCURVE",
"425 -8 CURVE",
"630 -8 OFFCURVE",
"802 160 OFFCURVE",
"802 367 CURVE",
"802 570 OFFCURVE",
"630 744 OFFCURVE",
"425 744 CURVE",
"218 744 OFFCURVE",
"50 570 OFFCURVE",
"50 367 CURVE"
);
},
{
closed = 1;
nodes = (
"200 496 OFFCURVE",
"298 600 OFFCURVE",
"426 600 CURVE",
"553 600 OFFCURVE",
"652 496 OFFCURVE",
"652 367 CURVE",
"652 237 OFFCURVE",
"556 133 OFFCURVE",
"430 133 CURVE",
"300 133 OFFCURVE",
"200 238 OFFCURVE",
"200 367 CURVE"
);
}
);
width = 893;
}
);
leftKerningGroup = O;
leftMetricsKey = O;
rightMetricsKey = O;
unicode = 0051;
},
{
glyphname = R;
lastChange = "2016-09-27 16:15:18 +0000";
layers = (
{
anchors = (
{
name = bottom;
position = "{261, 0}";
},
{
name = top;
position = "{261, 700}";
}
);
hints = (
{
horizontal = 1;
place = "{36, 21}";
target = up;
type = BottomGhost;
},
{
horizontal = 1;
place = "{736, -20}";
target = down;
type = TopGhost;
}
);
layerId = UUID0;
paths = (
{
closed = 1;
nodes = (
"120 700 LINE",
"120 0 LINE",
"134 0 LINE",
"134 321 LINE",
"246 321 LINE SMOOTH",
"403 321 OFFCURVE",
"460 416 OFFCURVE",
"460 516 CURVE SMOOTH",
"460 654 OFFCURVE",
"337 700 OFFCURVE",
"260 700 CURVE SMOOTH"
);
},
{
closed = 1;
nodes = (
"134 334 LINE",
"134 687 LINE",
"260 687 LINE SMOOTH",
"361 687 OFFCURVE",
"446 619 OFFCURVE",
"446 515 CURVE SMOOTH",
"446 431 OFFCURVE",
"404 334 OFFCURVE",
"243 334 CURVE SMOOTH"
);
},
{
closed = 1;
nodes = (
"316 337 LINE",
"518 0 LINE",
"534 0 LINE",
"332 337 LINE"
);
}
);
width = 614;
},
{
anchors = (
{
name = bottom;
position = "{361, 0}";
},
{
name = top;
position = "{321, 756}";
}
);
hints = (
{
horizontal = 1;
place = "{0, 21}";
target = up;
type = BottomGhost;
},
{
horizontal = 1;
place = "{700, -20}";
target = down;
type = TopGhost;
}
);
layerId = UUID1;
paths = (
{
closed = 1;
nodes = (
"95 736 LINE",
"95 0 LINE",
"240 0 LINE",
"240 234 LINE",
"344 234 LINE",
"540 234 OFFCURVE",
"606 367 OFFCURVE",
"606 488 CURVE",
"606 639 OFFCURVE",
"503 736 OFFCURVE",
"318 736 CURVE"
);
},
{
closed = 1;
nodes = (
"240 374 LINE",
"240 596 LINE",
"344 596 LINE",
"446 596 OFFCURVE",
"456 514 OFFCURVE",
"456 483 CURVE",
"456 441 OFFCURVE",
"431 374 OFFCURVE",
"343 374 CURVE"
);
},
{
closed = 1;
nodes = (
"306 280 LINE",
"492 0 LINE",
"661 0 LINE",
"479 284 LINE"
);
}
);
width = 686;
}
);
leftMetricsKey = H;
rightKerningGroup = R;
unicode = 0052;
},
{
glyphname = S;
lastChange = "2016-09-27 16:16:13 +0000";
layers = (
{
anchors = (
{
name = bottom;
position = "{294, 0}";
},
{
name = top;
position = "{294, 720}";
}
);
hints = (
{
horizontal = 1;
place = "{740, -20}";
target = down;
type = TopGhost;
},
{
horizontal = 1;
place = "{28, 21}";
target = up;
type = BottomGhost;
}
);
layerId = UUID0;
paths = (
{
closed = 1;
nodes = (
"469 667 LINE",
"421 689 OFFCURVE",
"345 704 OFFCURVE",
"297 704 CURVE SMOOTH",
"193 704 OFFCURVE",
"111 642 OFFCURVE",
"111 550 CURVE SMOOTH",
"111 453 OFFCURVE",
"203 416 OFFCURVE",
"296 382 CURVE SMOOTH",
"393 347 OFFCURVE",
"491 308 OFFCURVE",
"491 187 CURVE SMOOTH",
"491 65 OFFCURVE",
"390 5 OFFCURVE",
"291 5 CURVE SMOOTH",
"209 5 OFFCURVE",
"128 47 OFFCURVE",
"88 76 CURVE",
"80 63 LINE",
"103 49 OFFCURVE",
"179 -8 OFFCURVE",
"294 -8 CURVE SMOOTH",
"413 -8 OFFCURVE",
"505 66 OFFCURVE",
"505 188 CURVE SMOOTH",
"505 317 OFFCURVE",
"402 357 OFFCURVE",
"305 393 CURVE SMOOTH",
"211 428 OFFCURVE",
"125 463 OFFCURVE",
"125 553 CURVE SMOOTH",
"125 631 OFFCURVE",
"193 692 OFFCURVE",
"298 692 CURVE SMOOTH",
"361 692 OFFCURVE",
"427 672 OFFCURVE",
"463 656 CURVE"
);
}
);
width = 585;
},
{
anchors = (
{
name = bottom;
position = "{289, -10}";
},
{
name = top;
position = "{289, 736}";
}
);
hints = (
{
horizontal = 1;
place = "{704, -20}";
target = down;
type = TopGhost;
},
{
horizontal = 1;
place = "{-8, 21}";
target = up;
type = BottomGhost;
}
);
layerId = UUID1;
paths = (
{
closed = 1;
nodes = (
"543 669 LINE",
"484 708 OFFCURVE",
"418 740 OFFCURVE",
"299 740 CURVE",
"162 733 OFFCURVE",
"70 652 OFFCURVE",
"70 524 CURVE",
"70 383 OFFCURVE",
"188 337 OFFCURVE",
"278 302 CURVE SMOOTH",
"336 279 OFFCURVE",
"385 247 OFFCURVE",
"385 203 CURVE",
"385 139 OFFCURVE",
"323 120 OFFCURVE",
"271 120 CURVE",
"219 120 OFFCURVE",
"147 146 OFFCURVE",
"96 184 CURVE",
"32 71 LINE",
"109 16 OFFCURVE",
"200 -8 OFFCURVE",
"284 -8 CURVE",
"448 -8 OFFCURVE",
"536 91 OFFCURVE",
"536 203 CURVE",
"536 343 OFFCURVE",
"447 391 OFFCURVE",
"361 423 CURVE SMOOTH",
"290 449 OFFCURVE",
"220 483 OFFCURVE",
"220 535 CURVE",
"220 586 OFFCURVE",
"258 611 OFFCURVE",
"321 611 CURVE",
"372 611 OFFCURVE",
"432 589 OFFCURVE",
"488 558 CURVE"
);
}
);
width = 583;
}
);
rightKerningGroup = S;
unicode = 0053;
},
{
glyphname = Germandbls;
lastChange = "2016-09-27 13:57:23 +0000";
layers = (
{
layerId = UUID0;
paths = (
{
closed = 1;
nodes = (
"684 -8 OFFCURVE",
"757 63 OFFCURVE",
"757 146 CURVE",
"757 232 OFFCURVE",
"678 266 OFFCURVE",
"599 308 CURVE",
"515 353 OFFCURVE",
"433 395 OFFCURVE",
"433 485 CURVE",
"433 564 OFFCURVE",
"504 626 OFFCURVE",
"583 626 CURVE",
"641 626 OFFCURVE",
"682 595 OFFCURVE",
"693 586 CURVE",
"702 596 LINE",
"653 653 OFFCURVE",
"552 708 OFFCURVE",
"428 708 CURVE",
"212 708 OFFCURVE",
"120 559 OFFCURVE",
"120 343 CURVE",
"120 0 LINE",
"134 0 LINE",
"134 339 LINE",
"134 586 OFFCURVE",
"252 695 OFFCURVE",
"430 695 CURVE",
"516 695 OFFCURVE",
"608 663 OFFCURVE",
"667 611 CURVE",
"672 614 LINE",
"654 624 OFFCURVE",
"634 640 OFFCURVE",
"583 640 CURVE",
"464 633 OFFCURVE",
"418 553 OFFCURVE",
"418 479 CURVE",
"418 389 OFFCURVE",
"502 339 OFFCURVE",
"590 297 CURVE",
"665 252 OFFCURVE",
"743 225 OFFCURVE",
"743 144 CURVE",
"743 56 OFFCURVE",
"650 5 OFFCURVE",
"582 5 CURVE",
"515 5 OFFCURVE",
"455 25 OFFCURVE",
"410 49 CURVE",
"405 36 LINE",
"439 17 OFFCURVE",
"496 -8 OFFCURVE",
"581 -8 CURVE"
);
}
);
width = 837;
},
{
hints = (
{
horizontal = 1;
place = "{704, -20}";
target = down;
type = TopGhost;
},
{
horizontal = 1;
place = "{-8, 21}";
target = up;
type = BottomGhost;
},
{
horizontal = 1;
place = "{0, 21}";
target = up;
type = BottomGhost;
},
{
horizontal = 1;
place = "{751, -20}";
target = down;
type = TopGhost;
}
);
layerId = UUID1;
paths = (
{
closed = 1;
nodes = (
"718 -8 OFFCURVE",
"799 91 OFFCURVE",
"799 203 CURVE",
"799 333 OFFCURVE",
"709 379 OFFCURVE",
"634 423 CURVE",
"588 452 OFFCURVE",
"537 478 OFFCURVE",
"537 530 CURVE",
"537 568 OFFCURVE",
"558 595 OFFCURVE",
"594 595 CURVE",
"615 595 OFFCURVE",
"630 587 OFFCURVE",
"639 580 CURVE",
"677 687 LINE",
"631 736 OFFCURVE",
"504 786 OFFCURVE",
"398 786 CURVE",
"207 786 OFFCURVE",
"95 637 OFFCURVE",
"95 421 CURVE",
"95 0 LINE",
"241 0 LINE",
"241 417 LINE",
"241 594 OFFCURVE",
"307 671 OFFCURVE",
"413 671 CURVE",
"479 671 OFFCURVE",
"542 649 OFFCURVE",
"592 597 CURVE",
"637 669 LINE",
"622 685 OFFCURVE",
"602 693 OFFCURVE",
"571 693 CURVE",
"463 685 OFFCURVE",
"393 620 OFFCURVE",
"393 506 CURVE",
"393 399 OFFCURVE",
"481 339 OFFCURVE",
"551 302 CURVE",
"602 274 OFFCURVE",
"648 247 OFFCURVE",
"648 203 CURVE",
"648 139 OFFCURVE",
"596 120 OFFCURVE",
"554 120 CURVE",
"502 120 OFFCURVE",
"430 146 OFFCURVE",
"379 184 CURVE",
"315 71 LINE",
"392 16 OFFCURVE",
"483 -8 OFFCURVE",
"567 -8 CURVE"
);
}
);
width = 839;
}
);
leftMetricsKey = H;
rightMetricsKey = S;
unicode = 1E9E;
},
{
glyphname = Schwa;
lastChange = "2016-12-01 12:52:13 +0000";
layers = (
{
hints = (
{
horizontal = 1;
place = "{-36, 21}";
target = up;
type = BottomGhost;
},
{
horizontal = 1;
place = "{357, 21}";
target = up;
type = BottomGhost;
}
);
layerId = UUID0;
paths = (
{
closed = 1;
nodes = (
"280 709 OFFCURVE",
"192 669 OFFCURVE",
"126 608 CURVE",
"136 598 LINE",
"196 653 OFFCURVE",
"286 695 OFFCURVE",
"374 695 CURVE",
"585 695 OFFCURVE",
"724 524 OFFCURVE",
"724 347 CURVE",
"724 161 OFFCURVE",
"570 5 OFFCURVE",
"374 5 CURVE",
"242 5 OFFCURVE",
"132 87 OFFCURVE",
"78 212 CURVE",
"73 202 LINE",
"709 462 LINE",
"703 475 LINE",
"60 213 LINE",
"113 86 OFFCURVE",
"221 -8 OFFCURVE",
"374 -8 CURVE",
"577 -8 OFFCURVE",
"738 150 OFFCURVE",
"738 347 CURVE",
"738 548 OFFCURVE",
"577 709 OFFCURVE",
"374 709 CURVE"
);
}
);
width = 813;
},
{
hints = (
{
horizontal = 1;
place = "{352, 21}";
target = up;
type = BottomGhost;
},
{
horizontal = 1;
place = "{745, 21}";
target = up;
type = BottomGhost;
}
);
layerId = UUID1;
paths = (
{
closed = 1;
nodes = (
"296 743 OFFCURVE",
"170 692 OFFCURVE",
"114 635 CURVE",
"186 517 LINE",
"224 565 OFFCURVE",
"306 601 OFFCURVE",
"373 601 CURVE",
"473 601 OFFCURVE",
"581 516 OFFCURVE",
"581 377 CURVE",
"581 235 OFFCURVE",
"488 129 OFFCURVE",
"384 129 CURVE",
"288 129 OFFCURVE",
"233 200 OFFCURVE",
"210 294 CURVE",
"165 251 LINE",
"639 410 LINE",
"608 516 LINE",
"40 332 LINE",
"74 123 OFFCURVE",
"194 0 OFFCURVE",
"373 0 CURVE",
"569 0 OFFCURVE",
"735 164 OFFCURVE",
"735 385 CURVE",
"735 589 OFFCURVE",
"600 743 OFFCURVE",
"376 743 CURVE"
);
}
);
width = 785;
}
);
rightMetricsKey = O;
unicode = 018F;
},
{
glyphname = T;
lastChange = "2016-09-28 13:36:56 +0000";
layers = (
{
anchors = (
{
name = bottom;
position = "{287, 0}";
},
{
name = center;
position = "{287, 350}";
},
{
name = top;
position = "{287, 700}";
}
);
hints = (
{
horizontal = 1;
place = "{736, -20}";
target = down;
type = TopGhost;
},
{
horizontal = 1;
place = "{36, 21}";
target = up;
type = BottomGhost;
}
);
layerId = UUID0;
paths = (
{
closed = 1;
nodes = (
"60 687 LINE",
"280 687 LINE",
"280 0 LINE",
"294 0 LINE",
"294 687 LINE",
"514 687 LINE",
"514 700 LINE",
"60 700 LINE"
);
}
);
width = 574;
},
{
anchors = (
{
name = bottom;
position = "{293, 0}";
},
{
name = center;
position = "{293, 368}";
},
{
name = top;
position = "{293, 736}";
}
);
hints = (
{
horizontal = 1;
place = "{700, -20}";
target = down;
type = TopGhost;
},
{
horizontal = 1;
place = "{0, 21}";
target = up;
type = BottomGhost;
}
);
layerId = UUID1;
paths = (
{
closed = 1;
nodes = (
"45 596 LINE",
"217 596 LINE",
"217 0 LINE",
"362 0 LINE",
"362 596 LINE",
"541 596 LINE",
"541 736 LINE",
"45 736 LINE"
);
}
);
width = 586;
}
);
leftKerningGroup = T;
rightKerningGroup = T;
unicode = 0054;
},
{
glyphname = U;
lastChange = "2016-12-12 20:05:05 +0000";
layers = (
{
anchors = (
{
name = bottom;
position = "{345, 0}";
},
{
name = ogonek;
position = "{458, 10}";
},
{
name = top;
position = "{345, 700}";
},
{
name = topright;
position = "{583, 825}";
}
);
hints = (
{
horizontal = 1;
place = "{28, 21}";
target = up;
type = BottomGhost;
},
{
horizontal = 1;
place = "{736, -20}";
target = down;
type = TopGhost;
}
);
layerId = UUID0;
paths = (
{
closed = 1;
nodes = (
"134 700 LINE",
"120 700 LINE",
"120 226 LINE SMOOTH",
"120 73 OFFCURVE",
"216 -8 OFFCURVE",
"345 -8 CURVE SMOOTH",
"345 -8 LINE SMOOTH",
"472 -8 OFFCURVE",
"570 73 OFFCURVE",
"570 226 CURVE SMOOTH",
"570 700 LINE",
"556 700 LINE",
"556 228 LINE SMOOTH",
"556 85 OFFCURVE",
"466 5 OFFCURVE",
"345 5 CURVE SMOOTH",
"222 5 OFFCURVE",
"134 85 OFFCURVE",
"134 228 CURVE SMOOTH"
);
}
);
width = 690;
},
{
anchors = (
{
name = bottom;
position = "{378, 0}";
},
{
name = ogonek;
position = "{542, 10}";
},
{
name = top;
position = "{378, 756}";
},
{
name = topright;
position = "{660, 769}";
}
);
hints = (
{
horizontal = 1;
place = "{-8, 21}";
target = up;
type = BottomGhost;
},
{
horizontal = 1;
place = "{700, -20}";
target = down;
type = TopGhost;
}
);
layerId = UUID1;
paths = (
{
closed = 1;
nodes = (
"225 736 LINE",
"80 736 LINE",
"80 269 LINE SMOOTH",
"80 107 OFFCURVE",
"212 -8 OFFCURVE",
"377 -8 CURVE SMOOTH",
"377 -8 LINE SMOOTH",
"543 -8 OFFCURVE",
"676 107 OFFCURVE",
"676 269 CURVE SMOOTH",
"676 736 LINE",
"533 736 LINE",
"533 272 LINE SMOOTH",
"533 202 OFFCURVE",
"466 133 OFFCURVE",
"377 133 CURVE SMOOTH",
"295 133 OFFCURVE",
"225 202 OFFCURVE",
"225 272 CURVE SMOOTH"
);
}
);
width = 756;
}
);
unicode = 0055;
},
{
glyphname = Uogonek;
lastChange = "2016-09-27 13:57:23 +0000";
layers = (
{
hints = (
{
horizontal = 1;
place = "{28, 21}";
target = up;
type = BottomGhost;
},
{
horizontal = 1;
place = "{736, -20}";
target = down;
type = TopGhost;
}
);
layerId = UUID0;
paths = (
{
closed = 1;
nodes = (
"470 -186 OFFCURVE",
"497 -161 OFFCURVE",
"510 -133 CURVE",
"499 -127 LINE",
"485 -152 OFFCURVE",
"464 -172 OFFCURVE",
"438 -172 CURVE",
"410 -172 OFFCURVE",
"383 -148 OFFCURVE",
"383 -111 CURVE",
"383 -60 OFFCURVE",
"416 -14 OFFCURVE",
"475 29 CURVE",
"533 66 OFFCURVE",
"570 132 OFFCURVE",
"570 226 CURVE",
"570 700 LINE",
"556 700 LINE",
"556 228 LINE",
"556 85 OFFCURVE",
"466 5 OFFCURVE",
"345 5 CURVE",
"222 5 OFFCURVE",
"134 85 OFFCURVE",
"134 228 CURVE",
"134 700 LINE",
"120 700 LINE",
"120 226 LINE",
"120 73 OFFCURVE",
"216 -8 OFFCURVE",
"345 -8 CURVE",
"378 -8 OFFCURVE",
"411 -2 OFFCURVE",
"435 9 CURVE",
"438 12 LINE",
"432 12 LINE",
"395 -19 OFFCURVE",
"368 -67 OFFCURVE",
"368 -111 CURVE",
"368 -156 OFFCURVE",
"401 -186 OFFCURVE",
"437 -186 CURVE"
);
}
);
width = 690;
},
{
background = {
paths = (
{
closed = 1;
nodes = (
"225 736 LINE",
"80 736 LINE",
"80 269 LINE SMOOTH",
"80 107 OFFCURVE",
"212 -8 OFFCURVE",
"377 -8 CURVE SMOOTH",
"377 -8 LINE SMOOTH",
"543 -8 OFFCURVE",
"676 107 OFFCURVE",
"676 269 CURVE SMOOTH",
"676 736 LINE",
"533 736 LINE",
"533 272 LINE SMOOTH",
"533 202 OFFCURVE",
"466 133 OFFCURVE",
"377 133 CURVE SMOOTH",
"295 133 OFFCURVE",
"225 202 OFFCURVE",
"225 272 CURVE SMOOTH"
);
},
{
closed = 1;
nodes = (
"584 0 CURVE",
"426 0 LINE",
"371 -22 OFFCURVE",
"341 -69 OFFCURVE",
"341 -113 CURVE SMOOTH",
"341 -191 OFFCURVE",
"403 -226 OFFCURVE",
"485 -226 CURVE SMOOTH",
"542 -226 OFFCURVE",
"605 -193 OFFCURVE",
"625 -144 CURVE",
"555 -92 LINE",
"549 -110 OFFCURVE",
"527 -134 OFFCURVE",
"500 -134 CURVE SMOOTH",
"477 -134 OFFCURVE",
"456 -126 OFFCURVE",
"456 -92 CURVE SMOOTH",
"456 -53 OFFCURVE",
"508 -29 OFFCURVE"
);
}
);
};
hints = (
{
horizontal = 1;
place = "{-8, 21}";
target = up;
type = BottomGhost;
},
{
horizontal = 1;
place = "{700, -20}";
target = down;
type = TopGhost;
}
);
layerId = UUID1;
paths = (
{
closed = 1;
nodes = (
"533 -232 OFFCURVE",
"592 -201 OFFCURVE",
"622 -157 CURVE",
"572 -85 LINE",
"550 -118 OFFCURVE",
"527 -134 OFFCURVE",
"500 -134 CURVE",
"477 -134 OFFCURVE",
"456 -126 OFFCURVE",
"456 -92 CURVE SMOOTH",
"456 -44 OFFCURVE",
"495 -11 OFFCURVE",
"539 26 CURVE SMOOTH",
"602 78 OFFCURVE",
"676 139 OFFCURVE",
"676 260 CURVE SMOOTH",
"676 736 LINE",
"533 736 LINE",
"533 272 LINE SMOOTH",
"533 202 OFFCURVE",
"466 133 OFFCURVE",
"377 133 CURVE SMOOTH",
"295 133 OFFCURVE",
"225 202 OFFCURVE",
"225 272 CURVE SMOOTH",
"225 736 LINE",
"80 736 LINE",
"80 269 LINE SMOOTH",
"80 109 OFFCURVE",
"196 -8 OFFCURVE",
"377 -8 CURVE SMOOTH",
"415 -8 OFFCURVE",
"450 -2 OFFCURVE",
"483 9 CURVE",
"467 69 LINE",
"426 10 LINE",
"371 -12 OFFCURVE",
"341 -59 OFFCURVE",
"341 -103 CURVE SMOOTH",
"341 -181 OFFCURVE",
"405 -232 OFFCURVE",
"487 -232 CURVE"
);
}
);
width = 756;
}
);
leftMetricsKey = U;
rightMetricsKey = U;
unicode = 0172;
},
{
glyphname = V;
lastChange = "2016-09-28 13:40:04 +0000";
layers = (
{
anchors = (
{
name = bottom;
position = "{345, 0}";
},
{
name = top;
position = "{345, 700}";
}
);
hints = (
{
horizontal = 1;
place = "{736, -20}";
target = down;
type = TopGhost;
},
{
horizontal = 1;
place = "{4, 21}";
target = up;
type = BottomGhost;
}
);
layerId = UUID0;
paths = (
{
closed = 1;
nodes = (
"55 700 LINE",
"345 -32 LINE",
"635 700 LINE",
"620 700 LINE",
"342 -13 LINE",
"349 -13 LINE",
"70 700 LINE"
);
}
);
width = 690;
},
{
anchors = (
{
name = bottom;
position = "{368, 0}";
},
{
name = top;
position = "{368, 736}";
}
);
hints = (
{
horizontal = 1;
place = "{700, -20}";
target = down;
type = TopGhost;
},
{
horizontal = 1;
place = "{-32, 21}";
target = up;
type = BottomGhost;
}
);
layerId = UUID1;
paths = (
{
closed = 1;
nodes = (
"32 736 LINE",
"368 -34 LINE",
"704 736 LINE",
"532 736 LINE",
"337 223 LINE",
"421 206 LINE",
"206 736 LINE"
);
}
);
width = 736;
}
);
leftKerningGroup = V;
rightKerningGroup = V;
unicode = 0056;
},
{
glyphname = W;
lastChange = "2016-09-28 13:45:07 +0000";
layers = (
{
anchors = (
{
name = bottom;
position = "{491, 0}";
},
{
name = top;
position = "{491, 700}";
}
);
hints = (
{
horizontal = 1;
place = "{736, -20}";
target = down;
type = TopGhost;
},
{
horizontal = 1;
place = "{4, 21}";
target = up;
type = BottomGhost;
}
);
layerId = UUID0;
paths = (
{
closed = 1;
nodes = (
"330 -32 LINE",
"486 400 LINE",
"478 415 LINE",
"327 -6 LINE",
"333 -7 LINE",
"70 700 LINE",
"55 700 LINE"
);
},
{
closed = 1;
nodes = (
"642 -32 LINE",
"927 700 LINE",
"912 700 LINE",
"638 -9 LINE",
"648 -13 LINE",
"382 700 LINE",
"367 700 LINE"
);
}
);
width = 982;
},
{
anchors = (
{
name = bottom;
position = "{512, 0}";
},
{
name = top;
position = "{512, 746}";
}
);
hints = (
{
horizontal = 1;
place = "{700, -20}";
target = down;
type = TopGhost;
},
{
horizontal = 1;
place = "{-32, 21}";
target = up;
type = BottomGhost;
}
);
layerId = UUID1;
paths = (
{
closed = 1;
nodes = (
"328 -34 LINE",
"540 421 LINE",
"473 620 LINE",
"336 279 LINE",
"359 269 LINE",
"202 731 LINE",
"32 731 LINE"
);
},
{
closed = 1;
nodes = (
"707 -32 LINE",
"991 731 LINE",
"835 731 LINE",
"700 288 LINE",
"726 284 LINE",
"545 731 LINE",
"401 731 LINE"
);
}
);
width = 1023;
}
);
leftKerningGroup = W;
leftMetricsKey = V;
rightKerningGroup = W;
rightMetricsKey = V;
unicode = 0057;
},
{
glyphname = X;
lastChange = "2016-12-07 15:03:18 +0000";
layers = (
{
anchors = (
{
name = bottom;
position = "{289, 0}";
},
{
name = top;
position = "{289, 700}";
}
);
hints = (
{
horizontal = 1;
place = "{36, 21}";
target = up;
type = BottomGhost;
},
{
horizontal = 1;
place = "{736, -20}";
target = down;
type = TopGhost;
}
);
layerId = UUID0;
paths = (
{
closed = 1;
nodes = (
"515 0 LINE",
"532 0 LINE",
"76 700 LINE",
"60 700 LINE"
);
},
{
closed = 1;
nodes = (
"66 0 LINE",
"292 356 LINE",
"281 362 LINE",
"50 0 LINE"
);
},
{
closed = 1;
nodes = (
"296 356 LINE",
"516 700 LINE",
"500 700 LINE",
"285 364 LINE"
);
}
);
width = 582;
},
{
anchors = (
{
name = bottom;
position = "{363, 0}";
},
{
name = top;
position = "{363, 736}";
}
);
hints = (
{
horizontal = 1;
place = "{0, 21}";
target = up;
type = BottomGhost;
},
{
horizontal = 1;
place = "{700, -20}";
target = down;
type = TopGhost;
}
);
layerId = UUID1;
paths = (
{
closed = 1;
nodes = (
"513 0 LINE",
"700 0 LINE",
"220 736 LINE",
"35 736 LINE"
);
},
{
closed = 1;
nodes = (
"205 0 LINE",
"355 266 LINE",
"287 412 LINE",
"25 0 LINE"
);
},
{
closed = 1;
nodes = (
"440 341 LINE",
"693 736 LINE",
"517 736 LINE",
"365 466 LINE"
);
}
);
width = 725;
}
);
leftKerningGroup = X;
unicode = 0058;
},
{
glyphname = Y;
lastChange = "2016-09-28 13:49:06 +0000";
layers = (
{
anchors = (
{
name = bottom;
position = "{320, 0}";
},
{
name = top;
position = "{320, 700}";
},
{
name = topleft;
position = "{30, 700}";
}
);
hints = (
{
horizontal = 1;
place = "{736, -20}";
target = down;
type = TopGhost;
},
{
horizontal = 1;
place = "{36, 21}";
target = up;
type = BottomGhost;
}
);
layerId = UUID0;
paths = (
{
closed = 1;
nodes = (
"313 0 LINE",
"327 0 LINE",
"327 262 LINE",
"589 700 LINE",
"573 700 LINE",
"317 272 LINE",
"324 273 LINE",
"67 700 LINE",
"50 700 LINE",
"313 262 LINE"
);
}
);
width = 639;
},
{
anchors = (
{
name = bottom;
position = "{361, 0}";
},
{
name = top;
position = "{381, 736}";
},
{
name = topleft;
position = "{10, 736}";
}
);
hints = (
{
horizontal = 1;
place = "{700, -20}";
target = down;
type = TopGhost;
},
{
horizontal = 1;
place = "{0, 21}";
target = up;
type = BottomGhost;
}
);
layerId = UUID1;
paths = (
{
closed = 1;
nodes = (
"286 0 LINE",
"431 0 LINE",
"431 229 LINE",
"707 736 LINE",
"528 736 LINE",
"341 351 LINE",
"384 354 LINE",
"194 736 LINE",
"15 736 LINE",
"286 229 LINE"
);
}
);
width = 722;
}
);
leftKerningGroup = Y;
rightKerningGroup = Y;
unicode = 0059;
},
{
glyphname = Z;
lastChange = "2016-12-07 14:05:35 +0000";
layers = (
{
anchors = (
{
name = bottom;
position = "{348, 0}";
},
{
name = top;
position = "{348, 700}";
}
);
hints = (
{
horizontal = 1;
place = "{771, -20}";
target = down;
type = TopGhost;
},
{
horizontal = 1;
place = "{36, 21}";
target = up;
type = BottomGhost;
}
);
layerId = UUID0;
paths = (
{
closed = 1;
nodes = (
"636 0 LINE",
"636 13 LINE",
"79 13 LINE",
"81 9 LINE",
"603 700 LINE",
"128 700 LINE",
"106 700 OFFCURVE",
"98 711 OFFCURVE",
"98 723 CURVE SMOOTH",
"98 735 LINE",
"82 735 LINE",
"82 731 LINE SMOOTH",
"82 693 OFFCURVE",
"101 687 OFFCURVE",
"137 687 CURVE SMOOTH",
"586 687 LINE",
"580 691 LINE",
"415 473 OFFCURVE",
"225 231 OFFCURVE",
"60 0 CURVE"
);
}
);
width = 696;
},
{
anchors = (
{
name = bottom;
position = "{361, 0}";
},
{
name = top;
position = "{361, 736}";
}
);
hints = (
{
horizontal = 1;
place = "{735, -20}";
target = down;
type = TopGhost;
},
{
horizontal = 1;
place = "{0, 21}";
target = up;
type = BottomGhost;
}
);
layerId = UUID1;
paths = (
{
closed = 1;
nodes = (
"671 0 LINE",
"671 140 LINE",
"276 140 LINE",
"284 124 LINE",
"672 736 LINE",
"263 736 LINE",
"239 736 OFFCURVE",
"231 730 OFFCURVE",
"231 759 CURVE SMOOTH",
"231 773 LINE",
"98 773 LINE",
"98 668 LINE SMOOTH",
"98 627 OFFCURVE",
"152 596 OFFCURVE",
"195 596 CURVE SMOOTH",
"460 596 LINE",
"444 636 LINE",
"444 636 OFFCURVE",
"45 0 OFFCURVE",
"45 0 CURVE"
);
}
);
width = 722;
}
);
unicode = 005A;
},
{
glyphname = a;
lastChange = "2016-12-02 15:51:25 +0000";
layers = (
{
anchors = (
{
name = bottom;
position = "{270, 0}";
},
{
name = ogonek;
position = "{481, 10}";
},
{
name = top;
position = "{270, 375}";
}
);
hints = (
{
horizontal = 1;
place = "{19, 21}";
target = up;
type = BottomGhost;
},
{
horizontal = 1;
place = "{408, -20}";
target = down;
type = TopGhost;
}
);
layerId = UUID0;
paths = (
{
closed = 1;
nodes = (
"332 -6 OFFCURVE",
"404 45 OFFCURVE",
"432 117 CURVE",
"430 131 LINE",
"430 0 LINE",
"444 0 LINE",
"444 375 LINE",
"434 375 LINE",
"430 260 LINE",
"401 332 OFFCURVE",
"331 383 OFFCURVE",
"249 383 CURVE SMOOTH",
"143 383 OFFCURVE",
"55 312 OFFCURVE",
"55 188 CURVE SMOOTH",
"55 80 OFFCURVE",
"141 -6 OFFCURVE",
"249 -6 CURVE SMOOTH"
);
},
{
closed = 1;
nodes = (
"149 7 OFFCURVE",
"69 88 OFFCURVE",
"69 188 CURVE SMOOTH",
"69 299 OFFCURVE",
"149 370 OFFCURVE",
"249 370 CURVE SMOOTH",
"338 370 OFFCURVE",
"414 303 OFFCURVE",
"430 219 CURVE",
"430 181 LINE",
"430 81 OFFCURVE",
"349 7 OFFCURVE",
"249 7 CURVE SMOOTH"
);
}
);
width = 539;
},
{
anchors = (
{
name = bottom;
position = "{307, 0}";
},
{
name = ogonek;
position = "{629, 10}";
},
{
name = top;
position = "{327, 457}";
}
);
hints = (
{
horizontal = 1;
place = "{-9, 21}";
target = up;
type = BottomGhost;
},
{
horizontal = 1;
place = "{382, -20}";
target = down;
type = TopGhost;
}
);
layerId = UUID1;
paths = (
{
closed = 1;
nodes = (
"359 -12 OFFCURVE",
"408 65 OFFCURVE",
"413 65 CURVE",
"402 95 LINE",
"402 0 LINE",
"542 0 LINE",
"542 437 LINE",
"412 437 LINE",
"403 390 LINE",
"374 425 OFFCURVE",
"338 459 OFFCURVE",
"251 459 CURVE",
"140 459 OFFCURVE",
"38 366 OFFCURVE",
"38 218 CURVE",
"38 59 OFFCURVE",
"134 -12 OFFCURVE",
"256 -12 CURVE"
);
},
{
closed = 1;
nodes = (
"234 102 OFFCURVE",
"180 155 OFFCURVE",
"180 225 CURVE",
"180 295 OFFCURVE",
"231 345 OFFCURVE",
"291 345 CURVE",
"344 345 OFFCURVE",
"386 318 OFFCURVE",
"402 275 CURVE",
"402 168 LINE",
"380 124 OFFCURVE",
"346 102 OFFCURVE",
"296 102 CURVE"
);
}
);
width = 614;
}
);
leftKerningGroup = o;
leftMetricsKey = o;
rightMetricsKey = n;
unicode = 0061;
},
{
glyphname = aogonek;
lastChange = "2016-09-24 00:37:20 +0000";
layers = (
{
anchors = (
{
name = _ogonek;
position = "{481, 10}";
},
{
name = bottom;
position = "{270, 0}";
},
{
name = ogonek;
position = "{481, 10}";
},
{
name = top;
position = "{270, 375}";
}
);
hints = (
{
horizontal = 1;
place = "{19, 21}";
target = up;
type = BottomGhost;
},
{
horizontal = 1;
place = "{408, -20}";
target = down;
type = TopGhost;
},
{
horizontal = 1;
place = "{19, 21}";
target = up;
type = BottomGhost;
},
{
horizontal = 1;
place = "{408, -20}";
target = down;
type = TopGhost;
}
);
layerId = UUID0;
paths = (
{
closed = 1;
nodes = (
"331 -6 OFFCURVE",
"402 46 OFFCURVE",
"431 117 CURVE",
"430 127 LINE",
"430 1 LINE",
"436 1 LINE",
"433 10 LINE",
"384 -17 OFFCURVE",
"339 -62 OFFCURVE",
"339 -111 CURVE",
"339 -156 OFFCURVE",
"372 -186 OFFCURVE",
"408 -186 CURVE",
"441 -186 OFFCURVE",
"468 -161 OFFCURVE",
"481 -133 CURVE",
"470 -127 LINE",
"456 -152 OFFCURVE",
"435 -172 OFFCURVE",
"409 -172 CURVE",
"381 -172 OFFCURVE",
"354 -148 OFFCURVE",
"354 -111 CURVE",
"354 -72 OFFCURVE",
"388 -33 OFFCURVE",
"444 1 CURVE",
"444 375 LINE",
"434 375 LINE",
"430 260 LINE",
"401 332 OFFCURVE",
"331 383 OFFCURVE",
"249 383 CURVE",
"143 383 OFFCURVE",
"55 312 OFFCURVE",
"55 188 CURVE",
"55 80 OFFCURVE",
"141 -6 OFFCURVE",
"249 -6 CURVE"
);
},
{
closed = 1;
nodes = (
"149 7 OFFCURVE",
"69 88 OFFCURVE",
"69 188 CURVE",
"69 299 OFFCURVE",
"149 370 OFFCURVE",
"249 370 CURVE",
"338 370 OFFCURVE",
"414 303 OFFCURVE",
"430 219 CURVE",
"430 181 LINE",
"430 81 OFFCURVE",
"349 7 OFFCURVE",
"249 7 CURVE"
);
}
);
width = 539;
},
{
anchors = (
{
name = _ogonek;
position = "{633, 10}";
},
{
name = bottom;
position = "{311, 0}";
},
{
name = ogonek;
position = "{633, 10}";
},
{
name = top;
position = "{331, 437}";
}
);
hints = (
{
horizontal = 1;
place = "{-9, 21}";
target = up;
type = BottomGhost;
},
{
horizontal = 1;
place = "{382, -20}";
target = down;
type = TopGhost;
}
);
layerId = UUID1;
paths = (
{
closed = 1;
nodes = (
"349 -12 OFFCURVE",
"395 47 OFFCURVE",
"417 65 CURVE",
"406 95 LINE",
"406 -26 LINE",
"422 -7 LINE",
"410 10 LINE",
"355 -12 OFFCURVE",
"325 -59 OFFCURVE",
"325 -103 CURVE SMOOTH",
"325 -181 OFFCURVE",
"389 -232 OFFCURVE",
"471 -232 CURVE",
"517 -232 OFFCURVE",
"576 -201 OFFCURVE",
"606 -157 CURVE",
"556 -85 LINE",
"534 -118 OFFCURVE",
"511 -134 OFFCURVE",
"484 -134 CURVE",
"461 -134 OFFCURVE",
"440 -126 OFFCURVE",
"440 -92 CURVE SMOOTH",
"440 -49 OFFCURVE",
"484 -25 OFFCURVE",
"546 0 CURVE",
"546 437 LINE",
"416 437 LINE",
"407 390 LINE",
"378 425 OFFCURVE",
"342 459 OFFCURVE",
"255 459 CURVE",
"144 459 OFFCURVE",
"42 366 OFFCURVE",
"42 218 CURVE",
"42 59 OFFCURVE",
"136 -12 OFFCURVE",
"255 -12 CURVE"
);
},
{
closed = 1;
nodes = (
"235 102 OFFCURVE",
"184 155 OFFCURVE",
"184 225 CURVE",
"184 295 OFFCURVE",
"235 345 OFFCURVE",
"295 345 CURVE",
"348 345 OFFCURVE",
"390 318 OFFCURVE",
"406 275 CURVE",
"406 168 LINE",
"383 124 OFFCURVE",
"348 102 OFFCURVE",
"295 102 CURVE"
);
}
);
width = 621;
}
);
unicode = 0105;
},
{
glyphname = ae;
lastChange = "2016-09-27 15:54:51 +0000";
layers = (
{
anchors = (
{
name = bottom;
position = "{377, 0}";
},
{
name = top;
position = "{377, 375}";
}
);
hints = (
{
horizontal = 1;
place = "{19, 224}";
},
{
horizontal = 1;
place = "{204, 229}";
},
{
horizontal = 1;
place = "{17, 21}";
target = up;
type = BottomGhost;
},
{
horizontal = 1;
place = "{409, -20}";
target = down;
type = TopGhost;
},
{
horizontal = 1;
place = "{16, 21}";
target = up;
type = BottomGhost;
}
);
layerId = UUID0;
paths = (
{
closed = 1;
nodes = (
"592 -6 OFFCURVE",
"639 14 OFFCURVE",
"674 46 CURVE",
"664 55 LINE",
"632 25 OFFCURVE",
"588 7 OFFCURVE",
"540 7 CURVE",
"431 7 OFFCURVE",
"360 96 OFFCURVE",
"360 188 CURVE",
"360 288 OFFCURVE",
"440 370 OFFCURVE",
"540 370 CURVE",
"611 370 OFFCURVE",
"665 320 OFFCURVE",
"693 260 CURVE",
"698 269 LINE",
"362 133 LINE",
"366 119 LINE",
"709 259 LINE",
"680 330 OFFCURVE",
"622 384 OFFCURVE",
"540 384 CURVE",
"432 384 OFFCURVE",
"346 296 OFFCURVE",
"346 188 CURVE",
"346 80 OFFCURVE",
"432 -6 OFFCURVE",
"540 -6 CURVE"
);
},
{
closed = 1;
nodes = (
"228 -11 OFFCURVE",
"321 -6 OFFCURVE",
"363 49 CURVE",
"362 158 LINE",
"347 173 LINE",
"347 52 LINE",
"313 14 OFFCURVE",
"240 4 OFFCURVE",
"202 4 CURVE",
"109 4 OFFCURVE",
"71 48 OFFCURVE",
"71 101 CURVE",
"71 171 OFFCURVE",
"135 199 OFFCURVE",
"187 199 CURVE",
"251 199 OFFCURVE",
"311 165 OFFCURVE",
"357 107 CURVE",
"362 116 LINE",
"326 177 OFFCURVE",
"257 214 OFFCURVE",
"186 214 CURVE",
"119 214 OFFCURVE",
"55 175 OFFCURVE",
"55 98 CURVE",
"55 45 OFFCURVE",
"98 -11 OFFCURVE",
"202 -11 CURVE"
);
},
{
closed = 1;
nodes = (
"362 246 LINE",
"362 267 LINE",
"362 337 OFFCURVE",
"334 382 OFFCURVE",
"241 382 CURVE",
"172 382 OFFCURVE",
"120 354 OFFCURVE",
"80 312 CURVE",
"89 300 LINE",
"141 353 OFFCURVE",
"189 367 OFFCURVE",
"241 367 CURVE",
"300 367 OFFCURVE",
"347 350 OFFCURVE",
"347 263 CURVE",
"347 205 LINE"
);
}
);
width = 754;
},
{
anchors = (
{
name = bottom;
position = "{423, 0}";
},
{
name = top;
position = "{423, 437}";
}
);
hints = (
{
horizontal = 1;
place = "{-8, 230}";
},
{
horizontal = 1;
place = "{136, 249}";
},
{
horizontal = 1;
place = "{-8, 21}";
target = up;
type = BottomGhost;
},
{
horizontal = 1;
place = "{384, -20}";
target = down;
type = TopGhost;
},
{
horizontal = 1;
place = "{-9, 21}";
target = up;
type = BottomGhost;
}
);
layerId = UUID1;
paths = (
{
closed = 1;
nodes = (
"631 -12 OFFCURVE",
"688 5 OFFCURVE",
"735 32 CURVE",
"673 136 LINE",
"645 118 OFFCURVE",
"617 107 OFFCURVE",
"586 107 CURVE",
"522 107 OFFCURVE",
"472 149 OFFCURVE",
"472 231 CURVE",
"474 303 OFFCURVE",
"512 349 OFFCURVE",
"575 349 CURVE",
"630 349 OFFCURVE",
"654 318 OFFCURVE",
"665 284 CURVE",
"694 297 LINE",
"419 240 LINE",
"433 167 LINE",
"819 246 LINE",
"795 383 OFFCURVE",
"711 458 OFFCURVE",
"586 458 CURVE",
"446 458 OFFCURVE",
"334 354 OFFCURVE",
"334 223 CURVE",
"334 80 OFFCURVE",
"422 -12 OFFCURVE",
"583 -12 CURVE"
);
},
{
closed = 1;
nodes = (
"294 -11 OFFCURVE",
"359 19 OFFCURVE",
"399 73 CURVE",
"399 173 LINE",
"347 173 LINE",
"347 135 LINE",
"329 111 OFFCURVE",
"287 85 OFFCURVE",
"250 85 CURVE",
"215 85 OFFCURVE",
"192 101 OFFCURVE",
"192 131 CURVE",
"192 161 OFFCURVE",
"219 174 OFFCURVE",
"262 174 CURVE SMOOTH",
"304 174 OFFCURVE",
"321 169 OFFCURVE",
"358 150 CURVE",
"380 230 LINE",
"350 247 OFFCURVE",
"287 264 OFFCURVE",
"229 264 CURVE SMOOTH",
"130 264 OFFCURVE",
"38 212 OFFCURVE",
"38 128 CURVE",
"38 46 OFFCURVE",
"92 -11 OFFCURVE",
"210 -11 CURVE"
);
},
{
closed = 1;
nodes = (
"469 281 LINE",
"469 301 LINE SMOOTH",
"469 406 OFFCURVE",
"375 458 OFFCURVE",
"268 458 CURVE SMOOTH",
"175 458 OFFCURVE",
"110 415 OFFCURVE",
"66 368 CURVE",
"136 280 LINE",
"155 308 OFFCURVE",
"195 344 OFFCURVE",
"248 344 CURVE SMOOTH",
"269 344 OFFCURVE",
"334 328 OFFCURVE",
"334 263 CURVE",
"334 227 LINE"
);
}
);
width = 849;
}
);
leftMetricsKey = a;
rightMetricsKey = e;
unicode = 00E6;
},
{
glyphname = b;
lastChange = "2016-09-27 15:55:11 +0000";
layers = (
{
anchors = (
{
name = bottom;
position = "{270, 0}";
},
{
name = top;
position = "{270, 375}";
}
);
annotations = (
{
position = "{46.849, 157.628}";
type = Text;
}
);
hints = (
{
horizontal = 1;
place = "{775, -20}";
target = down;
type = TopGhost;
},
{
horizontal = 1;
place = "{19, 21}";
target = up;
type = BottomGhost;
}
);
layerId = UUID0;
paths = (
{
closed = 1;
nodes = (
"396 -6 OFFCURVE",
"484 61 OFFCURVE",
"484 188 CURVE",
"484 296 OFFCURVE",
"398 383 OFFCURVE",
"290 383 CURVE SMOOTH",
"208 383 OFFCURVE",
"138 332 OFFCURVE",
"109 260 CURVE",
"109 245 LINE",
"109 750 LINE",
"95 750 LINE",
"95 0 LINE",
"109 0 LINE",
"109 143 LINE",
"107 122 LINE",
"135 50 OFFCURVE",
"207 -6 OFFCURVE",
"290 -6 CURVE SMOOTH"
);
},
{
closed = 1;
nodes = (
"190 7 OFFCURVE",
"109 89 OFFCURVE",
"109 174 CURVE",
"109 218 LINE",
"123 304 OFFCURVE",
"197 370 OFFCURVE",
"290 370 CURVE SMOOTH",
"400 370 OFFCURVE",
"470 285 OFFCURVE",
"470 188 CURVE",
"470 82 OFFCURVE",
"404 7 OFFCURVE",
"290 7 CURVE SMOOTH"
);
}
);
width = 539;
},
{
anchors = (
{
name = bottom;
position = "{313, 0}";
},
{
name = top;
position = "{313, 437}";
}
);
hints = (
{
horizontal = 1;
place = "{750, -20}";
target = down;
type = TopGhost;
},
{
horizontal = 1;
place = "{-9, 21}";
target = up;
type = BottomGhost;
}
);
layerId = UUID1;
paths = (
{
closed = 1;
nodes = (
"479 -12 OFFCURVE",
"586 79 OFFCURVE",
"586 228 CURVE",
"586 376 OFFCURVE",
"491 459 OFFCURVE",
"378 459 CURVE",
"304 459 OFFCURVE",
"246 436 OFFCURVE",
"211 407 CURVE",
"211 362 LINE",
"211 789 LINE",
"72 789 LINE",
"72 0 LINE",
"212 0 LINE",
"212 85 LINE",
"201 55 LINE",
"238 15 OFFCURVE",
"285 -12 OFFCURVE",
"359 -12 CURVE"
);
},
{
closed = 1;
nodes = (
"273 106 OFFCURVE",
"236 128 OFFCURVE",
"212 172 CURVE",
"212 279 LINE",
"229 322 OFFCURVE",
"273 349 OFFCURVE",
"328 349 CURVE",
"390 349 OFFCURVE",
"444 299 OFFCURVE",
"444 229 CURVE",
"444 159 OFFCURVE",
"390 106 OFFCURVE",
"328 106 CURVE"
);
}
);
width = 624;
}
);
leftMetricsKey = n;
rightMetricsKey = o;
unicode = 0062;
},
{
glyphname = c;
lastChange = "2016-12-02 14:54:14 +0000";
layers = (
{
anchors = (
{
name = bottom;
position = "{209, 0}";
},
{
name = top;
position = "{249, 375}";
}
);
hints = (
{
horizontal = 1;
place = "{408, -20}";
target = down;
type = TopGhost;
},
{
horizontal = 1;
place = "{19, 21}";
target = up;
type = BottomGhost;
}
);
layerId = UUID0;
paths = (
{
closed = 1;
nodes = (
"362 46 LINE",
"331 22 OFFCURVE",
"292 7 OFFCURVE",
"249 7 CURVE SMOOTH",
"149 7 OFFCURVE",
"69 88 OFFCURVE",
"69 188 CURVE SMOOTH",
"69 288 OFFCURVE",
"149 370 OFFCURVE",
"249 370 CURVE SMOOTH",
"292 370 OFFCURVE",
"332 354 OFFCURVE",
"363 329 CURVE",
"372 340 LINE",
"339 367 OFFCURVE",
"296 383 OFFCURVE",
"249 383 CURVE SMOOTH",
"141 383 OFFCURVE",
"55 296 OFFCURVE",
"55 188 CURVE SMOOTH",
"55 80 OFFCURVE",
"141 -6 OFFCURVE",
"249 -6 CURVE SMOOTH",
"296 -6 OFFCURVE",
"338 10 OFFCURVE",
"372 37 CURVE"
);
}
);
width = 417;
},
{
anchors = (
{
name = bottom;
position = "{238, 0}";
},
{
name = top;
position = "{256, 447}";
}
);
hints = (
{
horizontal = 1;
place = "{384, -20}";
target = down;
type = TopGhost;
},
{
horizontal = 1;
place = "{-9, 21}";
target = up;
type = BottomGhost;
}
);
layerId = UUID1;
paths = (
{
closed = 1;
nodes = (
"373 127 LINE",
"354 111 OFFCURVE",
"328 102 OFFCURVE",
"297 102 CURVE SMOOTH",
"225 102 OFFCURVE",
"178 154 OFFCURVE",
"178 219 CURVE SMOOTH",
"178 287 OFFCURVE",
"225 335 OFFCURVE",
"283 335 CURVE SMOOTH",
"327 335 OFFCURVE",
"360 316 OFFCURVE",
"379 301 CURVE",
"447 391 LINE",
"406 426 OFFCURVE",
"349 449 OFFCURVE",
"270 449 CURVE SMOOTH",
"151 449 OFFCURVE",
"38 365 OFFCURVE",
"38 219 CURVE SMOOTH",
"38 73 OFFCURVE",
"135 -12 OFFCURVE",
"285 -12 CURVE SMOOTH",
"341 -12 OFFCURVE",
"404 8 OFFCURVE",
"443 39 CURVE"
);
}
);
width = 479;
}
);
leftKerningGroup = o;
leftMetricsKey = o;
unicode = 0063;
},
{
glyphname = d;
lastChange = "2016-11-30 15:50:50 +0000";
layers = (
{
anchors = (
{
name = bottom;
position = "{270, 0}";
},
{
name = center;
position = "{435, 625}";
},
{
name = top;
position = "{270, 375}";
},
{
name = topright;
position = "{514, 375}";
}
);
hints = (
{
horizontal = 1;
place = "{19, 21}";
target = up;
type = BottomGhost;
},
{
horizontal = 1;
place = "{775, -20}";
target = down;
type = TopGhost;
}
);
layerId = UUID0;
paths = (
{
closed = 1;
nodes = (
"332 -6 OFFCURVE",
"403 45 OFFCURVE",
"431 117 CURVE",
"430 132 LINE",
"430 0 LINE",
"444 0 LINE",
"444 750 LINE",
"430 750 LINE",
"430 245 LINE",
"433 255 LINE",
"404 327 OFFCURVE",
"331 383 OFFCURVE",
"249 383 CURVE SMOOTH",
"143 383 OFFCURVE",
"55 305 OFFCURVE",
"55 188 CURVE SMOOTH",
"55 80 OFFCURVE",
"141 -6 OFFCURVE",
"249 -6 CURVE SMOOTH"
);
},
{
closed = 1;
nodes = (
"149 7 OFFCURVE",
"69 88 OFFCURVE",
"69 188 CURVE SMOOTH",
"69 296 OFFCURVE",
"148 370 OFFCURVE",
"249 370 CURVE SMOOTH",
"339 370 OFFCURVE",
"415 300 OFFCURVE",
"430 214 CURVE",
"430 184 LINE",
"430 84 OFFCURVE",
"349 7 OFFCURVE",
"249 7 CURVE SMOOTH"
);
}
);
width = 539;
},
{
anchors = (
{
name = bottom;
position = "{312, 0}";
},
{
name = center;
position = "{479, 642}";
},
{
name = top;
position = "{312, 437}";
},
{
name = topright;
position = "{607, 437}";
}
);
hints = (
{
horizontal = 1;
place = "{-9, 21}";
target = up;
type = BottomGhost;
},
{
horizontal = 1;
place = "{750, -20}";
target = down;
type = TopGhost;
}
);
layerId = UUID1;
paths = (
{
closed = 1;
nodes = (
"323 -12 OFFCURVE",
"378 17 OFFCURVE",
"423 55 CURVE",
"412 85 LINE",
"412 0 LINE",
"552 0 LINE",
"552 789 LINE",
"413 789 LINE",
"413 362 LINE",
"413 406 LINE",
"378 442 OFFCURVE",
"324 459 OFFCURVE",
"268 459 CURVE",
"135 459 OFFCURVE",
"38 375 OFFCURVE",
"38 227 CURVE",
"38 78 OFFCURVE",
"128 -12 OFFCURVE",
"250 -12 CURVE"
);
},
{
closed = 1;
nodes = (
"234 106 OFFCURVE",
"180 159 OFFCURVE",
"180 229 CURVE",
"180 299 OFFCURVE",
"234 349 OFFCURVE",
"296 349 CURVE",
"352 349 OFFCURVE",
"396 322 OFFCURVE",
"412 279 CURVE",
"412 172 LINE",
"388 128 OFFCURVE",
"352 106 OFFCURVE",
"296 106 CURVE"
);
}
);
width = 624;
}
);
leftKerningGroup = o;
leftMetricsKey = o;
rightMetricsKey = n;
unicode = 0064;
},
{
glyphname = eth;
lastChange = "2016-09-27 15:54:51 +0000";
layers = (
{
hints = (
{
horizontal = 1;
place = "{19, 21}";
target = up;
type = BottomGhost;
},
{
horizontal = 1;
place = "{751, -20}";
target = down;
type = TopGhost;
},
{
horizontal = 1;
place = "{19, 21}";
target = up;
type = BottomGhost;
},
{
horizontal = 1;
place = "{409, -20}";
target = down;
type = TopGhost;
}
);
layerId = UUID0;
paths = (
{
closed = 1;
nodes = (
"353 -6 OFFCURVE",
"445 82 OFFCURVE",
"445 189 CURVE",
"445 379 OFFCURVE",
"285 619 OFFCURVE",
"138 726 CURVE",
"132 717 LINE",
"261 624 OFFCURVE",
"407 402 OFFCURVE",
"426 252 CURVE",
"427 271 LINE",
"397 328 OFFCURVE",
"333 384 OFFCURVE",
"249 384 CURVE",
"141 384 OFFCURVE",
"55 296 OFFCURVE",
"55 188 CURVE",
"55 77 OFFCURVE",
"141 -6 OFFCURVE",
"249 -6 CURVE"
);
},
{
closed = 1;
nodes = (
"149 7 OFFCURVE",
"69 88 OFFCURVE",
"69 188 CURVE",
"69 280 OFFCURVE",
"145 370 OFFCURVE",
"249 370 CURVE",
"349 370 OFFCURVE",
"430 288 OFFCURVE",
"430 188 CURVE",
"430 88 OFFCURVE",
"349 7 OFFCURVE",
"249 7 CURVE"
);
},
{
closed = 1;
nodes = (
"302 694 LINE",
"138 587 LINE",
"146 579 LINE",
"310 687 LINE"
);
}
);
width = 500;
},
{
hints = (
{
horizontal = 1;
place = "{-6, 21}";
target = up;
type = BottomGhost;
},
{
horizontal = 1;
place = "{738, -20}";
target = down;
type = TopGhost;
},
{
horizontal = 1;
place = "{-9, 21}";
target = up;
type = BottomGhost;
},
{
horizontal = 1;
place = "{384, -20}";
target = down;
type = TopGhost;
}
);
layerId = UUID1;
paths = (
{
closed = 1;
nodes = (
"448 -12 OFFCURVE",
"533 135 OFFCURVE",
"533 316 CURVE",
"533 473 OFFCURVE",
"447 654 OFFCURVE",
"259 789 CURVE",
"155 697 LINE",
"314 569 OFFCURVE",
"392 477 OFFCURVE",
"392 254 CURVE",
"445 224 LINE",
"445 328 OFFCURVE",
"377 458 OFFCURVE",
"252 458 CURVE",
"132 458 OFFCURVE",
"38 358 OFFCURVE",
"38 224 CURVE",
"38 76 OFFCURVE",
"142 -12 OFFCURVE",
"273 -12 CURVE"
);
},
{
closed = 1;
nodes = (
"224 102 OFFCURVE",
"179 154 OFFCURVE",
"179 223 CURVE",
"179 292 OFFCURVE",
"224 344 OFFCURVE",
"285 344 CURVE",
"350 344 OFFCURVE",
"392 292 OFFCURVE",
"392 223 CURVE",
"392 154 OFFCURVE",
"350 102 OFFCURVE",
"285 102 CURVE"
);
},
{
closed = 1;
nodes = (
"447 760 LINE",
"169 590 LINE",
"214 497 LINE",
"492 667 LINE"
);
}
);
width = 571;
}
);
leftMetricsKey = o;
rightMetricsKey = o;
unicode = 00F0;
},
{
glyphname = e;
lastChange = "2016-10-05 14:46:49 +0000";
layers = (
{
anchors = (
{
name = bottom;
position = "{232, 0}";
},
{
name = ogonek;
position = "{413, 10}";
},
{
name = top;
position = "{232, 375}";
}
);
background = {
paths = (
{
closed = 1;
nodes = (
"367 56 LINE",
"335 26 OFFCURVE",
"292 8 OFFCURVE",
"244 8 CURVE SMOOTH",
"167 8 OFFCURVE",
"102 55 OFFCURVE",
"76 122 CURVE",
"177 164 OFFCURVE",
"313 218 OFFCURVE",
"413 259 CURVE",
"384 330 OFFCURVE",
"326 384 OFFCURVE",
"244 384 CURVE SMOOTH",
"136 384 OFFCURVE",
"50 296 OFFCURVE",
"50 188 CURVE SMOOTH",
"50 80 OFFCURVE",
"136 -6 OFFCURVE",
"244 -6 CURVE SMOOTH",
"296 -6 OFFCURVE",
"343 14 OFFCURVE",
"378 46 CURVE"
);
},
{
closed = 1;
nodes = (
"394 266 LINE",
"295 225 OFFCURVE",
"169 176 OFFCURVE",
"71 135 CURVE",
"66 152 OFFCURVE",
"64 169 OFFCURVE",
"64 188 CURVE SMOOTH",
"64 288 OFFCURVE",
"144 369 OFFCURVE",
"244 369 CURVE SMOOTH",
"315 369 OFFCURVE",
"366 326 OFFCURVE",
"394 266 CURVE"
);
}
);
};
hints = (
{
horizontal = 1;
place = "{409, -20}";
target = down;
type = TopGhost;
},
{
horizontal = 1;
place = "{16, 21}";
target = up;
type = BottomGhost;
}
);
layerId = UUID0;
paths = (
{
closed = 1;
nodes = (
"301 -6 OFFCURVE",
"348 14 OFFCURVE",
"383 46 CURVE",
"373 55 LINE",
"341 25 OFFCURVE",
"297 7 OFFCURVE",
"249 7 CURVE SMOOTH",
"140 7 OFFCURVE",
"69 96 OFFCURVE",
"69 188 CURVE SMOOTH",
"69 288 OFFCURVE",
"149 370 OFFCURVE",
"249 370 CURVE SMOOTH",
"320 370 OFFCURVE",
"374 320 OFFCURVE",
"402 260 CURVE",
"407 269 LINE",
"71 133 LINE",
"75 119 LINE",
"418 259 LINE",
"389 330 OFFCURVE",
"331 384 OFFCURVE",
"249 384 CURVE SMOOTH",
"141 384 OFFCURVE",
"55 296 OFFCURVE",
"55 188 CURVE SMOOTH",
"55 80 OFFCURVE",
"141 -6 OFFCURVE",
"249 -6 CURVE SMOOTH"
);
}
);
width = 463;
},
{
anchors = (
{
name = bottom;
position = "{278, 0}";
},
{
name = ogonek;
position = "{475, 10}";
},
{
name = top;
position = "{290, 458}";
}
);
hints = (
{
horizontal = 1;
place = "{384, -20}";
target = down;
type = TopGhost;
},
{
horizontal = 1;
place = "{-9, 21}";
target = up;
type = BottomGhost;
}
);
layerId = UUID1;
paths = (
{
closed = 1;
nodes = (
"335 -12 OFFCURVE",
"392 5 OFFCURVE",
"439 32 CURVE",
"377 136 LINE",
"349 118 OFFCURVE",
"321 107 OFFCURVE",
"290 107 CURVE",
"226 107 OFFCURVE",
"176 149 OFFCURVE",
"176 231 CURVE",
"176 303 OFFCURVE",
"216 349 OFFCURVE",
"279 349 CURVE",
"334 349 OFFCURVE",
"358 318 OFFCURVE",
"369 284 CURVE",
"398 297 LINE",
"152 214 LINE",
"183 138 LINE",
"523 246 LINE",
"499 383 OFFCURVE",
"415 458 OFFCURVE",
"290 458 CURVE",
"150 458 OFFCURVE",
"38 354 OFFCURVE",
"38 223 CURVE",
"38 85 OFFCURVE",
"127 -12 OFFCURVE",
"287 -12 CURVE"
);
}
);
width = 553;
}
);
leftKerningGroup = o;
leftMetricsKey = o;
unicode = 0065;
},
{
glyphname = eogonek;
lastChange = "2016-09-24 14:10:26 +0000";
layers = (
{
hints = (
{
horizontal = 1;
place = "{409, -20}";
target = down;
type = TopGhost;
},
{
horizontal = 1;
place = "{16, 21}";
target = up;
type = BottomGhost;
},
{
horizontal = 1;
place = "{409, -20}";
target = down;
type = TopGhost;
},
{
horizontal = 1;
place = "{16, 21}";
target = up;
type = BottomGhost;
}
);
layerId = UUID0;
paths = (
{
closed = 1;
nodes = (
"364 -186 OFFCURVE",
"385 -173 OFFCURVE",
"399 -155 CURVE",
"390 -145 LINE",
"377 -161 OFFCURVE",
"360 -172 OFFCURVE",
"341 -172 CURVE",
"308 -172 OFFCURVE",
"276 -144 OFFCURVE",
"276 -101 CURVE",
"276 -21 OFFCURVE",
"338 6 OFFCURVE",
"383 46 CURVE",
"373 55 LINE",
"341 25 OFFCURVE",
"297 7 OFFCURVE",
"249 7 CURVE",
"146 7 OFFCURVE",
"69 93 OFFCURVE",
"69 188 CURVE",
"69 288 OFFCURVE",
"149 370 OFFCURVE",
"249 370 CURVE",
"317 370 OFFCURVE",
"370 325 OFFCURVE",
"402 260 CURVE",
"407 269 LINE",
"71 133 LINE",
"75 119 LINE",
"418 259 LINE",
"389 330 OFFCURVE",
"331 384 OFFCURVE",
"249 384 CURVE",
"141 384 OFFCURVE",
"55 296 OFFCURVE",
"55 188 CURVE",
"55 80 OFFCURVE",
"141 -6 OFFCURVE",
"249 -6 CURVE",
"276 -6 OFFCURVE",
"303 -1 OFFCURVE",
"319 7 CURVE",
"315 9 LINE",
"279 -23 OFFCURVE",
"261 -62 OFFCURVE",
"261 -101 CURVE",
"261 -152 OFFCURVE",
"299 -186 OFFCURVE",
"340 -186 CURVE"
);
}
);
width = 463;
},
{
hints = (
{
horizontal = 1;
place = "{384, -20}";
target = down;
type = TopGhost;
},
{
horizontal = 1;
place = "{-9, 21}";
target = up;
type = BottomGhost;
}
);
layerId = UUID1;
paths = (
{
closed = 1;
nodes = (
"368 -232 OFFCURVE",
"427 -201 OFFCURVE",
"457 -157 CURVE",
"407 -85 LINE",
"385 -118 OFFCURVE",
"362 -134 OFFCURVE",
"335 -134 CURVE SMOOTH",
"312 -134 OFFCURVE",
"286 -115 OFFCURVE",
"286 -81 CURVE SMOOTH",
"286 -16 OFFCURVE",
"370 -8 OFFCURVE",
"443 32 CURVE",
"381 136 LINE",
"353 118 OFFCURVE",
"325 107 OFFCURVE",
"294 107 CURVE",
"230 107 OFFCURVE",
"180 149 OFFCURVE",
"180 231 CURVE",
"180 303 OFFCURVE",
"220 349 OFFCURVE",
"283 349 CURVE",
"338 349 OFFCURVE",
"362 318 OFFCURVE",
"373 284 CURVE",
"402 297 LINE",
"156 214 LINE",
"187 138 LINE",
"527 246 LINE",
"503 383 OFFCURVE",
"419 458 OFFCURVE",
"294 458 CURVE",
"154 458 OFFCURVE",
"42 354 OFFCURVE",
"42 223 CURVE",
"42 85 OFFCURVE",
"131 -12 OFFCURVE",
"291 -12 CURVE",
"317 -12 OFFCURVE",
"385 7 OFFCURVE",
"404 32 CURVE",
"256 10 LINE",
"201 -12 OFFCURVE",
"171 -59 OFFCURVE",
"171 -103 CURVE SMOOTH",
"171 -181 OFFCURVE",
"229 -232 OFFCURVE",
"322 -232 CURVE SMOOTH"
);
}
);
width = 557;
}
);
unicode = 0119;
},
{
glyphname = f;
lastChange = "2016-09-28 13:53:34 +0000";
layers = (
{
anchors = (
{
name = bottom;
position = "{142, 0}";
},
{
name = top;
position = "{142, 375}";
}
);
hints = (
{
horizontal = 1;
place = "{25, 21}";
target = up;
type = BottomGhost;
},
{
horizontal = 1;
place = "{775, -20}";
target = down;
type = TopGhost;
}
);
layerId = UUID0;
paths = (
{
closed = 1;
nodes = (
"129 0 LINE",
"129 359 LINE",
"259 359 LINE",
"259 372 LINE",
"129 372 LINE",
"129 589 LINE SMOOTH",
"129 706 OFFCURVE",
"158 745 OFFCURVE",
"222 745 CURVE SMOOTH",
"235 745 OFFCURVE",
"244 742 OFFCURVE",
"251 739 CURVE",
"257 749 LINE",
"245 753 OFFCURVE",
"233 756 OFFCURVE",
"221 756 CURVE SMOOTH",
"151 756 OFFCURVE",
"115 715 OFFCURVE",
"115 585 CURVE SMOOTH",
"115 372 LINE",
"50 372 LINE",
"50 359 LINE",
"115 359 LINE",
"115 0 LINE"
);
}
);
width = 284;
},
{
anchors = (
{
name = bottom;
position = "{218, 0}";
},
{
name = top;
position = "{218, 437}";
}
);
hints = (
{
horizontal = 1;
place = "{0, 21}";
target = up;
type = BottomGhost;
},
{
horizontal = 1;
place = "{751, -20}";
target = down;
type = TopGhost;
}
);
layerId = UUID1;
paths = (
{
closed = 1;
nodes = (
"254 0 LINE",
"254 315 LINE",
"386 315 LINE",
"386 439 LINE",
"254 439 LINE",
"254 587 LINE",
"254 645 OFFCURVE",
"282 671 OFFCURVE",
"322 671 CURVE",
"338 671 OFFCURVE",
"357 666 OFFCURVE",
"371 649 CURVE",
"430 750 LINE",
"395 775 OFFCURVE",
"344 786 OFFCURVE",
"307 786 CURVE",
"182 786 OFFCURVE",
"114 705 OFFCURVE",
"114 591 CURVE",
"114 439 LINE",
"40 439 LINE",
"40 315 LINE",
"114 315 LINE",
"114 0 LINE"
);
}
);
width = 435;
}
);
rightKerningGroup = f;
unicode = 0066;
},
{
glyphname = g;
lastChange = "2016-09-27 15:55:11 +0000";
layers = (
{
anchors = (
{
name = bottom;
position = "{270, 0}";
},
{
name = top;
position = "{270, 375}";
}
);
hints = (
{
horizontal = 1;
place = "{407, -20}";
target = down;
type = TopGhost;
},
{
horizontal = 1;
place = "{-226, 21}";
target = up;
type = BottomGhost;
}
);
layerId = UUID0;
paths = (
{
closed = 1;
nodes = (
"404 -180 OFFCURVE",
"444 -94 OFFCURVE",
"444 -8 CURVE SMOOTH",
"444 375 LINE",
"434 375 LINE",
"430 260 LINE",
"401 332 OFFCURVE",
"331 383 OFFCURVE",
"249 383 CURVE SMOOTH",
"143 383 OFFCURVE",
"55 304 OFFCURVE",
"55 188 CURVE SMOOTH",
"55 80 OFFCURVE",
"141 -6 OFFCURVE",
"249 -6 CURVE SMOOTH",
"332 -6 OFFCURVE",
"407 48 OFFCURVE",
"435 127 CURVE",
"430 131 LINE",
"429 -8 LINE",
"426 -93 OFFCURVE",
"391 -167 OFFCURVE",
"249 -167 CURVE SMOOTH",
"208 -167 OFFCURVE",
"157 -159 OFFCURVE",
"90 -94 CURVE",
"82 -103 LINE",
"150 -170 OFFCURVE",
"203 -180 OFFCURVE",
"250 -180 CURVE SMOOTH"
);
},
{
closed = 1;
nodes = (
"69 296 OFFCURVE",
"148 370 OFFCURVE",
"249 370 CURVE SMOOTH",
"339 370 OFFCURVE",
"415 304 OFFCURVE",
"430 218 CURVE",
"430 178 LINE",
"430 88 OFFCURVE",
"349 7 OFFCURVE",
"249 7 CURVE SMOOTH",
"149 7 OFFCURVE",
"69 88 OFFCURVE",
"69 188 CURVE SMOOTH"
);
}
);
width = 539;
},
{
anchors = (
{
name = bottom;
position = "{316, 0}";
},
{
name = top;
position = "{316, 457}";
}
);
hints = (
{
horizontal = 1;
place = "{382, -20}";
target = down;
type = TopGhost;
},
{
horizontal = 1;
place = "{-251, 21}";
target = up;
type = BottomGhost;
}
);
layerId = UUID1;
paths = (
{
closed = 1;
nodes = (
"441 -220 OFFCURVE",
"561 -128 OFFCURVE",
"561 0 CURVE",
"561 437 LINE",
"432 437 LINE",
"421 402 LINE",
"393 434 OFFCURVE",
"337 459 OFFCURVE",
"261 459 CURVE",
"147 459 OFFCURVE",
"38 358 OFFCURVE",
"38 221 CURVE",
"38 87 OFFCURVE",
"139 -12 OFFCURVE",
"258 -12 CURVE",
"349 -12 OFFCURVE",
"404 28 OFFCURVE",
"426 73 CURVE",
"421 98 LINE",
"421 2 LINE",
"421 -64 OFFCURVE",
"362 -98 OFFCURVE",
"296 -98 CURVE",
"229 -98 OFFCURVE",
"192 -66 OFFCURVE",
"162 -38 CURVE",
"80 -134 LINE",
"124 -170 OFFCURVE",
"180 -220 OFFCURVE",
"298 -220 CURVE"
);
},
{
closed = 1;
nodes = (
"179 295 OFFCURVE",
"232 345 OFFCURVE",
"300 345 CURVE",
"357 345 OFFCURVE",
"402 318 OFFCURVE",
"421 275 CURVE",
"421 168 LINE",
"396 124 OFFCURVE",
"357 102 OFFCURVE",
"300 102 CURVE",
"232 102 OFFCURVE",
"179 155 OFFCURVE",
"179 225 CURVE"
);
}
);
width = 633;
}
);
leftKerningGroup = o;
leftMetricsKey = o;
rightMetricsKey = n;
unicode = 0067;
},
{
glyphname = h;
lastChange = "2016-09-27 15:55:11 +0000";
layers = (
{
anchors = (
{
name = bottom;
position = "{241, 0}";
},
{
name = center;
position = "{101, 561}";
},
{
name = top;
position = "{95, 735}";
}
);
hints = (
{
horizontal = 1;
place = "{25, 21}";
target = up;
type = BottomGhost;
},
{
horizontal = 1;
place = "{775, -20}";
target = down;
type = TopGhost;
}
);
layerId = UUID0;
paths = (
{
closed = 1;
nodes = (
"109 0 LINE",
"109 221 LINE SMOOTH",
"109 305 OFFCURVE",
"188 369 OFFCURVE",
"272 369 CURVE",
"336 366 OFFCURVE",
"371 325 OFFCURVE",
"373 271 CURVE",
"373 0 LINE",
"387 0 LINE",
"387 270 LINE",
"385 336 OFFCURVE",
"341 382 OFFCURVE",
"271 382 CURVE SMOOTH",
"196 382 OFFCURVE",
"133 337 OFFCURVE",
"109 281 CURVE",
"109 750 LINE",
"95 750 LINE",
"95 0 LINE"
);
}
);
width = 482;
},
{
anchors = (
{
name = bottom;
position = "{297, 0}";
},
{
name = center;
position = "{156, 625}";
},
{
name = top;
position = "{141, 789}";
}
);
background = {
paths = (
{
closed = 1;
nodes = (
"188 789 LINE",
"72 789 LINE",
"72 0 LINE",
"188 0 LINE",
"188 201 LINE SMOOTH",
"188 277 OFFCURVE",
"236 334 OFFCURVE",
"311 334 CURVE",
"367 331 OFFCURVE",
"390 299 OFFCURVE",
"392 260 CURVE",
"392 0 LINE",
"508 0 LINE",
"508 318 LINE",
"506 397 OFFCURVE",
"445 450 OFFCURVE",
"354 449 CURVE SMOOTH",
"268 448 OFFCURVE",
"219 402 OFFCURVE",
"188 332 CURVE"
);
}
);
};
hints = (
{
horizontal = 1;
place = "{0, 21}";
target = up;
type = BottomGhost;
},
{
horizontal = 1;
place = "{750, -20}";
target = down;
type = TopGhost;
}
);
layerId = UUID1;
paths = (
{
closed = 1;
nodes = (
"212 0 LINE",
"212 178 LINE",
"212 271 OFFCURVE",
"253 339 OFFCURVE",
"318 339 CURVE",
"363 339 OFFCURVE",
"380 314 OFFCURVE",
"382 275 CURVE",
"382 0 LINE",
"522 0 LINE",
"522 327 LINE",
"520 404 OFFCURVE",
"458 458 OFFCURVE",
"376 458 CURVE",
"295 458 OFFCURVE",
"240 421 OFFCURVE",
"209 366 CURVE",
"209 789 LINE",
"72 789 LINE",
"72 0 LINE"
);
}
);
width = 594;
}
);
leftMetricsKey = n;
rightMetricsKey = n;
unicode = 0068;
},
{
glyphname = idotless;
lastChange = "2016-10-05 14:50:23 +0000";
layers = (
{
anchors = (
{
name = bottom;
position = "{102, 0}";
},
{
name = ogonek;
position = "{172, 10}";
},
{
name = top;
position = "{102, 375}";
}
);
hints = (
{
horizontal = 1;
place = "{25, 21}";
target = up;
type = BottomGhost;
},
{
horizontal = 1;
place = "{545, -20}";
target = down;
type = TopGhost;
}
);
layerId = UUID0;
paths = (
{
closed = 1;
nodes = (
"95 0 LINE",
"109 0 LINE",
"109 375 LINE",
"95 375 LINE"
);
}
);
width = 204;
},
{
anchors = (
{
name = bottom;
position = "{130, 0}";
},
{
name = ogonek;
position = "{300, 10}";
},
{
name = top;
position = "{144, 437}";
}
);
hints = (
{
horizontal = 1;
place = "{0, 21}";
target = up;
type = BottomGhost;
},
{
horizontal = 1;
place = "{573, -20}";
target = down;
type = TopGhost;
}
);
layerId = UUID1;
paths = (
{
closed = 1;
nodes = (
"72 0 LINE",
"212 0 LINE",
"212 437 LINE",
"72 437 LINE"
);
}
);
width = 284;
}
);
leftMetricsKey = n;
rightMetricsKey = n;
unicode = 0131;
},
{
glyphname = ij;
lastChange = "2016-12-06 18:17:46 +0000";
layers = (
{
components = (
{
name = i;
},
{
name = j;
transform = "{1, 0, 0, 1, 204, 0}";
}
);
layerId = UUID0;
width = 418;
},
{
background = {
paths = (
{
closed = 1;
nodes = (
"102 437 LINE",
"102 0 LINE",
"242 0 LINE",
"242 178 LINE",
"242 271 OFFCURVE",
"283 339 OFFCURVE",
"348 339 CURVE",
"393 339 OFFCURVE",
"410 314 OFFCURVE",
"412 275 CURVE",
"412 0 LINE",
"552 0 LINE",
"552 327 LINE",
"550 404 OFFCURVE",
"488 458 OFFCURVE",
"406 458 CURVE",
"325 458 OFFCURVE",
"270 421 OFFCURVE",
"239 366 CURVE",
"229 437 LINE"
);
}
);
};
components = (
{
name = i;
},
{
alignment = -1;
name = j;
transform = "{1, 0, 0, 1, 254, 0}";
}
);
layerId = UUID1;
width = 560;
}
);
leftMetricsKey = n;
rightMetricsKey = j;
unicode = 0133;
},
{
glyphname = iogonek;
lastChange = "2016-09-24 00:48:36 +0000";
layers = (
{
components = (
{
name = idotless;
},
{
name = dotaccentcomb;
transform = "{1, 0, 0, 1, 15, -40}";
}
);
layerId = UUID0;
paths = (
{
closed = 1;
nodes = (
"105 -186 OFFCURVE",
"132 -161 OFFCURVE",
"145 -133 CURVE",
"134 -127 LINE",
"120 -152 OFFCURVE",
"99 -172 OFFCURVE",
"73 -172 CURVE",
"45 -172 OFFCURVE",
"18 -148 OFFCURVE",
"18 -111 CURVE",
"18 -72 OFFCURVE",
"50 -34 OFFCURVE",
"109 0 CURVE",
"105 6 LINE",
"102 12 LINE",
"50 -15 OFFCURVE",
"3 -60 OFFCURVE",
"3 -111 CURVE",
"3 -156 OFFCURVE",
"36 -186 OFFCURVE",
"72 -186 CURVE"
);
}
);
width = 204;
},
{
components = (
{
name = idotless;
},
{
name = dotaccentcomb;
transform = "{1, 0, 0, 1, 24, -10}";
}
);
layerId = UUID1;
paths = (
{
closed = 1;
nodes = (
"187 -232 OFFCURVE",
"246 -201 OFFCURVE",
"276 -157 CURVE",
"226 -85 LINE",
"204 -118 OFFCURVE",
"181 -134 OFFCURVE",
"154 -134 CURVE",
"131 -134 OFFCURVE",
"110 -126 OFFCURVE",
"110 -92 CURVE SMOOTH",
"110 -48 OFFCURVE",
"151 -26 OFFCURVE",
"214 0 CURVE",
"188 10 LINE",
"80 10 LINE",
"25 -12 OFFCURVE",
"-5 -59 OFFCURVE",
"-5 -103 CURVE SMOOTH",
"-5 -181 OFFCURVE",
"59 -232 OFFCURVE",
"141 -232 CURVE"
);
}
);
width = 290;
}
);
unicode = 012F;
},
{
glyphname = jdotless;
lastChange = "2016-12-07 16:15:05 +0000";
layers = (
{
anchors = (
{
name = bottom;
position = "{107, 0}";
},
{
name = top;
position = "{112, 375}";
}
);
layerId = UUID0;
paths = (
{
closed = 1;
nodes = (
"98 -141 OFFCURVE",
"119 -83 OFFCURVE",
"119 -7 CURVE",
"119 375 LINE",
"105 375 LINE",
"105 -11 LINE SMOOTH",
"105 -79 OFFCURVE",
"83 -134 OFFCURVE",
"50 -171 CURVE",
"62 -180 LINE"
);
}
);
width = 214;
},
{
anchors = (
{
name = bottom;
position = "{153, 0}";
},
{
name = top;
position = "{153, 437}";
}
);
hints = (
{
horizontal = 1;
place = "{-181, 21}";
target = up;
type = BottomGhost;
},
{
horizontal = 1;
place = "{573, -20}";
target = down;
type = TopGhost;
}
);
layerId = UUID1;
paths = (
{
closed = 1;
nodes = (
"189 -171 OFFCURVE",
"223 -104 OFFCURVE",
"223 0 CURVE",
"223 437 LINE",
"83 437 LINE",
"83 8 LINE",
"83 -53 OFFCURVE",
"60 -95 OFFCURVE",
"20 -124 CURVE",
"101 -211 LINE"
);
}
);
width = 295;
}
);
leftMetricsKey = j;
rightMetricsKey = j;
unicode = 0237;
},
{
glyphname = k;
lastChange = "2016-12-07 16:07:51 +0000";
layers = (
{
anchors = (
{
name = bottom;
position = "{209, 0}";
},
{
name = top;
position = "{209, 375}";
}
);
hints = (
{
horizontal = 1;
place = "{775, -20}";
target = down;
type = TopGhost;
},
{
horizontal = 1;
place = "{25, 21}";
target = up;
type = BottomGhost;
}
);
layerId = UUID0;
paths = (
{
closed = 1;
nodes = (
"109 0 LINE",
"109 750 LINE",
"95 750 LINE",
"95 0 LINE"
);
},
{
closed = 1;
nodes = (
"179 232 LINE",
"351 0 LINE",
"367 0 LINE",
"191 239 LINE"
);
},
{
closed = 1;
nodes = (
"341 374 LINE",
"331 382 LINE",
"102 166 LINE",
"102 149 LINE"
);
}
);
width = 417;
},
{
anchors = (
{
name = bottom;
position = "{272, 0}";
},
{
name = top;
position = "{272, 437}";
}
);
hints = (
{
horizontal = 1;
place = "{750, -20}";
target = down;
type = TopGhost;
},
{
horizontal = 1;
place = "{0, 21}";
target = up;
type = BottomGhost;
}
);
layerId = UUID1;
paths = (
{
closed = 1;
nodes = (
"212 0 LINE",
"212 789 LINE",
"72 789 LINE",
"72 0 LINE"
);
},
{
closed = 1;
nodes = (
"231 217 LINE",
"358 0 LINE",
"521 0 LINE",
"323 297 LINE"
);
},
{
closed = 1;
nodes = (
"505 373 LINE",
"420 448 LINE",
"156 254 LINE",
"170 121 LINE"
);
}
);
width = 546;
}
);
leftMetricsKey = n;
rightKerningGroup = k;
unicode = 006B;
},
{
glyphname = kgreenlandic;
lastChange = "2016-09-27 15:55:11 +0000";
layers = (
{
hints = (
{
horizontal = 1;
place = "{36, 21}";
target = up;
type = BottomGhost;
},
{
horizontal = 1;
place = "{737, -20}";
target = down;
type = TopGhost;
},
{
horizontal = 1;
place = "{736, -20}";
target = down;
type = TopGhost;
}
);
layerId = UUID0;
paths = (
{
closed = 1;
nodes = (
"349 375 LINE",
"330 375 LINE",
"101 156 LINE",
"104 142 LINE"
);
},
{
closed = 1;
nodes = (
"109 375 LINE",
"95 375 LINE",
"95 0 LINE",
"109 0 LINE"
);
},
{
closed = 1;
nodes = (
"148 198 LINE",
"338 0 LINE",
"358 0 LINE",
"156 209 LINE"
);
}
);
width = 413;
},
{
hints = (
{
horizontal = 1;
place = "{0, 21}";
target = up;
type = BottomGhost;
},
{
horizontal = 1;
place = "{700, -20}";
target = down;
type = TopGhost;
},
{
horizontal = 1;
place = "{700, -20}";
target = down;
type = TopGhost;
}
);
layerId = UUID1;
paths = (
{
closed = 1;
nodes = (
"527 437 LINE",
"359 437 LINE",
"182 239 LINE",
"203 116 LINE"
);
},
{
closed = 1;
nodes = (
"212 437 LINE",
"72 437 LINE",
"72 0 LINE",
"212 0 LINE"
);
},
{
closed = 1;
nodes = (
"222 194 LINE",
"362 0 LINE",
"523 0 LINE",
"330 254 LINE"
);
}
);
width = 562;
}
);
leftMetricsKey = n;
unicode = 0138;
},
{
glyphname = l;
lastChange = "2016-09-27 15:55:11 +0000";
layers = (
{
anchors = (
{
name = bottom;
position = "{102, 0}";
},
{
name = center;
position = "{102, 188}";
},
{
name = top;
position = "{109, 750}";
},
{
name = topright;
position = "{179, 375}";
}
);
hints = (
{
horizontal = 1;
place = "{775, -20}";
target = down;
type = TopGhost;
},
{
horizontal = 1;
place = "{25, 21}";
target = up;
type = BottomGhost;
}
);
layerId = UUID0;
paths = (
{
closed = 1;
nodes = (
"95 0 LINE",
"109 0 LINE",
"109 750 LINE",
"95 750 LINE"
);
}
);
width = 204;
},
{
anchors = (
{
name = bottom;
position = "{142, 0}";
},
{
name = center;
position = "{142, 219}";
},
{
name = top;
position = "{142, 807}";
},
{
name = topright;
position = "{267, 437}";
}
);
hints = (
{
horizontal = 1;
place = "{750, -20}";
target = down;
type = TopGhost;
},
{
horizontal = 1;
place = "{0, 21}";
target = up;
type = BottomGhost;
}
);
layerId = UUID1;
paths = (
{
closed = 1;
nodes = (
"72 0 LINE",
"212 0 LINE",
"212 789 LINE",
"72 789 LINE"
);
}
);
width = 284;
}
);
leftMetricsKey = n;
rightMetricsKey = n;
unicode = 006C;
},
{
glyphname = lslash;
lastChange = "2016-09-17 21:15:53 +0000";
layers = (
{
components = (
{
name = l;
}
);
layerId = UUID0;
paths = (
{
closed = 1;
nodes = (
"28 293 LINE",
"28 279 LINE",
"179 335 LINE",
"179 349 LINE"
);
}
);
width = 184;
},
{
components = (
{
name = l;
transform = "{1, 0, 0, 1, 10, 0}";
}
);
layerId = UUID1;
paths = (
{
closed = 1;
nodes = (
"15 346 LINE",
"15 225 LINE",
"300 292 LINE",
"300 413 LINE"
);
}
);
width = 315;
}
);
unicode = 0142;
},
{
glyphname = m;
lastChange = "2016-09-28 14:01:20 +0000";
layers = (
{
anchors = (
{
name = bottom;
position = "{380, 0}";
},
{
name = top;
position = "{380, 375}";
}
);
hints = (
{
horizontal = 1;
place = "{25, 21}";
target = up;
type = BottomGhost;
},
{
horizontal = 1;
place = "{407, -20}";
target = down;
type = TopGhost;
}
);
layerId = UUID0;
paths = (
{
closed = 1;
nodes = (
"95 375 LINE",
"95 0 LINE",
"109 0 LINE",
"109 221 LINE SMOOTH",
"109 307 OFFCURVE",
"187 369 OFFCURVE",
"272 369 CURVE",
"336 366 OFFCURVE",
"371 325 OFFCURVE",
"373 277 CURVE",
"373 0 LINE",
"387 0 LINE",
"387 227 LINE",
"392 308 OFFCURVE",
"468 369 OFFCURVE",
"550 369 CURVE",
"614 366 OFFCURVE",
"649 325 OFFCURVE",
"651 277 CURVE",
"651 0 LINE",
"665 0 LINE",
"665 270 LINE",
"663 336 OFFCURVE",
"619 382 OFFCURVE",
"549 382 CURVE SMOOTH",
"476 382 OFFCURVE",
"413 343 OFFCURVE",
"388 274 CURVE",
"391 333 OFFCURVE",
"336 382 OFFCURVE",
"271 382 CURVE SMOOTH",
"196 382 OFFCURVE",
"131 337 OFFCURVE",
"107 265 CURVE",
"105 375 LINE"
);
}
);
width = 760;
},
{
anchors = (
{
name = bottom;
position = "{432, 0}";
},
{
name = top;
position = "{432, 437}";
}
);
hints = (
{
horizontal = 1;
place = "{0, 21}";
target = up;
type = BottomGhost;
},
{
horizontal = 1;
place = "{384, -20}";
target = down;
type = TopGhost;
}
);
layerId = UUID1;
paths = (
{
closed = 1;
nodes = (
"72 437 LINE",
"72 0 LINE",
"212 0 LINE",
"212 181 LINE",
"212 257 OFFCURVE",
"247 338 OFFCURVE",
"313 338 CURVE",
"352 335 OFFCURVE",
"360 309 OFFCURVE",
"362 270 CURVE",
"362 0 LINE",
"502 0 LINE",
"502 179 LINE",
"502 257 OFFCURVE",
"537 338 OFFCURVE",
"606 338 CURVE",
"644 335 OFFCURVE",
"650 309 OFFCURVE",
"652 270 CURVE",
"652 0 LINE",
"791 0 LINE",
"791 328 LINE",
"789 405 OFFCURVE",
"735 459 OFFCURVE",
"648 459 CURVE",
"589 459 OFFCURVE",
"538 429 OFFCURVE",
"501 372 CURVE",
"486 433 OFFCURVE",
"438 459 OFFCURVE",
"367 459 CURVE",
"294 459 OFFCURVE",
"243 425 OFFCURVE",
"209 366 CURVE",
"199 437 LINE"
);
}
);
width = 863;
}
);
leftKerningGroup = n;
leftMetricsKey = n;
rightMetricsKey = n;
unicode = 006D;
},
{
glyphname = n;
lastChange = "2016-09-27 18:05:36 +0000";
layers = (
{
anchors = (
{
name = bottom;
position = "{241, 0}";
},
{
name = top;
position = "{241, 375}";
}
);
hints = (
{
horizontal = 1;
place = "{25, 21}";
target = up;
type = BottomGhost;
},
{
horizontal = 1;
place = "{407, -20}";
target = down;
type = TopGhost;
}
);
layerId = UUID0;
paths = (
{
closed = 1;
nodes = (
"95 375 LINE",
"95 0 LINE",
"109 0 LINE",
"109 221 LINE SMOOTH",
"109 310 OFFCURVE",
"188 369 OFFCURVE",
"272 369 CURVE",
"336 366 OFFCURVE",
"371 325 OFFCURVE",
"373 271 CURVE",
"373 0 LINE",
"387 0 LINE",
"387 270 LINE",
"385 336 OFFCURVE",
"341 382 OFFCURVE",
"271 382 CURVE SMOOTH",
"196 382 OFFCURVE",
"129 338 OFFCURVE",
"108 266 CURVE",
"105 375 LINE"
);
}
);
width = 482;
},
{
anchors = (
{
name = bottom;
position = "{297, 0}";
},
{
name = top;
position = "{297, 447}";
}
);
hints = (
{
horizontal = 1;
place = "{0, 21}";
target = up;
type = BottomGhost;
},
{
horizontal = 1;
place = "{384, -20}";
target = down;
type = TopGhost;
}
);
layerId = UUID1;
paths = (
{
closed = 1;
nodes = (
"72 437 LINE",
"72 0 LINE",
"212 0 LINE",
"212 178 LINE",
"212 271 OFFCURVE",
"253 339 OFFCURVE",
"318 339 CURVE",
"363 339 OFFCURVE",
"380 314 OFFCURVE",
"382 275 CURVE",
"382 0 LINE",
"522 0 LINE",
"522 327 LINE",
"520 404 OFFCURVE",
"458 458 OFFCURVE",
"376 458 CURVE",
"295 458 OFFCURVE",
"240 421 OFFCURVE",
"209 366 CURVE",
"199 437 LINE"
);
}
);
width = 594;
}
);
leftKerningGroup = n;
rightKerningGroup = n;
unicode = 006E;
},
{
glyphname = eng;
lastChange = "2016-12-12 20:02:08 +0000";
layers = (
{
components = (
{
name = n;
}
);
hints = (
{
horizontal = 1;
place = "{-155, 21}";
target = up;
type = BottomGhost;
},
{
horizontal = 1;
place = "{545, -20}";
target = down;
type = TopGhost;
}
);
layerId = UUID0;
paths = (
{
closed = 1;
nodes = (
"330 -180 LINE",
"365 -141 OFFCURVE",
"387 -83 OFFCURVE",
"387 -7 CURVE SMOOTH",
"387 15 LINE",
"373 15 LINE",
"373 -11 LINE SMOOTH",
"373 -79 OFFCURVE",
"351 -134 OFFCURVE",
"318 -171 CURVE",
"330 -180 LINE"
);
}
);
width = 482;
},
{
anchors = (
{
name = bottom;
position = "{297, 0}";
},
{
name = top;
position = "{297, 447}";
}
);
hints = (
{
horizontal = 1;
place = "{-181, 21}";
target = up;
type = BottomGhost;
},
{
horizontal = 1;
place = "{573, -20}";
target = down;
type = TopGhost;
},
{
horizontal = 1;
place = "{0, 21}";
target = up;
type = BottomGhost;
},
{
horizontal = 1;
place = "{384, -20}";
target = down;
type = TopGhost;
}
);
layerId = UUID1;
paths = (
{
closed = 1;
nodes = (
"522 327 LINE",
"520 404 OFFCURVE",
"458 458 OFFCURVE",
"376 458 CURVE",
"295 458 OFFCURVE",
"240 421 OFFCURVE",
"209 366 CURVE",
"199 437 LINE",
"72 437 LINE",
"72 0 LINE",
"212 0 LINE",
"212 178 LINE",
"212 271 OFFCURVE",
"253 339 OFFCURVE",
"318 339 CURVE",
"363 339 OFFCURVE",
"380 314 OFFCURVE",
"382 275 CURVE",
"382 8 LINE SMOOTH",
"382 -53 OFFCURVE",
"360 -95 OFFCURVE",
"320 -124 CURVE",
"400 -211 LINE",
"400 -211 LINE",
"484 -167 OFFCURVE",
"522 -89 OFFCURVE",
"522 7 CURVE SMOOTH"
);
}
);
width = 594;
}
);
leftMetricsKey = n;
rightMetricsKey = n;
unicode = 014B;
},
{
glyphname = nhookleft;
lastChange = "2016-09-27 15:55:11 +0000";
layers = (
{
components = (
{
name = n;
}
);
hints = (
{
horizontal = 1;
place = "{-155, 21}";
target = up;
type = BottomGhost;
},
{
horizontal = 1;
place = "{545, -20}";
target = down;
type = TopGhost;
}
);
layerId = UUID0;
paths = (
{
closed = 1;
nodes = (
"52 -180 LINE",
"87 -141 OFFCURVE",
"109 -83 OFFCURVE",
"109 -7 CURVE SMOOTH",
"109 57 LINE",
"95 57 LINE",
"95 -11 LINE SMOOTH",
"95 -79 OFFCURVE",
"73 -134 OFFCURVE",
"40 -171 CURVE",
"52 -180 LINE"
);
}
);
width = 482;
},
{
components = (
{
name = n;
}
);
layerId = UUID1;
paths = (
{
closed = 1;
nodes = (
"93 -211 LINE",
"177 -167 OFFCURVE",
"215 -96 OFFCURVE",
"215 0 CURVE",
"215 38 LINE",
"75 38 LINE",
"75 8 LINE",
"75 -53 OFFCURVE",
"53 -95 OFFCURVE",
"13 -124 CURVE",
"93 -211 LINE"
);
}
);
width = 594;
}
);
rightMetricsKey = n;
unicode = 0272;
},
{
glyphname = nj;
lastChange = "2016-12-11 01:29:28 +0000";
layers = (
{
components = (
{
name = n;
},
{
name = j;
transform = "{1, 0, 0, 1, 482, 0}";
}
);
layerId = UUID0;
width = 696;
},
{
background = {
paths = (
{
closed = 1;
nodes = (
"385 437 LINE",
"385 0 LINE",
"525 0 LINE",
"525 178 LINE",
"525 271 OFFCURVE",
"566 339 OFFCURVE",
"631 339 CURVE",
"676 339 OFFCURVE",
"693 314 OFFCURVE",
"695 275 CURVE",
"695 0 LINE",
"835 0 LINE",
"835 327 LINE",
"833 404 OFFCURVE",
"771 458 OFFCURVE",
"689 458 CURVE",
"608 458 OFFCURVE",
"553 421 OFFCURVE",
"522 366 CURVE",
"512 437 LINE"
);
}
);
};
components = (
{
name = n;
},
{
alignment = -1;
name = j;
transform = "{1, 0, 0, 1, 568, 0}";
}
);
layerId = UUID1;
width = 874;
}
);
leftMetricsKey = n;
rightMetricsKey = j;
unicode = 01CC;
},
{
glyphname = o;
lastChange = "2016-10-05 14:38:22 +0000";
layers = (
{
anchors = (
{
name = bottom;
position = "{250, 0}";
},
{
name = center;
position = "{250, 188}";
},
{
name = ogonek;
position = "{414, 10}";
},
{
name = top;
position = "{250, 375}";
},
{
name = topright;
position = "{345, 375}";
}
);
hints = (
{
horizontal = 1;
place = "{19, 21}";
target = up;
type = BottomGhost;
},
{
horizontal = 1;
place = "{409, -20}";
target = down;
type = TopGhost;
}
);
layerId = UUID0;
paths = (
{
closed = 1;
nodes = (
"55 77 OFFCURVE",
"141 -6 OFFCURVE",
"249 -6 CURVE SMOOTH",
"357 -6 OFFCURVE",
"445 80 OFFCURVE",
"445 188 CURVE SMOOTH",
"445 296 OFFCURVE",
"357 384 OFFCURVE",
"249 384 CURVE SMOOTH",
"141 384 OFFCURVE",
"55 296 OFFCURVE",
"55 188 CURVE"
);
},
{
closed = 1;
nodes = (
"69 280 OFFCURVE",
"145 370 OFFCURVE",
"249 370 CURVE SMOOTH",
"349 370 OFFCURVE",
"430 288 OFFCURVE",
"430 188 CURVE SMOOTH",
"430 88 OFFCURVE",
"349 7 OFFCURVE",
"249 7 CURVE SMOOTH",
"149 7 OFFCURVE",
"69 88 OFFCURVE",
"69 188 CURVE"
);
}
);
width = 500;
},
{
anchors = (
{
name = bottom;
position = "{286, 0}";
},
{
name = center;
position = "{286, 219}";
},
{
name = ogonek;
position = "{517, 10}";
},
{
name = top;
position = "{286, 457}";
},
{
name = topright;
position = "{450, 437}";
}
);
hints = (
{
horizontal = 1;
place = "{-9, 21}";
target = up;
type = BottomGhost;
},
{
horizontal = 1;
place = "{384, -20}";
target = down;
type = TopGhost;
}
);
layerId = UUID1;
paths = (
{
closed = 1;
nodes = (
"38 76 OFFCURVE",
"142 -12 OFFCURVE",
"287 -12 CURVE",
"440 -12 OFFCURVE",
"533 90 OFFCURVE",
"533 224 CURVE",
"533 358 OFFCURVE",
"439 458 OFFCURVE",
"289 458 CURVE",
"140 458 OFFCURVE",
"38 358 OFFCURVE",
"38 224 CURVE"
);
},
{
closed = 1;
nodes = (
"179 292 OFFCURVE",
"224 344 OFFCURVE",
"285 344 CURVE",
"350 344 OFFCURVE",
"392 292 OFFCURVE",
"392 223 CURVE",
"392 154 OFFCURVE",
"350 102 OFFCURVE",
"285 102 CURVE",
"224 102 OFFCURVE",
"179 154 OFFCURVE",
"179 223 CURVE"
);
}
);
width = 571;
}
);
leftKerningGroup = o;
rightKerningGroup = o;
unicode = 006F;
},
{
glyphname = oogonek;
lastChange = "2016-09-24 01:54:51 +0000";
layers = (
{
hints = (
{
horizontal = 1;
place = "{19, 21}";
target = up;
type = BottomGhost;
},
{
horizontal = 1;
place = "{409, -20}";
target = down;
type = TopGhost;
},
{
horizontal = 1;
place = "{19, 21}";
target = up;
type = BottomGhost;
},
{
horizontal = 1;
place = "{409, -20}";
target = down;
type = TopGhost;
}
);
layerId = UUID0;
paths = (
{
closed = 1;
nodes = (
"279 -6 OFFCURVE",
"302 0 OFFCURVE",
"321 7 CURVE",
"326 11 LINE",
"317 11 LINE",
"288 -17 OFFCURVE",
"262 -57 OFFCURVE",
"262 -101 CURVE",
"262 -152 OFFCURVE",
"300 -186 OFFCURVE",
"341 -186 CURVE",
"374 -186 OFFCURVE",
"401 -161 OFFCURVE",
"414 -133 CURVE",
"403 -127 LINE",
"389 -152 OFFCURVE",
"368 -172 OFFCURVE",
"342 -172 CURVE",
"309 -172 OFFCURVE",
"277 -144 OFFCURVE",
"277 -101 CURVE",
"277 -58 OFFCURVE",
"302 -10 OFFCURVE",
"349 21 CURVE SMOOTH",
"405 58 OFFCURVE",
"445 116 OFFCURVE",
"445 188 CURVE",
"445 296 OFFCURVE",
"357 384 OFFCURVE",
"249 384 CURVE",
"141 384 OFFCURVE",
"55 296 OFFCURVE",
"55 188 CURVE",
"55 77 OFFCURVE",
"141 -6 OFFCURVE",
"249 -6 CURVE"
);
},
{
closed = 1;
nodes = (
"149 7 OFFCURVE",
"69 88 OFFCURVE",
"69 188 CURVE",
"69 280 OFFCURVE",
"145 370 OFFCURVE",
"249 370 CURVE",
"349 370 OFFCURVE",
"430 288 OFFCURVE",
"430 188 CURVE",
"430 88 OFFCURVE",
"349 7 OFFCURVE",
"249 7 CURVE"
);
}
);
width = 500;
},
{
background = {
paths = (
{
closed = 1;
nodes = (
"456 0 CURVE",
"298 0 LINE",
"243 -22 OFFCURVE",
"213 -69 OFFCURVE",
"213 -113 CURVE SMOOTH",
"213 -191 OFFCURVE",
"275 -226 OFFCURVE",
"357 -226 CURVE SMOOTH",
"414 -226 OFFCURVE",
"477 -193 OFFCURVE",
"497 -144 CURVE",
"427 -92 LINE",
"421 -110 OFFCURVE",
"399 -134 OFFCURVE",
"372 -134 CURVE SMOOTH",
"349 -134 OFFCURVE",
"328 -126 OFFCURVE",
"328 -92 CURVE SMOOTH",
"328 -53 OFFCURVE",
"380 -29 OFFCURVE"
);
},
{
closed = 1;
nodes = (
"42 76 OFFCURVE",
"146 -12 OFFCURVE",
"291 -12 CURVE",
"444 -12 OFFCURVE",
"537 90 OFFCURVE",
"537 224 CURVE",
"537 358 OFFCURVE",
"443 458 OFFCURVE",
"293 458 CURVE",
"144 458 OFFCURVE",
"42 358 OFFCURVE",
"42 224 CURVE"
);
},
{
closed = 1;
nodes = (
"183 292 OFFCURVE",
"228 344 OFFCURVE",
"289 344 CURVE",
"354 344 OFFCURVE",
"396 292 OFFCURVE",
"396 223 CURVE",
"396 154 OFFCURVE",
"354 102 OFFCURVE",
"289 102 CURVE",
"228 102 OFFCURVE",
"183 154 OFFCURVE",
"183 223 CURVE"
);
}
);
};
hints = (
{
horizontal = 1;
place = "{-9, 21}";
target = up;
type = BottomGhost;
},
{
horizontal = 1;
place = "{384, -20}";
target = down;
type = TopGhost;
}
);
layerId = UUID1;
paths = (
{
closed = 1;
nodes = (
"326 -2 OFFCURVE",
"332 2 CURVE",
"298 10 LINE",
"243 -12 OFFCURVE",
"213 -59 OFFCURVE",
"213 -103 CURVE SMOOTH",
"213 -181 OFFCURVE",
"277 -232 OFFCURVE",
"359 -232 CURVE",
"405 -232 OFFCURVE",
"464 -201 OFFCURVE",
"494 -157 CURVE",
"444 -85 LINE",
"422 -118 OFFCURVE",
"399 -134 OFFCURVE",
"372 -134 CURVE",
"349 -134 OFFCURVE",
"328 -126 OFFCURVE",
"328 -83 CURVE SMOOTH",
"328 -48 OFFCURVE",
"359 -29 OFFCURVE",
"406 1 CURVE SMOOTH",
"484 51 OFFCURVE",
"537 128 OFFCURVE",
"537 224 CURVE",
"537 358 OFFCURVE",
"443 458 OFFCURVE",
"293 458 CURVE",
"144 458 OFFCURVE",
"42 358 OFFCURVE",
"42 224 CURVE",
"42 76 OFFCURVE",
"146 -12 OFFCURVE",
"291 -12 CURVE",
"300 -12 OFFCURVE"
);
},
{
closed = 1;
nodes = (
"228 102 OFFCURVE",
"183 154 OFFCURVE",
"183 223 CURVE",
"183 292 OFFCURVE",
"228 344 OFFCURVE",
"289 344 CURVE",
"354 344 OFFCURVE",
"396 292 OFFCURVE",
"396 223 CURVE",
"396 154 OFFCURVE",
"354 102 OFFCURVE",
"289 102 CURVE"
);
}
);
width = 579;
}
);
unicode = 01EB;
},
{
glyphname = oslash;
lastChange = "2016-09-20 16:53:50 +0000";
layers = (
{
anchors = (
{
name = top;
position = "{239, 375}";
}
);
components = (
{
name = o;
}
);
hints = (
{
horizontal = 1;
place = "{17, 21}";
target = up;
type = BottomGhost;
},
{
horizontal = 1;
place = "{408, -20}";
target = down;
type = TopGhost;
}
);
layerId = UUID0;
paths = (
{
closed = 1;
nodes = (
"389 375 LINE",
"83 10 LINE",
"91 0 LINE",
"398 366 LINE"
);
}
);
width = 478;
},
{
anchors = (
{
name = top;
position = "{273, 437}";
}
);
components = (
{
name = o;
}
);
hints = (
{
horizontal = 1;
place = "{-26, 21}";
target = up;
type = BottomGhost;
},
{
horizontal = 1;
place = "{401, -20}";
target = down;
type = TopGhost;
}
);
layerId = UUID1;
paths = (
{
closed = 1;
nodes = (
"448 484 LINE",
"42 24 LINE",
"109 -37 LINE",
"518 426 LINE"
);
}
);
width = 546;
}
);
unicode = 00F8;
},
{
glyphname = p;
lastChange = "2016-12-06 18:26:06 +0000";
layers = (
{
anchors = (
{
name = bottom;
position = "{270, 0}";
},
{
name = top;
position = "{270, 375}";
}
);
hints = (
{
horizontal = 1;
place = "{406, -20}";
target = down;
type = TopGhost;
},
{
horizontal = 1;
place = "{-225, 21}";
target = up;
type = BottomGhost;
}
);
layerId = UUID0;
paths = (
{
closed = 1;
nodes = (
"398 -6 OFFCURVE",
"484 79 OFFCURVE",
"484 188 CURVE SMOOTH",
"484 296 OFFCURVE",
"398 383 OFFCURVE",
"290 383 CURVE SMOOTH",
"208 383 OFFCURVE",
"138 332 OFFCURVE",
"109 260 CURVE",
"109 231 LINE",
"109 375 LINE",
"95 375 LINE",
"95 -180 LINE",
"109 -180 LINE",
"109 54 LINE",
"108 117 LINE",
"136 45 OFFCURVE",
"207 -6 OFFCURVE",
"290 -6 CURVE SMOOTH"
);
},
{
closed = 1;
nodes = (
"192 7 OFFCURVE",
"112 86 OFFCURVE",
"109 183 CURVE",
"109 188 LINE",
"109 288 OFFCURVE",
"190 370 OFFCURVE",
"290 370 CURVE SMOOTH",
"390 370 OFFCURVE",
"470 289 OFFCURVE",
"470 188 CURVE SMOOTH",
"470 88 OFFCURVE",
"390 7 OFFCURVE",
"290 7 CURVE SMOOTH"
);
}
);
width = 539;
},
{
anchors = (
{
name = bottom;
position = "{313, 0}";
},
{
name = top;
position = "{313, 437}";
}
);
hints = (
{
horizontal = 1;
place = "{382, -20}";
target = down;
type = TopGhost;
},
{
horizontal = 1;
place = "{-250, 21}";
target = up;
type = BottomGhost;
}
);
layerId = UUID1;
paths = (
{
closed = 1;
nodes = (
"485 -12 OFFCURVE",
"586 72 OFFCURVE",
"586 220 CURVE",
"586 369 OFFCURVE",
"496 459 OFFCURVE",
"374 459 CURVE",
"301 459 OFFCURVE",
"246 430 OFFCURVE",
"201 392 CURVE",
"212 362 LINE",
"192 447 LINE",
"72 447 LINE",
"72 -210 LINE",
"211 -210 LINE",
"211 85 LINE",
"207 44 LINE",
"240 8 OFFCURVE",
"294 -12 OFFCURVE",
"346 -12 CURVE"
);
},
{
closed = 1;
nodes = (
"267 98 OFFCURVE",
"227 125 OFFCURVE",
"212 168 CURVE",
"212 275 LINE",
"236 319 OFFCURVE",
"272 341 OFFCURVE",
"328 341 CURVE",
"392 341 OFFCURVE",
"444 292 OFFCURVE",
"444 218 CURVE",
"444 147 OFFCURVE",
"385 98 OFFCURVE",
"318 98 CURVE"
);
}
);
width = 624;
}
);
leftMetricsKey = n;
rightMetricsKey = o;
unicode = 0070;
},
{
glyphname = thorn;
lastChange = "2016-09-24 00:58:16 +0000";
layers = (
{
hints = (
{
horizontal = 1;
place = "{775, -20}";
target = down;
type = TopGhost;
},
{
horizontal = 1;
place = "{-225, 21}";
target = up;
type = BottomGhost;
},
{
horizontal = 1;
place = "{406, -20}";
target = down;
type = TopGhost;
},
{
horizontal = 1;
place = "{-225, 21}";
target = up;
type = BottomGhost;
}
);
layerId = UUID0;
paths = (
{
closed = 1;
nodes = (
"388 -6 OFFCURVE",
"474 77 OFFCURVE",
"474 188 CURVE SMOOTH",
"474 296 OFFCURVE",
"388 383 OFFCURVE",
"280 383 CURVE SMOOTH",
"198 383 OFFCURVE",
"116 325 OFFCURVE",
"95 247 CURVE",
"99 238 LINE",
"99 750 LINE",
"85 750 LINE",
"85 -180 LINE",
"99 -180 LINE",
"99 145 LINE",
"98 125 LINE",
"116 51 OFFCURVE",
"197 -6 OFFCURVE",
"280 -6 CURVE SMOOTH"
);
},
{
closed = 1;
nodes = (
"184 8 OFFCURVE",
"105 82 OFFCURVE",
"99 176 CURVE",
"99 188 LINE",
"99 288 OFFCURVE",
"180 369 OFFCURVE",
"280 369 CURVE SMOOTH",
"377 369 OFFCURVE",
"460 294 OFFCURVE",
"460 188 CURVE SMOOTH",
"460 88 OFFCURVE",
"380 8 OFFCURVE",
"280 8 CURVE SMOOTH"
);
}
);
width = 515;
},
{
hints = (
{
horizontal = 1;
place = "{750, -20}";
target = down;
type = TopGhost;
},
{
horizontal = 1;
place = "{-250, 21}";
target = up;
type = BottomGhost;
},
{
horizontal = 1;
place = "{382, -20}";
target = down;
type = TopGhost;
},
{
horizontal = 1;
place = "{-250, 21}";
target = up;
type = BottomGhost;
}
);
layerId = UUID1;
paths = (
{
closed = 1;
nodes = (
"488 -12 OFFCURVE",
"589 72 OFFCURVE",
"589 220 CURVE",
"589 369 OFFCURVE",
"499 459 OFFCURVE",
"377 459 CURVE",
"304 459 OFFCURVE",
"249 430 OFFCURVE",
"204 392 CURVE",
"215 362 LINE",
"215 789 LINE",
"75 789 LINE",
"75 -210 LINE",
"214 -210 LINE",
"214 85 LINE",
"214 41 LINE",
"247 5 OFFCURVE",
"297 -12 OFFCURVE",
"349 -12 CURVE"
);
},
{
closed = 1;
nodes = (
"270 98 OFFCURVE",
"230 125 OFFCURVE",
"215 168 CURVE",
"215 275 LINE",
"239 319 OFFCURVE",
"275 341 OFFCURVE",
"331 341 CURVE",
"393 341 OFFCURVE",
"447 288 OFFCURVE",
"447 218 CURVE",
"447 148 OFFCURVE",
"388 98 OFFCURVE",
"321 98 CURVE"
);
}
);
width = 625;
}
);
unicode = 00FE;
},
{
glyphname = q;
lastChange = "2016-12-07 16:19:23 +0000";
layers = (
{
anchors = (
{
name = bottom;
position = "{270, 0}";
},
{
name = top;
position = "{270, 375}";
}
);
hints = (
{
horizontal = 1;
place = "{-225, 21}";
target = up;
type = BottomGhost;
},
{
horizontal = 1;
place = "{406, -20}";
target = down;
type = TopGhost;
}
);
layerId = UUID0;
paths = (
{
closed = 1;
nodes = (
"332 -6 OFFCURVE",
"403 45 OFFCURVE",
"431 117 CURVE",
"430 54 LINE",
"430 -180 LINE",
"444 -180 LINE",
"444 375 LINE",
"430 375 LINE",
"430 232 LINE",
"433 255 LINE",
"404 327 OFFCURVE",
"331 383 OFFCURVE",
"249 383 CURVE SMOOTH",
"141 383 OFFCURVE",
"55 297 OFFCURVE",
"55 188 CURVE SMOOTH",
"55 80 OFFCURVE",
"141 -6 OFFCURVE",
"249 -6 CURVE SMOOTH"
);
},
{
closed = 1;
nodes = (
"149 7 OFFCURVE",
"69 88 OFFCURVE",
"69 188 CURVE SMOOTH",
"69 289 OFFCURVE",
"149 370 OFFCURVE",
"249 370 CURVE SMOOTH",
"349 370 OFFCURVE",
"430 288 OFFCURVE",
"430 188 CURVE",
"430 180 LINE",
"426 84 OFFCURVE",
"346 7 OFFCURVE",
"249 7 CURVE SMOOTH"
);
}
);
width = 539;
},
{
anchors = (
{
name = bottom;
position = "{312, 0}";
},
{
name = top;
position = "{312, 437}";
}
);
hints = (
{
horizontal = 1;
place = "{-250, 21}";
target = up;
type = BottomGhost;
},
{
horizontal = 1;
place = "{382, -20}";
target = down;
type = TopGhost;
}
);
layerId = UUID1;
paths = (
{
closed = 1;
nodes = (
"320 -12 OFFCURVE",
"378 11 OFFCURVE",
"413 40 CURVE",
"413 85 LINE",
"413 -210 LINE",
"552 -210 LINE",
"552 447 LINE",
"412 447 LINE",
"412 362 LINE",
"423 392 LINE",
"386 432 OFFCURVE",
"340 459 OFFCURVE",
"265 459 CURVE",
"145 459 OFFCURVE",
"38 368 OFFCURVE",
"38 219 CURVE",
"38 71 OFFCURVE",
"133 -12 OFFCURVE",
"246 -12 CURVE"
);
},
{
closed = 1;
nodes = (
"234 98 OFFCURVE",
"180 148 OFFCURVE",
"180 218 CURVE",
"180 288 OFFCURVE",
"234 341 OFFCURVE",
"296 341 CURVE",
"352 341 OFFCURVE",
"388 319 OFFCURVE",
"412 275 CURVE",
"412 168 LINE",
"396 125 OFFCURVE",
"352 98 OFFCURVE",
"296 98 CURVE"
);
}
);
width = 624;
}
);
leftKerningGroup = o;
leftMetricsKey = o;
rightMetricsKey = n;
unicode = 0071;
},
{
glyphname = r;
lastChange = "2016-09-28 14:03:54 +0000";
layers = (
{
anchors = (
{
name = bottom;
position = "{159, 0}";
},
{
name = top;
position = "{159, 375}";
}
);
hints = (
{
horizontal = 1;
place = "{407, -20}";
target = down;
type = TopGhost;
},
{
horizontal = 1;
place = "{25, 21}";
target = up;
type = BottomGhost;
}
);
layerId = UUID0;
paths = (
{
closed = 1;
nodes = (
"95 375 LINE",
"95 0 LINE",
"109 0 LINE",
"109 220 LINE SMOOTH",
"109 307 OFFCURVE",
"185 366 OFFCURVE",
"272 369 CURVE",
"272 382 LINE",
"197 380 OFFCURVE",
"128 339 OFFCURVE",
"106 268 CURVE",
"105 375 LINE"
);
}
);
width = 317;
},
{
anchors = (
{
name = bottom;
position = "{127, 0}";
},
{
name = top;
position = "{194, 437}";
}
);
hints = (
{
horizontal = 1;
place = "{383, -20}";
target = down;
type = TopGhost;
},
{
horizontal = 1;
place = "{0, 21}";
target = up;
type = BottomGhost;
}
);
layerId = UUID1;
paths = (
{
closed = 1;
nodes = (
"72 437 LINE",
"72 0 LINE",
"211 0 LINE",
"211 171 LINE",
"211 247 OFFCURVE",
"270 330 OFFCURVE",
"368 319 CURVE",
"375 459 LINE",
"340 459 OFFCURVE",
"246 412 OFFCURVE",
"208 335 CURVE",
"198 437 LINE"
);
}
);
width = 410;
}
);
leftKerningGroup = n;
leftMetricsKey = n;
rightKerningGroup = r;
unicode = 0072;
},
{
glyphname = s;
lastChange = "2016-09-28 14:04:04 +0000";
layers = (
{
anchors = (
{
name = bottom;
position = "{170, 0}";
},
{
name = top;
position = "{170, 375}";
}
);
hints = (
{
place = "{124, 240}";
},
{
horizontal = 1;
place = "{404, -20}";
target = down;
type = TopGhost;
},
{
horizontal = 1;
place = "{17, 21}";
target = up;
type = BottomGhost;
}
);
layerId = UUID0;
paths = (
{
closed = 1;
nodes = (
"244 -8 OFFCURVE",
"284 35 OFFCURVE",
"284 100 CURVE SMOOTH",
"284 169 OFFCURVE",
"222 185 OFFCURVE",
"167 204 CURVE SMOOTH",
"123 220 OFFCURVE",
"83 238 OFFCURVE",
"83 287 CURVE SMOOTH",
"83 343 OFFCURVE",
"134 366 OFFCURVE",
"169 366 CURVE SMOOTH",
"196 366 OFFCURVE",
"238 354 OFFCURVE",
"260 327 CURVE",
"269 336 LINE",
"241 368 OFFCURVE",
"198 379 OFFCURVE",
"169 379 CURVE SMOOTH",
"120 379 OFFCURVE",
"69 349 OFFCURVE",
"69 286 CURVE SMOOTH",
"69 227 OFFCURVE",
"114 207 OFFCURVE",
"162 191 CURVE SMOOTH",
"215 173 OFFCURVE",
"270 158 OFFCURVE",
"270 96 CURVE SMOOTH",
"270 27 OFFCURVE",
"218 5 OFFCURVE",
"170 5 CURVE SMOOTH",
"124 5 OFFCURVE",
"84 23 OFFCURVE",
"65 47 CURVE",
"55 39 LINE",
"83 4 OFFCURVE",
"133 -8 OFFCURVE",
"169 -8 CURVE SMOOTH"
);
}
);
width = 339;
},
{
anchors = (
{
name = bottom;
position = "{219, -10}";
},
{
name = top;
position = "{225, 447}";
}
);
hints = (
{
place = "{62, 243}";
},
{
horizontal = 1;
place = "{384, -20}";
target = down;
type = TopGhost;
},
{
horizontal = 1;
place = "{-8, 21}";
target = up;
type = BottomGhost;
}
);
layerId = UUID1;
paths = (
{
closed = 1;
nodes = (
"341 -9 OFFCURVE",
"402 65 OFFCURVE",
"402 146 CURVE",
"402 211 OFFCURVE",
"362 249 OFFCURVE",
"299 270 CURVE",
"252 285 OFFCURVE",
"196 292 OFFCURVE",
"198 331 CURVE",
"198 349 OFFCURVE",
"219 366 OFFCURVE",
"255 365 CURVE",
"282 364 OFFCURVE",
"316 348 OFFCURVE",
"341 328 CURVE",
"394 410 LINE",
"348 443 OFFCURVE",
"302 457 OFFCURVE",
"229 457 CURVE",
"106 457 OFFCURVE",
"56 378 OFFCURVE",
"56 312 CURVE",
"56 254 OFFCURVE",
"89 202 OFFCURVE",
"169 177 CURVE",
"216 163 OFFCURVE",
"262 154 OFFCURVE",
"262 120 CURVE",
"262 96 OFFCURVE",
"236 86 OFFCURVE",
"202 86 CURVE",
"173 86 OFFCURVE",
"135 101 OFFCURVE",
"93 140 CURVE",
"35 63 LINE",
"77 17 OFFCURVE",
"142 -9 OFFCURVE",
"214 -9 CURVE"
);
}
);
width = 447;
}
);
leftKerningGroup = s;
unicode = 0073;
},
{
glyphname = germandbls;
lastChange = "2016-09-28 14:07:05 +0000";
layers = (
{
hints = (
{
place = "{432, 103}";
},
{
horizontal = 1;
place = "{17, 21}";
target = up;
type = BottomGhost;
},
{
horizontal = 1;
place = "{683, -20}";
target = down;
type = TopGhost;
}
);
layerId = UUID0;
paths = (
{
closed = 1;
nodes = (
"115 384 LINE",
"50 384 LINE",
"50 370 LINE",
"115 370 LINE",
"115 0 LINE",
"129 0 LINE",
"129 430 LINE SMOOTH",
"129 559 OFFCURVE",
"184 644 OFFCURVE",
"290 644 CURVE SMOOTH",
"382 644 OFFCURVE",
"426 580 OFFCURVE",
"426 515 CURVE SMOOTH",
"426 442 OFFCURVE",
"369 396 OFFCURVE",
"300 396 CURVE",
"300 381 LINE",
"304 381 LINE",
"409 381 OFFCURVE",
"490 296 OFFCURVE",
"490 195 CURVE SMOOTH",
"490 93 OFFCURVE",
"403 5 OFFCURVE",
"297 5 CURVE SMOOTH",
"261 5 OFFCURVE",
"227 15 OFFCURVE",
"199 33 CURVE",
"193 22 LINE",
"224 3 OFFCURVE",
"260 -8 OFFCURVE",
"299 -8 CURVE SMOOTH",
"411 -8 OFFCURVE",
"504 83 OFFCURVE",
"504 195 CURVE SMOOTH",
"504 290 OFFCURVE",
"437 368 OFFCURVE",
"348 389 CURVE",
"404 410 OFFCURVE",
"440 453 OFFCURVE",
"440 520 CURVE SMOOTH",
"440 587 OFFCURVE",
"393 656 OFFCURVE",
"288 658 CURVE",
"177 654 OFFCURVE",
"115 574 OFFCURVE",
"115 426 CURVE SMOOTH"
);
}
);
width = 559;
},
{
hints = (
{
place = "{360, 142}";
},
{
horizontal = 1;
place = "{-9, 21}";
target = up;
type = BottomGhost;
},
{
horizontal = 1;
place = "{657, -20}";
target = down;
type = TopGhost;
}
);
layerId = UUID1;
paths = (
{
closed = 1;
nodes = (
"105 441 LINE",
"40 441 LINE",
"40 327 LINE",
"105 327 LINE",
"105 0 LINE",
"245 0 LINE",
"245 419 LINE SMOOTH",
"245 508 OFFCURVE",
"263 556 OFFCURVE",
"330 556 CURVE SMOOTH",
"374 556 OFFCURVE",
"400 536 OFFCURVE",
"400 496 CURVE SMOOTH",
"400 467 OFFCURVE",
"379 447 OFFCURVE",
"345 447 CURVE",
"346 326 LINE",
"352 326 LINE",
"409 328 OFFCURVE",
"440 287 OFFCURVE",
"440 205 CURVE SMOOTH",
"440 142 OFFCURVE",
"425 94 OFFCURVE",
"372 94 CURVE SMOOTH",
"355 94 OFFCURVE",
"340 97 OFFCURVE",
"322 113 CURVE",
"268 29 LINE",
"281 13 OFFCURVE",
"322 -10 OFFCURVE",
"386 -10 CURVE SMOOTH",
"503 -10 OFFCURVE",
"581 54 OFFCURVE",
"581 197 CURVE SMOOTH",
"581 316 OFFCURVE",
"539 368 OFFCURVE",
"477 398 CURVE",
"522 423 OFFCURVE",
"541 475 OFFCURVE",
"541 527 CURVE SMOOTH",
"541 607 OFFCURVE",
"465 670 OFFCURVE",
"329 670 CURVE",
"212 672 OFFCURVE",
"105 594 OFFCURVE",
"105 468 CURVE SMOOTH"
);
}
);
width = 626;
}
);
leftMetricsKey = f;
rightMetricsKey = s;
unicode = 00DF;
},
{
glyphname = t;
lastChange = "2016-09-28 14:04:18 +0000";
layers = (
{
anchors = (
{
name = bottom;
position = "{125, 0}";
},
{
name = center;
position = "{153, 205}";
},
{
name = top;
position = "{153, 375}";
},
{
name = topright;
position = "{275, 375}";
}
);
hints = (
{
horizontal = 1;
place = "{25, 21}";
target = up;
type = BottomGhost;
},
{
horizontal = 1;
place = "{644, -20}";
target = down;
type = TopGhost;
}
);
layerId = UUID0;
paths = (
{
closed = 1;
nodes = (
"134 367 LINE",
"45 367 LINE",
"45 354 LINE",
"134 354 LINE",
"134 0 LINE",
"148 0 LINE",
"148 354 LINE",
"275 354 LINE",
"275 367 LINE",
"148 367 LINE",
"148 539 LINE",
"134 539 LINE"
);
}
);
width = 300;
},
{
anchors = (
{
name = bottom;
position = "{176, 0}";
},
{
name = center;
position = "{187, 190}";
},
{
name = top;
position = "{187, 437}";
},
{
name = topright;
position = "{374, 437}";
}
);
hints = (
{
horizontal = 1;
place = "{0, 21}";
target = up;
type = BottomGhost;
},
{
horizontal = 1;
place = "{619, -20}";
target = down;
type = TopGhost;
}
);
layerId = UUID1;
paths = (
{
closed = 1;
nodes = (
"113 439 LINE",
"45 439 LINE",
"45 330 LINE",
"113 330 LINE",
"113 0 LINE",
"253 0 LINE",
"253 330 LINE",
"359 330 LINE",
"359 439 LINE",
"253 439 LINE",
"253 629 LINE",
"113 629 LINE"
);
}
);
width = 394;
}
);
unicode = 0074;
},
{
glyphname = u;
lastChange = "2016-10-05 14:38:44 +0000";
layers = (
{
anchors = (
{
name = bottom;
position = "{241, 0}";
},
{
name = ogonek;
position = "{430, 10}";
},
{
name = top;
position = "{241, 375}";
},
{
name = topright;
position = "{414, 375}";
}
);
hints = (
{
horizontal = 1;
place = "{400, -20}";
target = down;
type = TopGhost;
},
{
horizontal = 1;
place = "{18, 21}";
target = up;
type = BottomGhost;
}
);
layerId = UUID0;
paths = (
{
closed = 1;
nodes = (
"285 -7 OFFCURVE",
"357 46 OFFCURVE",
"374 109 CURVE",
"376 0 LINE",
"387 0 LINE",
"387 375 LINE",
"373 375 LINE",
"373 155 LINE SMOOTH",
"373 69 OFFCURVE",
"294 6 OFFCURVE",
"212 6 CURVE",
"146 9 OFFCURVE",
"111 50 OFFCURVE",
"109 98 CURVE",
"109 375 LINE",
"95 375 LINE",
"95 105 LINE",
"97 39 OFFCURVE",
"141 -7 OFFCURVE",
"211 -7 CURVE SMOOTH"
);
}
);
width = 482;
},
{
anchors = (
{
name = bottom;
position = "{292, 0}";
},
{
name = ogonek;
position = "{608, 10}";
},
{
name = top;
position = "{294, 457}";
},
{
name = topright;
position = "{507, 437}";
}
);
hints = (
{
horizontal = 1;
place = "{375, -20}";
target = down;
type = TopGhost;
},
{
horizontal = 1;
place = "{-9, 21}";
target = up;
type = BottomGhost;
}
);
layerId = UUID1;
paths = (
{
closed = 1;
nodes = (
"291 -21 OFFCURVE",
"345 16 OFFCURVE",
"375 71 CURVE",
"385 0 LINE",
"512 0 LINE",
"512 437 LINE",
"372 437 LINE",
"372 259 LINE",
"372 166 OFFCURVE",
"333 98 OFFCURVE",
"271 98 CURVE",
"230 98 OFFCURVE",
"214 123 OFFCURVE",
"212 162 CURVE",
"212 437 LINE",
"72 437 LINE",
"72 110 LINE",
"74 33 OFFCURVE",
"134 -21 OFFCURVE",
"213 -21 CURVE"
);
}
);
width = 584;
}
);
leftKerningGroup = n;
leftMetricsKey = n;
rightMetricsKey = n;
unicode = 0075;
},
{
glyphname = uogonek;
lastChange = "2016-09-24 01:00:41 +0000";
layers = (
{
components = (
{
name = u;
}
);
layerId = UUID0;
paths = (
{
closed = 1;
nodes = (
"390 -186 OFFCURVE",
"417 -161 OFFCURVE",
"430 -133 CURVE",
"419 -127 LINE",
"405 -152 OFFCURVE",
"384 -172 OFFCURVE",
"358 -172 CURVE",
"330 -172 OFFCURVE",
"303 -148 OFFCURVE",
"303 -111 CURVE",
"303 -74 OFFCURVE",
"333 -33 OFFCURVE",
"387 0 CURVE",
"381 4 LINE",
"377 10 LINE",
"329 -17 OFFCURVE",
"288 -63 OFFCURVE",
"288 -111 CURVE",
"288 -156 OFFCURVE",
"321 -186 OFFCURVE",
"357 -186 CURVE"
);
}
);
width = 482;
},
{
components = (
{
name = u;
}
);
layerId = UUID1;
paths = (
{
closed = 1;
nodes = (
"495 -232 OFFCURVE",
"554 -201 OFFCURVE",
"584 -157 CURVE",
"534 -85 LINE",
"512 -118 OFFCURVE",
"489 -134 OFFCURVE",
"462 -134 CURVE",
"439 -134 OFFCURVE",
"418 -126 OFFCURVE",
"418 -92 CURVE SMOOTH",
"418 -48 OFFCURVE",
"457 -25 OFFCURVE",
"515 0 CURVE",
"466 23 LINE",
"388 10 LINE",
"333 -12 OFFCURVE",
"303 -59 OFFCURVE",
"303 -103 CURVE SMOOTH",
"303 -181 OFFCURVE",
"367 -232 OFFCURVE",
"449 -232 CURVE"
);
}
);
width = 590;
}
);
unicode = 0173;
},
{
glyphname = v;
lastChange = "2016-09-28 14:04:52 +0000";
layers = (
{
anchors = (
{
name = bottom;
position = "{213, 0}";
},
{
name = top;
position = "{213, 375}";
}
);
hints = (
{
horizontal = 1;
place = "{2, 21}";
target = up;
type = BottomGhost;
},
{
horizontal = 1;
place = "{400, -20}";
target = down;
type = TopGhost;
}
);
layerId = UUID0;
paths = (
{
closed = 1;
nodes = (
"216 -17 LINE",
"391 375 LINE",
"376 375 LINE",
"209 0 LINE",
"217 0 LINE",
"50 375 LINE",
"35 375 LINE",
"210 -17 LINE"
);
}
);
width = 426;
},
{
anchors = (
{
name = bottom;
position = "{267, 0}";
},
{
name = top;
position = "{267, 437}";
}
);
hints = (
{
horizontal = 1;
place = "{-23, 21}";
target = up;
type = BottomGhost;
},
{
horizontal = 1;
place = "{375, -20}";
target = down;
type = TopGhost;
}
);
layerId = UUID1;
paths = (
{
closed = 1;
nodes = (
"276 -9 LINE",
"524 437 LINE",
"368 437 LINE",
"239 138 LINE",
"325 135 LINE",
"176 437 LINE",
"10 437 LINE",
"272 -9 LINE"
);
}
);
width = 534;
}
);
leftKerningGroup = v;
rightKerningGroup = v;
unicode = 0076;
},
{
glyphname = w;
lastChange = "2016-12-07 17:00:28 +0000";
layers = (
{
anchors = (
{
name = bottom;
position = "{329, 0}";
},
{
name = top;
position = "{329, 375}";
}
);
hints = (
{
horizontal = 1;
place = "{400, -20}";
target = down;
type = TopGhost;
},
{
horizontal = 1;
place = "{2, 21}";
target = up;
type = BottomGhost;
}
);
layerId = UUID0;
paths = (
{
closed = 1;
nodes = (
"267 375 LINE",
"316 266 LINE",
"211 4 LINE",
"217 0 LINE",
"50 375 LINE",
"35 375 LINE",
"213 -23 LINE",
"324 251 LINE",
"445 -23 LINE",
"623 375 LINE",
"608 375 LINE",
"443 2 LINE",
"449 2 LINE",
"282 375 LINE"
);
}
);
width = 658;
},
{
anchors = (
{
name = bottom;
position = "{342, 0}";
},
{
name = top;
position = "{342, 437}";
}
);
hints = (
{
horizontal = 1;
place = "{375, -20}";
target = down;
type = TopGhost;
},
{
horizontal = 1;
place = "{-23, 21}";
target = up;
type = BottomGhost;
}
);
layerId = UUID1;
paths = (
{
closed = 1;
nodes = (
"265 437 LINE",
"288 387 LINE",
"204 201 LINE",
"252 194 LINE",
"146 437 LINE",
"10 437 LINE",
"209 -26 LINE",
"337 264 LINE",
"477 -26 LINE",
"674 437 LINE",
"538 437 LINE",
"454 210 LINE",
"480 212 LINE",
"384 437 LINE"
);
}
);
width = 684;
}
);
leftKerningGroup = w;
leftMetricsKey = v;
rightKerningGroup = v;
rightMetricsKey = v;
unicode = 0077;
},
{
glyphname = x;
lastChange = "2016-09-27 16:13:50 +0000";
layers = (
{
anchors = (
{
name = bottom;
position = "{181, 0}";
},
{
name = top;
position = "{181, 375}";
}
);
hints = (
{
horizontal = 1;
place = "{25, 21}";
target = up;
type = BottomGhost;
},
{
horizontal = 1;
place = "{399, -20}";
target = down;
type = TopGhost;
},
{
horizontal = 1;
place = "{400, -20}";
target = down;
type = TopGhost;
}
);
layerId = UUID0;
paths = (
{
closed = 1;
nodes = (
"190 183 LINE",
"325 374 LINE",
"308 374 LINE",
"180 194 LINE"
);
},
{
closed = 1;
nodes = (
"53 375 LINE",
"35 375 LINE",
"311 0 LINE",
"327 0 LINE"
);
},
{
closed = 1;
nodes = (
"173 187 LINE",
"39 0 LINE",
"57 0 LINE",
"185 178 LINE"
);
}
);
width = 362;
},
{
anchors = (
{
name = bottom;
position = "{256, 0}";
},
{
name = top;
position = "{256, 437}";
}
);
hints = (
{
horizontal = 1;
place = "{0, 21}";
target = up;
type = BottomGhost;
},
{
horizontal = 1;
place = "{375, -20}";
target = down;
type = TopGhost;
},
{
horizontal = 1;
place = "{375, -20}";
target = down;
type = TopGhost;
}
);
layerId = UUID1;
paths = (
{
closed = 1;
nodes = (
"319 197 LINE",
"492 437 LINE",
"353 437 LINE",
"270 298 LINE"
);
},
{
closed = 1;
nodes = (
"182 437 LINE",
"10 437 LINE",
"347 0 LINE",
"516 0 LINE"
);
},
{
closed = 1;
nodes = (
"188 234 LINE",
"15 0 LINE",
"154 0 LINE",
"252 140 LINE"
);
}
);
width = 526;
}
);
leftKerningGroup = x;
unicode = 0078;
},
{
glyphname = y;
lastChange = "2016-09-28 14:02:07 +0000";
layers = (
{
anchors = (
{
name = bottom;
position = "{323, 0}";
},
{
name = top;
position = "{213, 375}";
}
);
hints = (
{
horizontal = 1;
place = "{-225, 21}";
target = up;
type = BottomGhost;
},
{
horizontal = 1;
place = "{400, -20}";
target = down;
type = TopGhost;
}
);
layerId = UUID0;
paths = (
{
closed = 1;
nodes = (
"150 -180 LINE",
"391 375 LINE",
"374 375 LINE",
"131 -180 LINE"
);
},
{
closed = 1;
nodes = (
"221 4 LINE",
"50 375 LINE",
"35 375 LINE",
"209 -5 LINE"
);
}
);
width = 426;
},
{
anchors = (
{
name = bottom;
position = "{437, -10}";
},
{
name = top;
position = "{277, 437}";
}
);
hints = (
{
horizontal = 1;
place = "{-250, 21}";
target = up;
type = BottomGhost;
},
{
horizontal = 1;
place = "{375, -20}";
target = down;
type = TopGhost;
}
);
layerId = UUID1;
paths = (
{
closed = 1;
nodes = (
"242 -210 LINE",
"524 437 LINE",
"398 437 LINE",
"107 -210 LINE"
);
},
{
closed = 1;
nodes = (
"332 68 LINE",
"167 437 LINE",
"10 437 LINE",
"224 -2 LINE"
);
}
);
width = 534;
}
);
leftKerningGroup = v;
leftMetricsKey = v;
rightKerningGroup = v;
rightMetricsKey = v;
unicode = 0079;
},
{
glyphname = z;
lastChange = "2016-12-07 17:03:39 +0000";
layers = (
{
anchors = (
{
name = bottom;
position = "{169, 0}";
},
{
name = top;
position = "{189, 375}";
}
);
hints = (
{
horizontal = 1;
place = "{430, -20}";
target = down;
type = TopGhost;
},
{
horizontal = 1;
place = "{25, 21}";
target = up;
type = BottomGhost;
}
);
layerId = UUID0;
paths = (
{
closed = 1;
nodes = (
"308 362 LINE",
"302 366 LINE",
"42 0 LINE",
"321 0 LINE",
"321 13 LINE",
"63 13 LINE",
"67 10 LINE",
"326 375 LINE",
"81 375 LINE SMOOTH",
"59 375 OFFCURVE",
"48 386 OFFCURVE",
"48 398 CURVE SMOOTH",
"48 410 LINE",
"35 410 LINE",
"35 406 LINE SMOOTH",
"35 368 OFFCURVE",
"54 362 OFFCURVE",
"84 362 CURVE SMOOTH"
);
}
);
width = 361;
},
{
anchors = (
{
name = bottom;
position = "{261, 0}";
},
{
name = top;
position = "{261, 437}";
}
);
hints = (
{
horizontal = 1;
place = "{405, -20}";
target = down;
type = TopGhost;
},
{
horizontal = 1;
place = "{0, 21}";
target = up;
type = BottomGhost;
}
);
layerId = UUID1;
paths = (
{
closed = 1;
nodes = (
"290 323 LINE",
"269 363 LINE",
"20 0 LINE",
"463 0 LINE",
"463 114 LINE",
"198 114 LINE",
"224 85 LINE",
"466 437 LINE",
"189 437 LINE SMOOTH",
"164 437 OFFCURVE",
"155 437 OFFCURVE",
"155 465 CURVE SMOOTH",
"155 479 LINE",
"50 479 LINE",
"50 419 LINE SMOOTH",
"50 360 OFFCURVE",
"92 323 OFFCURVE",
"140 323 CURVE SMOOTH"
);
}
);
width = 522;
}
);
unicode = 007A;
},
{
glyphname = f_f;
lastChange = "2016-09-27 13:57:17 +0000";
layers = (
{
background = {
paths = (
{
closed = 1;
nodes = (
"115 375 LINE",
"115 0 LINE",
"129 0 LINE",
"129 221 LINE SMOOTH",
"129 310 OFFCURVE",
"208 369 OFFCURVE",
"292 369 CURVE",
"356 366 OFFCURVE",
"391 325 OFFCURVE",
"393 271 CURVE",
"393 0 LINE",
"407 0 LINE",
"407 270 LINE",
"405 336 OFFCURVE",
"361 382 OFFCURVE",
"291 382 CURVE SMOOTH",
"216 382 OFFCURVE",
"149 338 OFFCURVE",
"128 266 CURVE",
"125 375 LINE"
);
}
);
};
components = (
{
name = f;
},
{
alignment = -1;
name = f;
transform = "{1, 0, 0, 1, 279, 0}";
}
);
layerId = UUID0;
width = 563;
},
{
background = {
paths = (
{
closed = 1;
nodes = (
"115 437 LINE",
"115 0 LINE",
"255 0 LINE",
"255 178 LINE",
"255 271 OFFCURVE",
"296 339 OFFCURVE",
"361 339 CURVE",
"406 339 OFFCURVE",
"423 314 OFFCURVE",
"425 275 CURVE",
"425 0 LINE",
"565 0 LINE",
"565 327 LINE",
"563 404 OFFCURVE",
"501 458 OFFCURVE",
"419 458 CURVE",
"338 458 OFFCURVE",
"283 421 OFFCURVE",
"252 366 CURVE",
"242 437 LINE"
);
}
);
};
components = (
{
name = f;
},
{
alignment = -1;
name = f;
transform = "{1, 0, 0, 1, 313, 0}";
}
);
layerId = UUID1;
width = 748;
}
);
leftMetricsKey = f;
rightMetricsKey = f;
},
{
glyphname = f_f_i;
lastChange = "2016-09-28 14:07:05 +0000";
layers = (
{
background = {
paths = (
{
closed = 1;
nodes = (
"113 375 LINE",
"113 0 LINE",
"127 0 LINE",
"127 221 LINE SMOOTH",
"127 310 OFFCURVE",
"206 369 OFFCURVE",
"290 369 CURVE",
"354 366 OFFCURVE",
"389 325 OFFCURVE",
"391 271 CURVE",
"391 0 LINE",
"405 0 LINE",
"405 270 LINE",
"403 336 OFFCURVE",
"359 382 OFFCURVE",
"289 382 CURVE SMOOTH",
"214 382 OFFCURVE",
"147 338 OFFCURVE",
"126 266 CURVE",
"123 375 LINE"
);
}
);
};
components = (
{
name = f_f;
},
{
name = i;
transform = "{1, 0, 0, 1, 563, 0}";
}
);
hints = (
{
horizontal = 1;
place = "{25, 21}";
target = up;
type = BottomGhost;
},
{
horizontal = 1;
place = "{407, -20}";
target = down;
type = TopGhost;
}
);
layerId = UUID0;
width = 767;
},
{
background = {
paths = (
{
closed = 1;
nodes = (
"429 437 LINE",
"429 0 LINE",
"569 0 LINE",
"569 178 LINE",
"569 271 OFFCURVE",
"610 339 OFFCURVE",
"675 339 CURVE",
"720 339 OFFCURVE",
"737 314 OFFCURVE",
"739 275 CURVE",
"739 0 LINE",
"879 0 LINE",
"879 327 LINE",
"877 404 OFFCURVE",
"815 458 OFFCURVE",
"733 458 CURVE",
"652 458 OFFCURVE",
"597 421 OFFCURVE",
"566 366 CURVE",
"556 437 LINE"
);
}
);
};
components = (
{
name = f_f;
},
{
alignment = -1;
name = i;
transform = "{1, 0, 0, 1, 665, 0}";
}
);
hints = (
{
horizontal = 1;
place = "{0, 21}";
target = up;
type = BottomGhost;
},
{
horizontal = 1;
place = "{751, -20}";
target = down;
type = TopGhost;
}
);
layerId = UUID1;
width = 949;
}
);
leftMetricsKey = f;
rightMetricsKey = i;
},
{
glyphname = f_f_ij;
lastChange = "2016-12-06 18:17:46 +0000";
layers = (
{
components = (
{
name = f;
},
{
name = f_ij;
transform = "{1, 0, 0, 1, 284, 0}";
}
);
layerId = UUID0;
width = 986;
},
{
background = {
paths = (
{
closed = 1;
nodes = (
"116 437 LINE",
"116 0 LINE",
"256 0 LINE",
"256 178 LINE",
"256 271 OFFCURVE",
"297 339 OFFCURVE",
"362 339 CURVE",
"407 339 OFFCURVE",
"424 314 OFFCURVE",
"426 275 CURVE",
"426 0 LINE",
"566 0 LINE",
"566 327 LINE",
"564 404 OFFCURVE",
"502 458 OFFCURVE",
"420 458 CURVE",
"339 458 OFFCURVE",
"284 421 OFFCURVE",
"253 366 CURVE",
"243 437 LINE"
);
}
);
};
components = (
{
name = f;
},
{
alignment = -1;
name = f_ij;
transform = "{1, 0, 0, 1, 312, 0}";
}
);
layerId = UUID1;
width = 1222;
}
);
leftMetricsKey = f;
rightMetricsKey = ij;
},
{
glyphname = f_ij;
lastChange = "2016-12-06 18:17:46 +0000";
layers = (
{
components = (
{
name = f;
},
{
name = ij;
transform = "{1, 0, 0, 1, 284, 0}";
}
);
layerId = UUID0;
width = 702;
},
{
background = {
paths = (
{
closed = 1;
nodes = (
"115 437 LINE",
"115 0 LINE",
"255 0 LINE",
"255 178 LINE",
"255 271 OFFCURVE",
"296 339 OFFCURVE",
"361 339 CURVE",
"406 339 OFFCURVE",
"423 314 OFFCURVE",
"425 275 CURVE",
"425 0 LINE",
"565 0 LINE",
"565 327 LINE",
"563 404 OFFCURVE",
"501 458 OFFCURVE",
"419 458 CURVE",
"338 458 OFFCURVE",
"283 421 OFFCURVE",
"252 366 CURVE",
"242 437 LINE"
);
}
);
};
components = (
{
name = f;
},
{
alignment = -1;
name = ij;
transform = "{1, 0, 0, 1, 350, 0}";
}
);
layerId = UUID1;
width = 910;
}
);
leftMetricsKey = f;
rightMetricsKey = ij;
},
{
glyphname = fi;
lastChange = "2016-09-28 14:07:05 +0000";
layers = (
{
anchors = (
{
name = bottom;
position = "{142, 0}";
},
{
name = top;
position = "{142, 375}";
}
);
background = {
paths = (
{
closed = 1;
nodes = (
"115 375 LINE",
"115 0 LINE",
"129 0 LINE",
"129 221 LINE SMOOTH",
"129 310 OFFCURVE",
"208 369 OFFCURVE",
"292 369 CURVE",
"356 366 OFFCURVE",
"391 325 OFFCURVE",
"393 271 CURVE",
"393 0 LINE",
"407 0 LINE",
"407 270 LINE",
"405 336 OFFCURVE",
"361 382 OFFCURVE",
"291 382 CURVE SMOOTH",
"216 382 OFFCURVE",
"149 338 OFFCURVE",
"128 266 CURVE",
"125 375 LINE"
);
}
);
};
components = (
{
name = i;
transform = "{1, 0, 0, 1, 284, 0}";
}
);
hints = (
{
horizontal = 1;
place = "{0, 21}";
target = up;
type = BottomGhost;
},
{
horizontal = 1;
place = "{520, -20}";
target = down;
type = TopGhost;
},
{
horizontal = 1;
place = "{0, 21}";
target = up;
type = BottomGhost;
},
{
horizontal = 1;
place = "{750, -20}";
target = down;
type = TopGhost;
},
{
horizontal = 1;
place = "{25, 21}";
target = up;
type = BottomGhost;
},
{
horizontal = 1;
place = "{775, -20}";
target = down;
type = TopGhost;
}
);
layerId = UUID0;
paths = (
{
closed = 1;
nodes = (
"129 0 LINE",
"129 359 LINE",
"259 359 LINE",
"259 372 LINE",
"129 372 LINE",
"129 589 LINE SMOOTH",
"129 706 OFFCURVE",
"158 745 OFFCURVE",
"222 745 CURVE SMOOTH",
"235 745 OFFCURVE",
"244 742 OFFCURVE",
"251 739 CURVE",
"257 749 LINE",
"245 753 OFFCURVE",
"233 756 OFFCURVE",
"221 756 CURVE SMOOTH",
"151 756 OFFCURVE",
"115 715 OFFCURVE",
"115 585 CURVE SMOOTH",
"115 372 LINE",
"50 372 LINE",
"50 359 LINE",
"115 359 LINE",
"115 0 LINE"
);
}
);
width = 488;
},
{
anchors = (
{
name = bottom;
position = "{218, 0}";
},
{
name = top;
position = "{218, 437}";
}
);
background = {
paths = (
{
closed = 1;
nodes = (
"115 437 LINE",
"115 0 LINE",
"255 0 LINE",
"255 178 LINE",
"255 271 OFFCURVE",
"296 339 OFFCURVE",
"361 339 CURVE",
"406 339 OFFCURVE",
"423 314 OFFCURVE",
"425 275 CURVE",
"425 0 LINE",
"565 0 LINE",
"565 327 LINE",
"563 404 OFFCURVE",
"501 458 OFFCURVE",
"419 458 CURVE",
"338 458 OFFCURVE",
"283 421 OFFCURVE",
"252 366 CURVE",
"242 437 LINE"
);
}
);
};
components = (
{
alignment = -1;
name = i;
transform = "{1, 0, 0, 1, 350, 0}";
}
);
hints = (
{
horizontal = 1;
place = "{0, 21}";
target = up;
type = BottomGhost;
},
{
horizontal = 1;
place = "{573, -20}";
target = down;
type = TopGhost;
},
{
horizontal = 1;
place = "{0, 21}";
target = up;
type = BottomGhost;
},
{
horizontal = 1;
place = "{751, -20}";
target = down;
type = TopGhost;
},
{
horizontal = 1;
place = "{0, 21}";
target = up;
type = BottomGhost;
},
{
horizontal = 1;
place = "{751, -20}";
target = down;
type = TopGhost;
}
);
layerId = UUID1;
paths = (
{
closed = 1;
nodes = (
"254 0 LINE",
"254 315 LINE",
"366 315 LINE",
"366 439 LINE",
"254 439 LINE",
"254 587 LINE",
"254 645 OFFCURVE",
"282 671 OFFCURVE",
"322 671 CURVE",
"338 671 OFFCURVE",
"357 666 OFFCURVE",
"371 649 CURVE",
"430 750 LINE",
"395 775 OFFCURVE",
"344 786 OFFCURVE",
"307 786 CURVE",
"182 786 OFFCURVE",
"114 705 OFFCURVE",
"114 591 CURVE",
"114 439 LINE",
"40 439 LINE",
"40 315 LINE",
"114 315 LINE",
"114 0 LINE"
);
}
);
width = 634;
}
);
leftMetricsKey = f;
rightMetricsKey = i;
unicode = FB01;
},
{
glyphname = fl;
lastChange = "2016-09-27 15:55:11 +0000";
layers = (
{
anchors = (
{
name = bottom;
position = "{142, 0}";
},
{
name = top;
position = "{142, 375}";
}
);
components = (
{
name = l;
transform = "{1, 0, 0, 1, 284, 0}";
}
);
hints = (
{
horizontal = 1;
place = "{750, -20}";
target = down;
type = TopGhost;
},
{
horizontal = 1;
place = "{0, 21}";
target = up;
type = BottomGhost;
},
{
horizontal = 1;
place = "{0, 21}";
target = up;
type = BottomGhost;
},
{
horizontal = 1;
place = "{750, -20}";
target = down;
type = TopGhost;
},
{
horizontal = 1;
place = "{25, 21}";
target = up;
type = BottomGhost;
},
{
horizontal = 1;
place = "{775, -20}";
target = down;
type = TopGhost;
}
);
layerId = UUID0;
paths = (
{
closed = 1;
nodes = (
"129 0 LINE",
"129 359 LINE",
"259 359 LINE",
"259 372 LINE",
"129 372 LINE",
"129 589 LINE SMOOTH",
"129 706 OFFCURVE",
"158 745 OFFCURVE",
"222 745 CURVE SMOOTH",
"235 745 OFFCURVE",
"244 742 OFFCURVE",
"251 739 CURVE",
"257 749 LINE",
"245 753 OFFCURVE",
"233 756 OFFCURVE",
"221 756 CURVE SMOOTH",
"151 756 OFFCURVE",
"115 715 OFFCURVE",
"115 585 CURVE SMOOTH",
"115 372 LINE",
"50 372 LINE",
"50 359 LINE",
"115 359 LINE",
"115 0 LINE"
);
}
);
width = 488;
},
{
anchors = (
{
name = bottom;
position = "{218, 0}";
},
{
name = top;
position = "{218, 437}";
}
);
background = {
paths = (
{
closed = 1;
nodes = (
"115 437 LINE",
"115 0 LINE",
"255 0 LINE",
"255 178 LINE",
"255 271 OFFCURVE",
"296 339 OFFCURVE",
"361 339 CURVE",
"406 339 OFFCURVE",
"423 314 OFFCURVE",
"425 275 CURVE",
"425 0 LINE",
"565 0 LINE",
"565 327 LINE",
"563 404 OFFCURVE",
"501 458 OFFCURVE",
"419 458 CURVE",
"338 458 OFFCURVE",
"283 421 OFFCURVE",
"252 366 CURVE",
"242 437 LINE"
);
}
);
};
components = (
{
alignment = -1;
name = l;
transform = "{1, 0, 0, 1, 350, 0}";
}
);
hints = (
{
horizontal = 1;
place = "{750, -20}";
target = down;
type = TopGhost;
},
{
horizontal = 1;
place = "{0, 21}";
target = up;
type = BottomGhost;
},
{
horizontal = 1;
place = "{0, 21}";
target = up;
type = BottomGhost;
},
{
horizontal = 1;
place = "{751, -20}";
target = down;
type = TopGhost;
},
{
horizontal = 1;
place = "{0, 21}";
target = up;
type = BottomGhost;
},
{
horizontal = 1;
place = "{751, -20}";
target = down;
type = TopGhost;
}
);
layerId = UUID1;
paths = (
{
closed = 1;
nodes = (
"254 0 LINE",
"254 315 LINE",
"366 315 LINE",
"366 439 LINE",
"254 439 LINE",
"254 587 LINE",
"254 645 OFFCURVE",
"282 671 OFFCURVE",
"322 671 CURVE",
"338 671 OFFCURVE",
"357 666 OFFCURVE",
"371 649 CURVE",
"430 750 LINE",
"395 775 OFFCURVE",
"344 786 OFFCURVE",
"307 786 CURVE",
"182 786 OFFCURVE",
"114 705 OFFCURVE",
"114 591 CURVE",
"114 439 LINE",
"40 439 LINE",
"40 315 LINE",
"114 315 LINE",
"114 0 LINE"
);
}
);
width = 634;
}
);
leftMetricsKey = f;
rightMetricsKey = l;
unicode = FB02;
},
{
glyphname = ordfeminine;
lastChange = "2016-09-21 17:19:56 +0000";
layers = (
{
annotations = (
{
position = "{223.848, 389.985}";
type = Text;
},
{
position = "{182.576, 377.807}";
type = Text;
}
);
hints = (
{
horizontal = 1;
place = "{431.25, 21}";
target = up;
type = BottomGhost;
},
{
horizontal = 1;
place = "{723, -20}";
target = down;
type = TopGhost;
}
);
layerId = UUID0;
paths = (
{
closed = 1;
nodes = (
"253 413 OFFCURVE",
"306 451 OFFCURVE",
"327 505 CURVE",
"324 515 LINE",
"324 417 LINE",
"337 417 LINE",
"337 698 LINE",
"327 698 LINE",
"324 615 LINE",
"302 669 OFFCURVE",
"251 704 OFFCURVE",
"191 704 CURVE",
"111 704 OFFCURVE",
"45 651 OFFCURVE",
"45 558 CURVE",
"45 477 OFFCURVE",
"110 413 OFFCURVE",
"191 413 CURVE"
);
},
{
closed = 1;
nodes = (
"118 426 OFFCURVE",
"59 485 OFFCURVE",
"59 558 CURVE",
"59 639 OFFCURVE",
"118 691 OFFCURVE",
"191 691 CURVE",
"257 691 OFFCURVE",
"312 642 OFFCURVE",
"324 581 CURVE",
"324 553 LINE",
"324 480 OFFCURVE",
"264 426 OFFCURVE",
"191 426 CURVE"
);
}
);
width = 417;
},
{
hints = (
{
horizontal = 1;
place = "{481.857, 21}";
target = up;
type = BottomGhost;
},
{
horizontal = 1;
place = "{705.275, -20}";
target = down;
type = TopGhost;
}
);
layerId = UUID1;
paths = (
{
closed = 1;
nodes = (
"208 427 OFFCURVE",
"236 471 OFFCURVE",
"239 471 CURVE",
"233 488 LINE",
"233 434 LINE",
"339 434 LINE",
"339 724 LINE",
"239 724 LINE",
"234 697 LINE",
"217 717 OFFCURVE",
"196 736 OFFCURVE",
"147 736 CURVE",
"83 736 OFFCURVE",
"25 675 OFFCURVE",
"25 579 CURVE",
"25 474 OFFCURVE",
"80 427 OFFCURVE",
"150 427 CURVE"
);
},
{
closed = 1;
nodes = (
"155 512 OFFCURVE",
"132 543 OFFCURVE",
"132 583 CURVE",
"132 623 OFFCURVE",
"154 651 OFFCURVE",
"183 651 CURVE",
"208 651 OFFCURVE",
"225 636 OFFCURVE",
"233 611 CURVE",
"233 550 LINE",
"222 526 OFFCURVE",
"209 512 OFFCURVE",
"185 512 CURVE"
);
}
);
width = 389;
}
);
unicode = 00AA;
},
{
glyphname = ordmasculine;
lastChange = "2016-12-06 18:23:00 +0000";
layers = (
{
hints = (
{
horizontal = 1;
place = "{426.25, 21}";
target = up;
type = BottomGhost;
},
{
horizontal = 1;
place = "{718.75, -20}";
target = down;
type = TopGhost;
}
);
layerId = UUID0;
paths = (
{
closed = 1;
nodes = (
"45 470 OFFCURVE",
"110 408 OFFCURVE",
"191 408 CURVE",
"272 408 OFFCURVE",
"338 472 OFFCURVE",
"338 553 CURVE",
"338 634 OFFCURVE",
"272 700 OFFCURVE",
"191 700 CURVE",
"110 700 OFFCURVE",
"45 634 OFFCURVE",
"45 553 CURVE"
);
},
{
closed = 1;
nodes = (
"59 622 OFFCURVE",
"115 687 OFFCURVE",
"191 687 CURVE",
"264 687 OFFCURVE",
"324 627 OFFCURVE",
"324 553 CURVE",
"324 480 OFFCURVE",
"264 421 OFFCURVE",
"191 421 CURVE",
"118 421 OFFCURVE",
"59 480 OFFCURVE",
"59 553 CURVE"
);
}
);
width = 383;
},
{
hints = (
{
horizontal = 1;
place = "{467.857, 21}";
target = up;
type = BottomGhost;
},
{
horizontal = 1;
place = "{692.418, -20}";
target = down;
type = TopGhost;
}
);
layerId = UUID1;
paths = (
{
closed = 1;
nodes = (
"25 484 OFFCURVE",
"92 426 OFFCURVE",
"187 426 CURVE",
"287 426 OFFCURVE",
"348 492 OFFCURVE",
"348 581 CURVE",
"348 670 OFFCURVE",
"286 735 OFFCURVE",
"188 735 CURVE",
"91 735 OFFCURVE",
"25 670 OFFCURVE",
"25 581 CURVE"
);
},
{
closed = 1;
nodes = (
"133 616 OFFCURVE",
"156 643 OFFCURVE",
"186 643 CURVE",
"219 643 OFFCURVE",
"240 616 OFFCURVE",
"240 580 CURVE",
"240 545 OFFCURVE",
"219 518 OFFCURVE",
"186 518 CURVE",
"156 518 OFFCURVE",
"133 545 OFFCURVE",
"133 580 CURVE"
);
}
);
width = 373;
}
);
unicode = 00BA;
},
{
glyphname = pi;
lastChange = "2016-09-13 15:45:57 +0000";
layers = (
{
hints = (
{
horizontal = 1;
place = "{25, 21}";
target = up;
type = BottomGhost;
},
{
horizontal = 1;
place = "{598, -20}";
target = down;
type = TopGhost;
},
{
horizontal = 1;
place = "{503, 21}";
target = up;
type = BottomGhost;
},
{
horizontal = 1;
place = "{556, -20}";
target = down;
type = TopGhost;
},
{
horizontal = 1;
place = "{25, 21}";
target = up;
type = BottomGhost;
},
{
horizontal = 1;
place = "{598, -20}";
target = down;
type = TopGhost;
}
);
layerId = UUID0;
paths = (
{
closed = 1;
nodes = (
"5 306 LINE",
"56 306 LINE",
"56 0 LINE",
"70 0 LINE",
"70 306 LINE",
"219 306 LINE",
"219 0 LINE",
"233 0 LINE",
"233 306 LINE",
"271 306 LINE",
"271 320 LINE",
"5 320 LINE"
);
}
);
width = 276;
},
{
hints = (
{
horizontal = 1;
place = "{0, 21}";
target = up;
type = BottomGhost;
},
{
horizontal = 1;
place = "{573, -20}";
target = down;
type = TopGhost;
},
{
horizontal = 1;
place = "{478, 21}";
target = up;
type = BottomGhost;
},
{
horizontal = 1;
place = "{531, -20}";
target = down;
type = TopGhost;
},
{
horizontal = 1;
place = "{0, 21}";
target = up;
type = BottomGhost;
},
{
horizontal = 1;
place = "{573, -20}";
target = down;
type = TopGhost;
}
);
layerId = UUID1;
paths = (
{
closed = 1;
nodes = (
"9 247 LINE",
"67 247 LINE",
"67 0 LINE",
"192 0 LINE",
"192 247 LINE",
"244 247 LINE",
"244 0 LINE",
"368 0 LINE",
"368 247 LINE",
"431 247 LINE",
"431 368 LINE",
"9 368 LINE"
);
}
);
width = 444;
}
);
unicode = 03C0;
},
{
glyphname = zero;
lastChange = "2016-12-09 18:24:06 +0000";
layers = (
{
layerId = UUID0;
paths = (
{
closed = 1;
nodes = (
"489 -7 OFFCURVE",
"580 158 OFFCURVE",
"580 325 CURVE",
"580 492 OFFCURVE",
"489 655 OFFCURVE",
"308 654 CURVE",
"127 655 OFFCURVE",
"36 492 OFFCURVE",
"36 325 CURVE",
"36 158 OFFCURVE",
"127 -7 OFFCURVE",
"308 -6 CURVE"
);
},
{
closed = 1;
nodes = (
"165 6 OFFCURVE",
"51 126 OFFCURVE",
"50 324 CURVE",
"51 522 OFFCURVE",
"165 642 OFFCURVE",
"308 641 CURVE",
"451 642 OFFCURVE",
"565 522 OFFCURVE",
"566 324 CURVE",
"565 126 OFFCURVE",
"451 6 OFFCURVE",
"308 7 CURVE"
);
}
);
width = 616;
},
{
layerId = UUID1;
paths = (
{
closed = 1;
nodes = (
"465 -2 OFFCURVE",
"593 97 OFFCURVE",
"593 335 CURVE",
"593 564 OFFCURVE",
"467 672 OFFCURVE",
"314 671 CURVE",
"154 672 OFFCURVE",
"35 590 OFFCURVE",
"35 335 CURVE SMOOTH",
"35 106 OFFCURVE",
"161 -2 OFFCURVE",
"314 -1 CURVE"
);
},
{
closed = 1;
nodes = (
"214 138 OFFCURVE",
"186 226 OFFCURVE",
"186 336 CURVE",
"186 445 OFFCURVE",
"214 531 OFFCURVE",
"313 531 CURVE",
"412 531 OFFCURVE",
"442 448 OFFCURVE",
"442 339 CURVE",
"442 226 OFFCURVE",
"413 138 OFFCURVE",
"313 138 CURVE"
);
}
);
width = 628;
}
);
unicode = 0030;
},
{
glyphname = one;
lastChange = "2016-09-27 13:57:23 +0000";
layers = (
{
hints = (
{
horizontal = 1;
place = "{0, 21}";
target = up;
type = BottomGhost;
},
{
horizontal = 1;
place = "{650, -20}";
target = down;
type = TopGhost;
}
);
layerId = UUID0;
paths = (
{
closed = 1;
nodes = (
"60 636 LINE",
"173 636 LINE",
"173 0 LINE",
"187 0 LINE",
"187 650 LINE",
"60 650 LINE"
);
}
);
width = 307;
},
{
hints = (
{
horizontal = 1;
place = "{0, 21}";
target = up;
type = BottomGhost;
},
{
horizontal = 1;
place = "{650, -20}";
target = down;
type = TopGhost;
}
);
layerId = UUID1;
paths = (
{
closed = 1;
nodes = (
"45 523 LINE",
"98 523 LINE",
"98 0 LINE",
"244 0 LINE",
"244 663 LINE",
"45 663 LINE"
);
}
);
width = 339;
}
);
rightMetricsKey = H;
unicode = 0031;
},
{
glyphname = two;
lastChange = "2016-12-09 18:24:41 +0000";
layers = (
{
hints = (
{
horizontal = 1;
place = "{658, -20}";
target = down;
type = TopGhost;
},
{
horizontal = 1;
place = "{0, 21}";
target = up;
type = BottomGhost;
}
);
layerId = UUID0;
paths = (
{
closed = 1;
nodes = (
"449 0 LINE",
"449 13 LINE",
"77 13 LINE",
"79 7 LINE",
"218 151 OFFCURVE",
"403 309 OFFCURVE",
"403 464 CURVE SMOOTH",
"403 576 OFFCURVE",
"332 658 OFFCURVE",
"228 658 CURVE SMOOTH",
"113 658 OFFCURVE",
"50 576 OFFCURVE",
"50 469 CURVE SMOOTH",
"50 415 OFFCURVE",
"67 379 OFFCURVE",
"95 347 CURVE",
"103 355 LINE",
"77 383 OFFCURVE",
"64 421 OFFCURVE",
"64 469 CURVE SMOOTH",
"64 538 OFFCURVE",
"96 645 OFFCURVE",
"228 645 CURVE SMOOTH",
"294 645 OFFCURVE",
"389 602 OFFCURVE",
"389 464 CURVE SMOOTH",
"389 326 OFFCURVE",
"225 165 OFFCURVE",
"53 0 CURVE"
);
}
);
width = 495;
},
{
hints = (
{
horizontal = 1;
place = "{658, -20}";
target = down;
type = TopGhost;
},
{
horizontal = 1;
place = "{0, 21}";
target = up;
type = BottomGhost;
}
);
layerId = UUID1;
paths = (
{
closed = 1;
nodes = (
"533 0 LINE",
"533 140 LINE",
"287 140 LINE",
"353 121 LINE",
"442 230 OFFCURVE",
"525 330 OFFCURVE",
"525 451 CURVE SMOOTH",
"525 565 OFFCURVE",
"434 671 OFFCURVE",
"297 671 CURVE SMOOTH",
"128 671 OFFCURVE",
"35 561 OFFCURVE",
"35 452 CURVE SMOOTH",
"35 403 OFFCURVE",
"68 303 OFFCURVE",
"126 275 CURVE",
"215 356 LINE",
"191 381 OFFCURVE",
"176 413 OFFCURVE",
"176 456 CURVE SMOOTH",
"176 492 OFFCURVE",
"210 531 OFFCURVE",
"272 531 CURVE SMOOTH",
"333 531 OFFCURVE",
"374 496 OFFCURVE",
"374 439 CURVE SMOOTH",
"374 310 OFFCURVE",
"218 168 OFFCURVE",
"54 0 CURVE"
);
}
);
width = 543;
}
);
unicode = 0032;
},
{
glyphname = three;
lastChange = "2016-12-09 18:33:24 +0000";
layers = (
{
hints = (
{
horizontal = 1;
place = "{-8, 21}";
target = up;
type = BottomGhost;
},
{
horizontal = 1;
place = "{650, -20}";
target = down;
type = TopGhost;
}
);
layerId = UUID0;
paths = (
{
closed = 1;
nodes = (
"83 650 LINE",
"83 637 LINE",
"378 637 LINE",
"378 643 LINE",
"147 363 LINE",
"151 360 LINE",
"175 374 OFFCURVE",
"215 385 OFFCURVE",
"251 385 CURVE SMOOTH",
"360 385 OFFCURVE",
"432 320 OFFCURVE",
"432 215 CURVE SMOOTH",
"432 93 OFFCURVE",
"347 5 OFFCURVE",
"222 5 CURVE SMOOTH",
"167 5 OFFCURVE",
"113 30 OFFCURVE",
"81 68 CURVE",
"73 58 LINE",
"110 18 OFFCURVE",
"162 -8 OFFCURVE",
"222 -8 CURVE SMOOTH",
"354 -8 OFFCURVE",
"446 83 OFFCURVE",
"446 215 CURVE SMOOTH",
"446 336 OFFCURVE",
"360 404 OFFCURVE",
"252 398 CURVE",
"217 398 OFFCURVE",
"185 391 OFFCURVE",
"160 375 CURVE",
"172 375 LINE",
"402 650 LINE"
);
}
);
width = 516;
},
{
background = {
paths = (
{
closed = 1;
nodes = (
"95 663 LINE",
"95 523 LINE",
"304 523 LINE",
"262 540 LINE",
"145 316 LINE",
"145 316 LINE",
"165 321 OFFCURVE",
"184 326 OFFCURVE",
"224 326 CURVE SMOOTH",
"282 326 OFFCURVE",
"317 288 OFFCURVE",
"317 230 CURVE SMOOTH",
"317 166 OFFCURVE",
"269 132 OFFCURVE",
"225 132 CURVE SMOOTH",
"179 132 OFFCURVE",
"134 162 OFFCURVE",
"114 187 CURVE",
"40 67 LINE",
"83 22 OFFCURVE",
"153 -8 OFFCURVE",
"219 -8 CURVE SMOOTH",
"344 -8 OFFCURVE",
"467 76 OFFCURVE",
"467 221 CURVE SMOOTH",
"467 313 OFFCURVE",
"430 405 OFFCURVE",
"320 436 CURVE",
"306 375 LINE",
"456 663 LINE"
);
}
);
};
hints = (
{
horizontal = 1;
place = "{-8, 21}";
target = up;
type = BottomGhost;
},
{
horizontal = 1;
place = "{650, -20}";
target = down;
type = TopGhost;
}
);
layerId = UUID1;
paths = (
{
closed = 1;
nodes = (
"95 663 LINE",
"95 523 LINE",
"304 523 LINE",
"262 540 LINE",
"145 321 LINE",
"148 317 LINE",
"168 322 OFFCURVE",
"184 326 OFFCURVE",
"224 326 CURVE SMOOTH",
"282 326 OFFCURVE",
"317 288 OFFCURVE",
"317 230 CURVE SMOOTH",
"317 166 OFFCURVE",
"269 132 OFFCURVE",
"225 132 CURVE SMOOTH",
"179 132 OFFCURVE",
"134 162 OFFCURVE",
"114 187 CURVE",
"40 67 LINE",
"83 22 OFFCURVE",
"163 -8 OFFCURVE",
"229 -8 CURVE SMOOTH",
"354 -8 OFFCURVE",
"467 76 OFFCURVE",
"467 221 CURVE SMOOTH",
"467 386 OFFCURVE",
"363 428 OFFCURVE",
"270 426 CURVE SMOOTH",
"257 426 OFFCURVE",
"240 423 OFFCURVE",
"227 418 CURVE",
"306 375 LINE",
"456 663 LINE"
);
}
);
width = 527;
}
);
unicode = 0033;
},
{
glyphname = four;
lastChange = "2016-12-09 18:35:26 +0000";
layers = (
{
hints = (
{
horizontal = 1;
place = "{0, 21}";
target = up;
type = BottomGhost;
},
{
horizontal = 1;
place = "{658, -20}";
target = down;
type = TopGhost;
}
);
layerId = UUID0;
paths = (
{
closed = 1;
nodes = (
"389 183 LINE",
"389 0 LINE",
"403 0 LINE",
"403 183 LINE",
"500 183 LINE",
"500 196 LINE",
"403 196 LINE",
"403 658 LINE",
"37 183 LINE"
);
},
{
closed = 1;
nodes = (
"389 196 LINE",
"63 196 LINE",
"389 619 LINE"
);
}
);
width = 505;
},
{
hints = (
{
horizontal = 1;
place = "{0, 21}";
target = up;
type = BottomGhost;
},
{
horizontal = 1;
place = "{658, -20}";
target = down;
type = TopGhost;
}
);
layerId = UUID1;
paths = (
{
closed = 1;
nodes = (
"285 145 LINE",
"285 0 LINE",
"431 0 LINE",
"431 145 LINE",
"510 145 LINE",
"510 255 LINE",
"431 255 LINE",
"431 671 LINE",
"430 671 LINE",
"7 146 LINE",
"7 145 LINE"
);
},
{
closed = 1;
nodes = (
"285 255 LINE",
"219 255 LINE",
"285 343 LINE"
);
}
);
width = 522;
}
);
unicode = 0034;
},
{
glyphname = five;
lastChange = "2016-12-09 19:23:34 +0000";
layers = (
{
hints = (
{
horizontal = 1;
place = "{-8, 21}";
target = up;
type = BottomGhost;
},
{
horizontal = 1;
place = "{650, -20}";
target = down;
type = TopGhost;
}
);
layerId = UUID0;
paths = (
{
closed = 1;
nodes = (
"367 -8 OFFCURVE",
"460 83 OFFCURVE",
"460 195 CURVE SMOOTH",
"460 307 OFFCURVE",
"367 395 OFFCURVE",
"255 395 CURVE SMOOTH",
"220 395 OFFCURVE",
"177 385 OFFCURVE",
"152 368 CURVE",
"157 364 LINE",
"157 637 LINE",
"430 637 LINE",
"430 650 LINE",
"143 650 LINE",
"143 342 LINE",
"144 342 LINE",
"167 364 OFFCURVE",
"207 382 OFFCURVE",
"253 382 CURVE SMOOTH",
"359 382 OFFCURVE",
"446 298 OFFCURVE",
"446 195 CURVE SMOOTH",
"446 93 OFFCURVE",
"359 5 OFFCURVE",
"253 5 CURVE SMOOTH",
"203 5 OFFCURVE",
"157 24 OFFCURVE",
"125 57 CURVE",
"115 48 LINE",
"152 13 OFFCURVE",
"201 -8 OFFCURVE",
"255 -8 CURVE SMOOTH"
);
}
);
width = 543;
},
{
hints = (
{
horizontal = 1;
place = "{-8, 21}";
target = up;
type = BottomGhost;
},
{
horizontal = 1;
place = "{650, -20}";
target = down;
type = TopGhost;
}
);
layerId = UUID1;
paths = (
{
closed = 1;
nodes = (
"388 -8 OFFCURVE",
"488 93 OFFCURVE",
"488 226 CURVE SMOOTH",
"488 346 OFFCURVE",
"408 449 OFFCURVE",
"269 450 CURVE SMOOTH",
"252 450 OFFCURVE",
"234 449 OFFCURVE",
"216 446 CURVE",
"233 416 LINE",
"233 523 LINE",
"439 523 LINE",
"439 663 LINE",
"108 663 LINE",
"108 291 LINE",
"109 291 LINE",
"160 318 OFFCURVE",
"193 328 OFFCURVE",
"234 328 CURVE SMOOTH",
"298 328 OFFCURVE",
"338 285 OFFCURVE",
"338 221 CURVE SMOOTH",
"338 162 OFFCURVE",
"297 132 OFFCURVE",
"251 132 CURVE SMOOTH",
"209 132 OFFCURVE",
"159 154 OFFCURVE",
"135 183 CURVE",
"60 67 LINE",
"101 26 OFFCURVE",
"183 -8 OFFCURVE",
"262 -8 CURVE SMOOTH"
);
}
);
width = 538;
}
);
unicode = 0035;
},
{
glyphname = six;
lastChange = "2016-09-21 21:12:41 +0000";
layers = (
{
background = {
paths = (
{
closed = 1;
nodes = (
"50 193 LINE SMOOTH",
"50 82 OFFCURVE",
"141 -8 OFFCURVE",
"254 -8 CURVE SMOOTH",
"367 -8 OFFCURVE",
"458 82 OFFCURVE",
"458 193 CURVE SMOOTH",
"458 304 OFFCURVE",
"367 395 OFFCURVE",
"254 395 CURVE SMOOTH",
"187 395 OFFCURVE",
"128 363 OFFCURVE",
"91 314 CURVE",
"93 318 OFFCURVE",
"95 323 OFFCURVE",
"97 327 CURVE SMOOTH",
"133 401 OFFCURVE",
"224 509 OFFCURVE",
"392 620 CURVE",
"389 624 OFFCURVE",
"385 629 OFFCURVE",
"382 633 CURVE",
"233 524 OFFCURVE",
"50 387 OFFCURVE",
"50 193 CURVE SMOOTH"
);
},
{
closed = 1;
nodes = (
"63 193 LINE SMOOTH",
"63 297 OFFCURVE",
"148 381 OFFCURVE",
"253 381 CURVE SMOOTH",
"358 381 OFFCURVE",
"444 297 OFFCURVE",
"444 193 CURVE SMOOTH",
"444 89 OFFCURVE",
"358 6 OFFCURVE",
"253 6 CURVE SMOOTH",
"148 6 OFFCURVE",
"63 89 OFFCURVE",
"63 193 CURVE SMOOTH"
);
}
);
};
hints = (
{
horizontal = 1;
place = "{-8, 21}";
target = up;
type = BottomGhost;
},
{
horizontal = 1;
place = "{633, -20}";
target = down;
type = TopGhost;
}
);
layerId = UUID0;
paths = (
{
closed = 1;
nodes = (
"367 -8 OFFCURVE",
"458 82 OFFCURVE",
"458 193 CURVE SMOOTH",
"458 304 OFFCURVE",
"367 395 OFFCURVE",
"254 395 CURVE SMOOTH",
"187 395 OFFCURVE",
"120 365 OFFCURVE",
"83 307 CURVE",
"87 304 LINE",
"120 401 OFFCURVE",
"223 510 OFFCURVE",
"391 621 CURVE",
"382 633 LINE",
"235 526 OFFCURVE",
"50 394 OFFCURVE",
"50 193 CURVE SMOOTH",
"50 82 OFFCURVE",
"141 -8 OFFCURVE",
"254 -8 CURVE SMOOTH"
);
},
{
closed = 1;
nodes = (
"148 5 OFFCURVE",
"63 89 OFFCURVE",
"63 193 CURVE SMOOTH",
"63 200 LINE SMOOTH",
"63 304 OFFCURVE",
"148 382 OFFCURVE",
"253 382 CURVE SMOOTH",
"358 382 OFFCURVE",
"444 297 OFFCURVE",
"444 193 CURVE SMOOTH",
"444 89 OFFCURVE",
"358 5 OFFCURVE",
"253 5 CURVE SMOOTH"
);
}
);
width = 520;
},
{
background = {
paths = (
{
closed = 0;
nodes = (
"275 449 LINE",
"302 471 OFFCURVE",
"420 534 OFFCURVE",
"454 557 CURVE",
"429 588 OFFCURVE",
"403 621 OFFCURVE",
"377 652 CURVE",
"282 583 OFFCURVE",
"50 444 OFFCURVE",
"50 222 CURVE SMOOTH",
"50 222 LINE SMOOTH",
"50 52 OFFCURVE",
"186 -8 OFFCURVE",
"280 -8 CURVE SMOOTH",
"404 -8 OFFCURVE",
"511 96 OFFCURVE",
"511 223 CURVE SMOOTH",
"511 350 OFFCURVE",
"404 449 OFFCURVE",
"279 449 CURVE SMOOTH",
"278 449 OFFCURVE",
"277 449 OFFCURVE",
"275 449 CURVE"
);
},
{
closed = 1;
nodes = (
"180 222 LINE SMOOTH",
"180 281 OFFCURVE",
"224 328 OFFCURVE",
"280 328 CURVE SMOOTH",
"336 328 OFFCURVE",
"386 281 OFFCURVE",
"386 222 CURVE SMOOTH",
"386 164 OFFCURVE",
"337 113 OFFCURVE",
"280 113 CURVE SMOOTH",
"223 113 OFFCURVE",
"180 164 OFFCURVE",
"180 222 CURVE SMOOTH"
);
}
);
};
hints = (
{
horizontal = 1;
place = "{-8, 21}";
target = up;
type = BottomGhost;
},
{
horizontal = 1;
place = "{637, -20}";
target = down;
type = TopGhost;
}
);
layerId = UUID1;
paths = (
{
closed = 1;
nodes = (
"410 -8 OFFCURVE",
"531 75 OFFCURVE",
"531 223 CURVE SMOOTH",
"531 350 OFFCURVE",
"432 437 OFFCURVE",
"336 437 CURVE SMOOTH",
"234 437 OFFCURVE",
"184 388 OFFCURVE",
"148 304 CURVE",
"184 300 LINE",
"184 388 OFFCURVE",
"254 514 OFFCURVE",
"414 577 CURVE",
"317 682 LINE",
"159 588 OFFCURVE",
"30 444 OFFCURVE",
"30 287 CURVE SMOOTH",
"30 96 OFFCURVE",
"141 -8 OFFCURVE",
"286 -8 CURVE SMOOTH"
);
},
{
closed = 1;
nodes = (
"223 122 OFFCURVE",
"180 167 OFFCURVE",
"180 215 CURVE SMOOTH",
"180 239 LINE SMOOTH",
"180 279 OFFCURVE",
"224 315 OFFCURVE",
"280 315 CURVE SMOOTH",
"336 315 OFFCURVE",
"380 284 OFFCURVE",
"380 222 CURVE SMOOTH",
"380 157 OFFCURVE",
"337 122 OFFCURVE",
"280 122 CURVE SMOOTH"
);
}
);
width = 561;
}
);
unicode = 0036;
},
{
glyphname = seven;
lastChange = "2016-09-21 21:13:08 +0000";
layers = (
{
hints = (
{
horizontal = 1;
place = "{0, 21}";
target = up;
type = BottomGhost;
},
{
horizontal = 1;
place = "{650, -20}";
target = down;
type = TopGhost;
}
);
layerId = UUID0;
paths = (
{
closed = 1;
nodes = (
"14 650 LINE",
"14 637 LINE",
"407 637 LINE",
"397 646 LINE",
"105 0 LINE",
"123 0 LINE",
"415 650 LINE"
);
}
);
width = 469;
},
{
hints = (
{
horizontal = 1;
place = "{0, 21}";
target = up;
type = BottomGhost;
},
{
horizontal = 1;
place = "{650, -20}";
target = down;
type = TopGhost;
}
);
layerId = UUID1;
paths = (
{
closed = 1;
nodes = (
"40 663 LINE",
"40 523 LINE",
"331 523 LINE",
"284 540 LINE",
"79 0 LINE",
"241 0 LINE",
"488 663 LINE"
);
}
);
width = 503;
}
);
unicode = 0037;
},
{
glyphname = eight;
lastChange = "2016-12-09 19:42:02 +0000";
layers = (
{
hints = (
{
place = "{53, 69}";
},
{
place = "{382, 78}";
},
{
horizontal = 1;
place = "{-8, 21}";
target = up;
type = BottomGhost;
},
{
horizontal = 1;
place = "{658, -20}";
target = down;
type = TopGhost;
}
);
layerId = UUID0;
paths = (
{
closed = 1;
nodes = (
"53 195 LINE SMOOTH",
"53 83 OFFCURVE",
"144 -8 OFFCURVE",
"255 -8 CURVE SMOOTH",
"367 -8 OFFCURVE",
"460 83 OFFCURVE",
"460 195 CURVE SMOOTH",
"460 290 OFFCURVE",
"393 368 OFFCURVE",
"304 389 CURVE",
"358 408 OFFCURVE",
"396 456 OFFCURVE",
"396 510 CURVE SMOOTH",
"396 593 OFFCURVE",
"342 658 OFFCURVE",
"252 658 CURVE SMOOTH",
"163 658 OFFCURVE",
"108 595 OFFCURVE",
"108 512 CURVE SMOOTH",
"108 457 OFFCURVE",
"148 407 OFFCURVE",
"204 389 CURVE",
"117 367 OFFCURVE",
"53 289 OFFCURVE",
"53 195 CURVE SMOOTH"
);
},
{
closed = 1;
nodes = (
"67 195 LINE SMOOTH",
"67 298 OFFCURVE",
"149 382 OFFCURVE",
"253 382 CURVE SMOOTH",
"359 382 OFFCURVE",
"446 298 OFFCURVE",
"446 195 CURVE SMOOTH",
"446 93 OFFCURVE",
"359 5 OFFCURVE",
"253 5 CURVE SMOOTH",
"149 5 OFFCURVE",
"67 93 OFFCURVE",
"67 195 CURVE SMOOTH"
);
},
{
closed = 1;
nodes = (
"122 511 LINE SMOOTH",
"122 592 OFFCURVE",
"180 645 OFFCURVE",
"254 645 CURVE SMOOTH",
"327 645 OFFCURVE",
"382 592 OFFCURVE",
"382 511 CURVE SMOOTH",
"382 445 OFFCURVE",
"327 395 OFFCURVE",
"254 395 CURVE SMOOTH",
"180 395 OFFCURVE",
"122 445 OFFCURVE",
"122 511 CURVE SMOOTH"
);
}
);
width = 510;
},
{
hints = (
{
place = "{36, 144}";
},
{
place = "{330, 142}";
},
{
horizontal = 1;
place = "{-8, 21}";
target = up;
type = BottomGhost;
},
{
horizontal = 1;
place = "{658, -20}";
target = down;
type = TopGhost;
}
);
layerId = UUID1;
paths = (
{
closed = 1;
nodes = (
"15 215 LINE SMOOTH",
"15 99 OFFCURVE",
"119 -8 OFFCURVE",
"265 -8 CURVE SMOOTH",
"410 -8 OFFCURVE",
"517 99 OFFCURVE",
"517 215 CURVE SMOOTH",
"517 316 OFFCURVE",
"449 369 OFFCURVE",
"402 400 CURVE",
"434 432 OFFCURVE",
"459 457 OFFCURVE",
"459 524 CURVE SMOOTH",
"459 607 OFFCURVE",
"371 671 OFFCURVE",
"267 671 CURVE SMOOTH",
"163 671 OFFCURVE",
"78 607 OFFCURVE",
"78 517 CURVE SMOOTH",
"78 457 OFFCURVE",
"101 431 OFFCURVE",
"131 400 CURVE",
"84 372 OFFCURVE",
"15 318 OFFCURVE",
"15 215 CURVE SMOOTH"
);
},
{
closed = 1;
nodes = (
"164 221 LINE SMOOTH",
"164 283 OFFCURVE",
"216 330 OFFCURVE",
"272 328 CURVE SMOOTH",
"328 326 OFFCURVE",
"372 278 OFFCURVE",
"372 221 CURVE SMOOTH",
"372 162 OFFCURVE",
"323 114 OFFCURVE",
"266 114 CURVE SMOOTH",
"210 114 OFFCURVE",
"164 162 OFFCURVE",
"164 221 CURVE SMOOTH"
);
},
{
closed = 1;
nodes = (
"219 499 LINE SMOOTH",
"219 526 OFFCURVE",
"245 550 OFFCURVE",
"270 550 CURVE SMOOTH",
"295 550 OFFCURVE",
"320 526 OFFCURVE",
"320 499 CURVE SMOOTH",
"320 472 OFFCURVE",
"294 449 OFFCURVE",
"270 449 CURVE SMOOTH",
"246 449 OFFCURVE",
"219 472 OFFCURVE",
"219 499 CURVE SMOOTH"
);
}
);
width = 532;
}
);
unicode = 0038;
},
{
glyphname = nine;
lastChange = "2016-12-09 19:48:25 +0000";
layers = (
{
hints = (
{
horizontal = 1;
place = "{633, -20}";
target = down;
type = TopGhost;
},
{
horizontal = 1;
place = "{-8, 21}";
target = up;
type = BottomGhost;
}
);
layerId = UUID0;
paths = (
{
closed = 1;
nodes = (
"335 230 OFFCURVE",
"384 257 OFFCURVE",
"431 317 CURVE",
"417 311 LINE",
"386 237 OFFCURVE",
"294 123 OFFCURVE",
"116 5 CURVE",
"126 -8 LINE",
"275 101 OFFCURVE",
"458 238 OFFCURVE",
"458 432 CURVE",
"458 557 OFFCURVE",
"367 633 OFFCURVE",
"254 633 CURVE SMOOTH",
"141 633 OFFCURVE",
"50 543 OFFCURVE",
"50 432 CURVE SMOOTH",
"50 321 OFFCURVE",
"141 230 OFFCURVE",
"254 230 CURVE SMOOTH"
);
},
{
closed = 1;
nodes = (
"150 244 OFFCURVE",
"64 328 OFFCURVE",
"64 432 CURVE SMOOTH",
"64 536 OFFCURVE",
"150 619 OFFCURVE",
"255 619 CURVE SMOOTH",
"356 619 OFFCURVE",
"439 547 OFFCURVE",
"445 440 CURVE",
"445 428 LINE",
"445 310 OFFCURVE",
"370 244 OFFCURVE",
"255 244 CURVE SMOOTH"
);
}
);
width = 525;
},
{
background = {
paths = (
{
closed = 1;
nodes = (
"509 422 LINE",
"509 592 OFFCURVE",
"373 652 OFFCURVE",
"279 652 CURVE SMOOTH",
"155 652 OFFCURVE",
"48 548 OFFCURVE",
"48 421 CURVE SMOOTH",
"48 294 OFFCURVE",
"155 195 OFFCURVE",
"280 195 CURVE SMOOTH",
"281 195 OFFCURVE",
"282 195 OFFCURVE",
"284 195 CURVE",
"257 173 OFFCURVE",
"139 110 OFFCURVE",
"105 87 CURVE",
"130 56 OFFCURVE",
"156 23 OFFCURVE",
"182 -8 CURVE",
"277 61 OFFCURVE",
"509 200 OFFCURVE",
"509 422 CURVE"
);
},
{
closed = 1;
nodes = (
"379 422 LINE",
"379 363 OFFCURVE",
"335 316 OFFCURVE",
"279 316 CURVE SMOOTH",
"223 316 OFFCURVE",
"173 363 OFFCURVE",
"173 422 CURVE SMOOTH",
"173 480 OFFCURVE",
"222 531 OFFCURVE",
"279 531 CURVE SMOOTH",
"336 531 OFFCURVE",
"379 480 OFFCURVE",
"379 422 CURVE"
);
}
);
};
hints = (
{
horizontal = 1;
place = "{636, -20}";
target = down;
type = TopGhost;
},
{
horizontal = 1;
place = "{-9, 21}";
target = up;
type = BottomGhost;
}
);
layerId = UUID1;
paths = (
{
closed = 1;
nodes = (
"327 207 OFFCURVE",
"377 256 OFFCURVE",
"413 340 CURVE",
"377 344 LINE",
"377 256 OFFCURVE",
"267 158 OFFCURVE",
"107 95 CURVE",
"204 -10 LINE",
"362 84 OFFCURVE",
"531 200 OFFCURVE",
"531 411 CURVE SMOOTH",
"531 548 OFFCURVE",
"420 652 OFFCURVE",
"275 652 CURVE SMOOTH",
"151 652 OFFCURVE",
"30 569 OFFCURVE",
"30 421 CURVE SMOOTH",
"30 294 OFFCURVE",
"129 207 OFFCURVE",
"225 207 CURVE SMOOTH"
);
},
{
closed = 1;
nodes = (
"225 329 OFFCURVE",
"181 360 OFFCURVE",
"181 422 CURVE SMOOTH",
"181 487 OFFCURVE",
"224 522 OFFCURVE",
"281 522 CURVE SMOOTH",
"338 522 OFFCURVE",
"381 477 OFFCURVE",
"381 429 CURVE SMOOTH",
"381 405 LINE SMOOTH",
"381 365 OFFCURVE",
"337 329 OFFCURVE",
"281 329 CURVE SMOOTH"
);
}
);
width = 546;
}
);
unicode = 0039;
},
{
glyphname = onesuperior;
lastChange = "2016-09-21 23:02:54 +0000";
layers = (
{
hints = (
{
horizontal = 1;
place = "{401, 21}";
target = up;
type = BottomGhost;
},
{
horizontal = 1;
place = "{700, -20}";
target = down;
type = TopGhost;
}
);
layerId = UUID0;
paths = (
{
closed = 1;
nodes = (
"81 637 LINE",
"125 637 LINE",
"125 351 LINE",
"140 351 LINE",
"140 650 LINE",
"81 650 LINE"
);
}
);
width = 249;
},
{
hints = (
{
horizontal = 1;
place = "{401, 21}";
target = up;
type = BottomGhost;
},
{
horizontal = 1;
place = "{700, -20}";
target = down;
type = TopGhost;
}
);
layerId = UUID1;
paths = (
{
closed = 1;
nodes = (
"25 555 LINE",
"93 555 LINE",
"93 265 LINE",
"223 265 LINE",
"223 680 LINE",
"25 680 LINE"
);
}
);
width = 283;
}
);
unicode = 00B9;
},
{
glyphname = twosuperior;
lastChange = "2016-12-11 00:48:08 +0000";
layers = (
{
hints = (
{
horizontal = 1;
place = "{699.986, -20}";
target = down;
type = TopGhost;
},
{
horizontal = 1;
place = "{375, 21}";
target = up;
type = BottomGhost;
}
);
layerId = UUID0;
paths = (
{
closed = 1;
nodes = (
"118 650 LINE",
"133 671 OFFCURVE",
"152 687 OFFCURVE",
"189 687 CURVE SMOOTH",
"232 687 OFFCURVE",
"269 665 OFFCURVE",
"269 604 CURVE SMOOTH",
"269 537 OFFCURVE",
"186 456 OFFCURVE",
"102 376 CURVE",
"102 375 LINE",
"298 375 LINE",
"298 388 LINE",
"119 388 LINE",
"125 378 LINE",
"194 450 OFFCURVE",
"283 528 OFFCURVE",
"283 604 CURVE SMOOTH",
"283 670 OFFCURVE",
"247 700 OFFCURVE",
"189 700 CURVE SMOOTH",
"154 700 OFFCURVE",
"125 681 OFFCURVE",
"110 657 CURVE"
);
}
);
width = 398;
},
{
hints = (
{
horizontal = 1;
place = "{699.986, -20}";
target = down;
type = TopGhost;
},
{
horizontal = 1;
place = "{375, 21}";
target = up;
type = BottomGhost;
}
);
layerId = UUID1;
paths = (
{
closed = 1;
nodes = (
"85 531 LINE",
"99 553 OFFCURVE",
"137 575 OFFCURVE",
"166 575 CURVE SMOOTH",
"202 575 OFFCURVE",
"218 554 OFFCURVE",
"218 509 CURVE SMOOTH",
"218 437 OFFCURVE",
"117 373 OFFCURVE",
"62 346 CURVE",
"62 265 LINE",
"378 265 LINE",
"378 381 LINE",
"165 381 LINE",
"142 287 LINE",
"212 341 OFFCURVE",
"364 424 OFFCURVE",
"364 548 CURVE SMOOTH",
"364 634 OFFCURVE",
"299 689 OFFCURVE",
"205 691 CURVE SMOOTH",
"141 692 OFFCURVE",
"71 663 OFFCURVE",
"45 623 CURVE"
);
}
);
width = 408;
}
);
unicode = 00B2;
},
{
glyphname = threesuperior;
lastChange = "2016-09-24 01:02:42 +0000";
layers = (
{
hints = (
{
horizontal = 1;
place = "{376.061, 21}";
target = up;
type = BottomGhost;
},
{
horizontal = 1;
place = "{700.06, -20}";
target = down;
type = TopGhost;
}
);
layerId = UUID0;
paths = (
{
closed = 1;
nodes = (
"235 376 OFFCURVE",
"277 421 OFFCURVE",
"277 486 CURVE SMOOTH",
"277 545 OFFCURVE",
"234 579 OFFCURVE",
"182 576 CURVE",
"163 576 OFFCURVE",
"141 570 OFFCURVE",
"129 562 CURVE",
"142 565 LINE",
"248.146 700.06 LINE",
"90.911 700.06 LINE",
"91 687 LINE",
"236 687 LINE",
"228 697 LINE",
"115 551 LINE",
"117 549 LINE",
"136 556 OFFCURVE",
"149 563 OFFCURVE",
"183 563 CURVE SMOOTH",
"226 563 OFFCURVE",
"263 538 OFFCURVE",
"262.933 485.866 CURVE SMOOTH",
"263 433 OFFCURVE",
"228 389 OFFCURVE",
"172 389 CURVE SMOOTH",
"132 389 OFFCURVE",
"106 407 OFFCURVE",
"90 425 CURVE",
"83 416 LINE",
"101 396 OFFCURVE",
"130 376 OFFCURVE",
"171 376 CURVE SMOOTH"
);
}
);
width = 419;
},
{
hints = (
{
horizontal = 1;
place = "{376.061, 21}";
target = up;
type = BottomGhost;
},
{
horizontal = 1;
place = "{700.06, -20}";
target = down;
type = TopGhost;
}
);
layerId = UUID1;
paths = (
{
closed = 1;
nodes = (
"262 260 OFFCURVE",
"326 324 OFFCURVE",
"326 403 CURVE SMOOTH",
"326 474 OFFCURVE",
"244 533 OFFCURVE",
"199 533 CURVE",
"163 533 OFFCURVE",
"140 519 OFFCURVE",
"122 503 CURVE",
"212 476 LINE",
"315 680 LINE",
"57 680 LINE",
"57 580 LINE",
"196 580 LINE",
"167 600 LINE",
"92 474 LINE",
"99 462 LINE",
"105 466 OFFCURVE",
"125 470 OFFCURVE",
"134 470 CURVE SMOOTH",
"170 470 OFFCURVE",
"200 445 OFFCURVE",
"200 407 CURVE SMOOTH",
"200 371 OFFCURVE",
"178 356 OFFCURVE",
"145 350 CURVE SMOOTH",
"117 345 OFFCURVE",
"89 380 OFFCURVE",
"79 392 CURVE",
"40 311 LINE",
"61 289 OFFCURVE",
"102 260 OFFCURVE",
"163 260 CURVE SMOOTH"
);
}
);
width = 376;
}
);
unicode = 00B3;
},
{
glyphname = foursuperior;
lastChange = "2016-09-21 23:02:56 +0000";
layers = (
{
hints = (
{
horizontal = 1;
place = "{0, 21}";
target = up;
type = BottomGhost;
},
{
horizontal = 1;
place = "{658, -20}";
target = down;
type = TopGhost;
}
);
layerId = UUID0;
paths = (
{
closed = 1;
nodes = (
"58 473 LINE",
"62 469 LINE",
"211 633 LINE",
"207 641 LINE",
"207 351 LINE",
"221 351 LINE",
"221 660 LINE",
"217 660 LINE",
"45 468 LINE",
"45 460 LINE",
"258 460 LINE",
"258 473 LINE"
);
}
);
width = 348;
},
{
hints = (
{
horizontal = 1;
place = "{0, 21}";
target = up;
type = BottomGhost;
},
{
horizontal = 1;
place = "{658, -20}";
target = down;
type = TopGhost;
}
);
layerId = UUID1;
paths = (
{
closed = 1;
nodes = (
"111 437 LINE",
"129 387 LINE",
"241 551 LINE",
"211 543 LINE",
"211 265 LINE",
"331 265 LINE",
"331 687 LINE",
"243 687 LINE",
"30 393 LINE",
"32 359 LINE",
"379 359 LINE",
"379 437 LINE"
);
}
);
width = 409;
}
);
unicode = 2074;
},
{
glyphname = fraction;
lastChange = "2016-09-24 00:29:52 +0000";
layers = (
{
hints = (
{
horizontal = 1;
place = "{306, 21}";
target = up;
type = BottomGhost;
},
{
horizontal = 1;
place = "{1061, -20}";
target = down;
type = TopGhost;
}
);
layerId = UUID0;
paths = (
{
closed = 1;
nodes = (
"429 663 LINE",
"23 0 LINE",
"39 0 LINE",
"445 663 LINE"
);
}
);
width = 532;
},
{
hints = (
{
horizontal = 1;
place = "{181, 21}";
target = up;
type = BottomGhost;
},
{
horizontal = 1;
place = "{936, -20}";
target = down;
type = TopGhost;
}
);
layerId = UUID1;
paths = (
{
closed = 1;
nodes = (
"412 698 LINE",
"5 0 LINE",
"135 0 LINE",
"542 698 LINE"
);
}
);
width = 586;
}
);
unicode = 2044;
},
{
glyphname = asterisk;
lastChange = "2016-08-26 20:32:07 +0000";
layers = (
{
hints = (
{
horizontal = 1;
place = "{720, -20}";
target = down;
type = TopGhost;
},
{
horizontal = 1;
place = "{434, 21}";
target = up;
type = BottomGhost;
}
);
layerId = UUID0;
paths = (
{
closed = 1;
nodes = (
"158 434 LINE",
"172 434 LINE",
"173 477 OFFCURVE",
"173 519 OFFCURVE",
"174 562 CURVE",
"211 540 OFFCURVE",
"248 518 OFFCURVE",
"285 496 CURVE",
"288 501 OFFCURVE",
"291 506 OFFCURVE",
"294 511 CURVE",
"257 532 OFFCURVE",
"219 554 OFFCURVE",
"182 575 CURVE",
"182 575 LINE",
"220 597 OFFCURVE",
"257 619 OFFCURVE",
"295 641 CURVE",
"293 645 OFFCURVE",
"290 649 OFFCURVE",
"288 653 CURVE",
"250 632 OFFCURVE",
"212 610 OFFCURVE",
"174 589 CURVE",
"175 633 OFFCURVE",
"175 676 OFFCURVE",
"176 720 CURVE",
"158 720 LINE",
"158 589 LINE",
"121 611 OFFCURVE",
"83 632 OFFCURVE",
"46 654 CURVE",
"44 650 OFFCURVE",
"41 646 OFFCURVE",
"39 642 CURVE",
"76 620 OFFCURVE",
"113 598 OFFCURVE",
"150 576 CURVE",
"113 555 OFFCURVE",
"76 534 OFFCURVE",
"39 513 CURVE",
"42 508 OFFCURVE",
"45 503 OFFCURVE",
"48 498 CURVE",
"85 519 OFFCURVE",
"121 540 OFFCURVE",
"158 561 CURVE"
);
}
);
width = 335;
},
{
hints = (
{
horizontal = 1;
place = "{720, -20}";
target = down;
type = TopGhost;
},
{
horizontal = 1;
place = "{434, 21}";
target = up;
type = BottomGhost;
}
);
layerId = UUID1;
paths = (
{
closed = 1;
nodes = (
"128 434 LINE",
"208 434 LINE",
"208 457 OFFCURVE",
"209 480 OFFCURVE",
"209 503 CURVE",
"230 491 OFFCURVE",
"250 478 OFFCURVE",
"271 466 CURVE",
"285 490 OFFCURVE",
"299 515 OFFCURVE",
"313 539 CURVE",
"292 551 OFFCURVE",
"271 563 OFFCURVE",
"250 575 CURVE",
"250 575 LINE",
"272 587 OFFCURVE",
"293 600 OFFCURVE",
"315 612 CURVE",
"302 635 OFFCURVE",
"288 658 OFFCURVE",
"275 681 CURVE",
"254 669 OFFCURVE",
"232 657 OFFCURVE",
"211 645 CURVE",
"211 670 OFFCURVE",
"212 695 OFFCURVE",
"212 720 CURVE",
"128 720 LINE",
"128 645 LINE",
"107 657 OFFCURVE",
"86 670 OFFCURVE",
"65 682 CURVE",
"52 659 OFFCURVE",
"39 636 OFFCURVE",
"26 613 CURVE",
"46 601 OFFCURVE",
"67 588 OFFCURVE",
"87 576 CURVE",
"66 565 OFFCURVE",
"46 553 OFFCURVE",
"25 542 CURVE",
"39 518 OFFCURVE",
"53 493 OFFCURVE",
"67 469 CURVE",
"87 481 OFFCURVE",
"108 492 OFFCURVE",
"128 504 CURVE"
);
}
);
width = 335;
}
);
unicode = 002A;
},
{
glyphname = backslash;
lastChange = "2016-08-26 20:32:07 +0000";
layers = (
{
hints = (
{
horizontal = 1;
place = "{736, -20}";
target = down;
type = TopGhost;
},
{
horizontal = 1;
place = "{-19, 21}";
target = up;
type = BottomGhost;
}
);
layerId = UUID0;
paths = (
{
closed = 1;
nodes = (
"17 736 LINE",
"110 484 OFFCURVE",
"202 233 OFFCURVE",
"295 -19 CURVE",
"309 -19 LINE",
"216 233 OFFCURVE",
"124 484 OFFCURVE",
"31 736 CURVE"
);
}
);
width = 320;
},
{
hints = (
{
horizontal = 1;
place = "{736, -20}";
target = down;
type = TopGhost;
},
{
horizontal = 1;
place = "{-19, 21}";
target = up;
type = BottomGhost;
}
);
layerId = UUID1;
paths = (
{
closed = 1;
nodes = (
"-10 751 LINE",
"85 494 OFFCURVE",
"179 238 OFFCURVE",
"274 -19 CURVE",
"416 -19 LINE",
"321 238 OFFCURVE",
"227 494 OFFCURVE",
"132 751 CURVE"
);
}
);
width = 430;
}
);
unicode = 005C;
},
{
glyphname = bullet;
lastChange = "2016-08-26 20:32:07 +0000";
layers = (
{
hints = (
{
place = "{174, 131}";
},
{
horizontal = 1;
place = "{235, 131}";
}
);
layerId = UUID0;
paths = (
{
closed = 1;
nodes = (
"174 300 LINE SMOOTH",
"174 264 OFFCURVE",
"203 235 OFFCURVE",
"239 235 CURVE SMOOTH",
"276 235 OFFCURVE",
"305 264 OFFCURVE",
"305 300 CURVE SMOOTH",
"305 337 OFFCURVE",
"276 366 OFFCURVE",
"239 366 CURVE SMOOTH",
"203 366 OFFCURVE",
"174 337 OFFCURVE",
"174 300 CURVE SMOOTH"
);
}
);
width = 479;
},
{
hints = (
{
place = "{113, 254}";
},
{
horizontal = 1;
place = "{174, 254}";
}
);
layerId = UUID1;
paths = (
{
closed = 1;
nodes = (
"80 306 LINE SMOOTH",
"80 213 OFFCURVE",
"153 142 OFFCURVE",
"244 142 CURVE SMOOTH",
"336 142 OFFCURVE",
"410 213 OFFCURVE",
"410 306 CURVE SMOOTH",
"410 398 OFFCURVE",
"336 473 OFFCURVE",
"244 473 CURVE SMOOTH",
"153 473 OFFCURVE",
"80 398 OFFCURVE",
"80 306 CURVE SMOOTH"
);
}
);
width = 488;
}
);
unicode = 2022;
},
{
glyphname = colon;
lastChange = "2016-08-26 20:32:07 +0000";
layers = (
{
hints = (
{
place = "{65, 40}";
},
{
horizontal = 1;
place = "{0, 21}";
target = up;
type = BottomGhost;
},
{
horizontal = 1;
place = "{290, -20}";
target = down;
type = TopGhost;
}
);
layerId = UUID0;
paths = (
{
closed = 1;
nodes = (
"65 270 LINE SMOOTH",
"65 259 OFFCURVE",
"74 250 OFFCURVE",
"85 250 CURVE SMOOTH",
"96 250 OFFCURVE",
"105 259 OFFCURVE",
"105 270 CURVE SMOOTH",
"105 281 OFFCURVE",
"96 290 OFFCURVE",
"85 290 CURVE SMOOTH",
"74 290 OFFCURVE",
"65 281 OFFCURVE",
"65 270 CURVE SMOOTH"
);
},
{
closed = 1;
nodes = (
"65 20 LINE SMOOTH",
"65 9 OFFCURVE",
"74 0 OFFCURVE",
"85 0 CURVE SMOOTH",
"96 0 OFFCURVE",
"105 9 OFFCURVE",
"105 20 CURVE SMOOTH",
"105 31 OFFCURVE",
"96 40 OFFCURVE",
"85 40 CURVE SMOOTH",
"74 40 OFFCURVE",
"65 31 OFFCURVE",
"65 20 CURVE SMOOTH"
);
}
);
width = 175;
},
{
hints = (
{
place = "{33, 103}";
},
{
horizontal = 1;
place = "{0, 21}";
target = up;
type = BottomGhost;
},
{
horizontal = 1;
place = "{355, -20}";
target = down;
type = TopGhost;
}
);
layerId = UUID1;
paths = (
{
closed = 1;
nodes = (
"15 357 LINE SMOOTH",
"15 313 OFFCURVE",
"51 285 OFFCURVE",
"87 285 CURVE SMOOTH",
"120 285 OFFCURVE",
"157 313 OFFCURVE",
"157 357 CURVE SMOOTH",
"157 398 OFFCURVE",
"120 430 OFFCURVE",
"87 430 CURVE SMOOTH",
"51 430 OFFCURVE",
"15 398 OFFCURVE",
"15 357 CURVE SMOOTH"
);
},
{
closed = 1;
nodes = (
"15 72 LINE SMOOTH",
"15 28 OFFCURVE",
"51 0 OFFCURVE",
"87 0 CURVE SMOOTH",
"120 0 OFFCURVE",
"157 28 OFFCURVE",
"157 72 CURVE SMOOTH",
"157 113 OFFCURVE",
"120 145 OFFCURVE",
"87 145 CURVE SMOOTH",
"51 145 OFFCURVE",
"15 113 OFFCURVE",
"15 72 CURVE SMOOTH"
);
}
);
width = 179;
}
);
unicode = 003A;
},
{
glyphname = comma;
lastChange = "2016-09-27 15:42:43 +0000";
layers = (
{
hints = (
{
horizontal = 1;
place = "{86, -20}";
target = down;
type = TopGhost;
},
{
horizontal = 1;
place = "{-120, 21}";
target = up;
type = BottomGhost;
}
);
layerId = UUID0;
paths = (
{
closed = 1;
nodes = (
"104 86 LINE",
"78 17 OFFCURVE",
"53 -51 OFFCURVE",
"27 -120 CURVE",
"41 -120 LINE",
"70 -51 OFFCURVE",
"98 17 OFFCURVE",
"127 86 CURVE"
);
}
);
width = 200;
},
{
hints = (
{
horizontal = 1;
place = "{86, -20}";
target = down;
type = TopGhost;
},
{
horizontal = 1;
place = "{-120, 21}";
target = up;
type = BottomGhost;
}
);
layerId = UUID1;
paths = (
{
closed = 1;
nodes = (
"67 88 LINE",
"40 17 OFFCURVE",
"15 -52 OFFCURVE",
"-12 -122 CURVE",
"100 -122 LINE",
"129 -52 OFFCURVE",
"158 17 OFFCURVE",
"188 88 CURVE"
);
}
);
width = 205;
}
);
leftKerningGroup = period;
unicode = 002C;
},
{
glyphname = ellipsis;
lastChange = "2016-09-27 15:43:08 +0000";
layers = (
{
hints = (
{
horizontal = 1;
place = "{0, 21}";
target = up;
type = BottomGhost;
},
{
horizontal = 1;
place = "{40, -20}";
target = down;
type = TopGhost;
},
{
horizontal = 1;
place = "{0, 21}";
target = up;
type = BottomGhost;
},
{
horizontal = 1;
place = "{40, -20}";
target = down;
type = TopGhost;
},
{
horizontal = 1;
place = "{0, 21}";
target = up;
type = BottomGhost;
},
{
horizontal = 1;
place = "{40, -20}";
target = down;
type = TopGhost;
}
);
layerId = UUID0;
paths = (
{
closed = 1;
nodes = (
"66 20 LINE SMOOTH",
"66 9 OFFCURVE",
"75 0 OFFCURVE",
"86 0 CURVE SMOOTH",
"97 0 OFFCURVE",
"106 9 OFFCURVE",
"106 20 CURVE SMOOTH",
"106 31 OFFCURVE",
"97 40 OFFCURVE",
"86 40 CURVE SMOOTH",
"75 40 OFFCURVE",
"66 31 OFFCURVE",
"66 20 CURVE SMOOTH"
);
},
{
closed = 1;
nodes = (
"229 20 LINE SMOOTH",
"229 9 OFFCURVE",
"238 0 OFFCURVE",
"249 0 CURVE SMOOTH",
"260 0 OFFCURVE",
"269 9 OFFCURVE",
"269 20 CURVE SMOOTH",
"269 31 OFFCURVE",
"260 40 OFFCURVE",
"249 40 CURVE SMOOTH",
"238 40 OFFCURVE",
"229 31 OFFCURVE",
"229 20 CURVE SMOOTH"
);
},
{
closed = 1;
nodes = (
"392 20 LINE SMOOTH",
"392 9 OFFCURVE",
"401 0 OFFCURVE",
"412 0 CURVE SMOOTH",
"423 0 OFFCURVE",
"432 9 OFFCURVE",
"432 20 CURVE SMOOTH",
"432 31 OFFCURVE",
"423 40 OFFCURVE",
"412 40 CURVE SMOOTH",
"401 40 OFFCURVE",
"392 31 OFFCURVE",
"392 20 CURVE SMOOTH"
);
}
);
width = 489;
},
{
hints = (
{
horizontal = 1;
place = "{0, 21}";
target = up;
type = BottomGhost;
},
{
horizontal = 1;
place = "{105, -20}";
target = down;
type = TopGhost;
},
{
horizontal = 1;
place = "{0, 21}";
target = up;
type = BottomGhost;
},
{
horizontal = 1;
place = "{105, -20}";
target = down;
type = TopGhost;
},
{
horizontal = 1;
place = "{0, 21}";
target = up;
type = BottomGhost;
},
{
horizontal = 1;
place = "{105, -20}";
target = down;
type = TopGhost;
}
);
layerId = UUID1;
paths = (
{
closed = 1;
nodes = (
"15 72 LINE SMOOTH",
"15 28 OFFCURVE",
"51 0 OFFCURVE",
"87 0 CURVE SMOOTH",
"120 0 OFFCURVE",
"157 28 OFFCURVE",
"157 72 CURVE SMOOTH",
"157 113 OFFCURVE",
"120 145 OFFCURVE",
"87 145 CURVE SMOOTH",
"51 145 OFFCURVE",
"15 113 OFFCURVE",
"15 72 CURVE SMOOTH"
);
},
{
closed = 1;
nodes = (
"202 72 LINE SMOOTH",
"202 28 OFFCURVE",
"238 0 OFFCURVE",
"274 0 CURVE SMOOTH",
"307 0 OFFCURVE",
"344 28 OFFCURVE",
"344 72 CURVE SMOOTH",
"344 113 OFFCURVE",
"307 145 OFFCURVE",
"274 145 CURVE SMOOTH",
"238 145 OFFCURVE",
"202 113 OFFCURVE",
"202 72 CURVE SMOOTH"
);
},
{
closed = 1;
nodes = (
"389 72 LINE SMOOTH",
"389 28 OFFCURVE",
"425 0 OFFCURVE",
"461 0 CURVE SMOOTH",
"494 0 OFFCURVE",
"531 28 OFFCURVE",
"531 72 CURVE SMOOTH",
"531 113 OFFCURVE",
"494 145 OFFCURVE",
"461 145 CURVE SMOOTH",
"425 145 OFFCURVE",
"389 113 OFFCURVE",
"389 72 CURVE SMOOTH"
);
}
);
width = 546;
}
);
leftKerningGroup = period;
unicode = 2026;
},
{
glyphname = exclam;
lastChange = "2016-12-12 22:20:11 +0000";
layers = (
{
hints = (
{
horizontal = 1;
place = "{750, -20}";
target = down;
type = TopGhost;
},
{
horizontal = 1;
place = "{36, 21}";
target = up;
type = BottomGhost;
}
);
layerId = UUID0;
paths = (
{
closed = 1;
nodes = (
"93 166 LINE",
"107 166 LINE",
"107 750 LINE",
"93 750 LINE"
);
},
{
closed = 1;
nodes = (
"112 35 OFFCURVE",
"122 45 OFFCURVE",
"122 58 CURVE SMOOTH",
"122 70 OFFCURVE",
"112 80 OFFCURVE",
"101 80 CURVE SMOOTH",
"89 80 OFFCURVE",
"79 70 OFFCURVE",
"79 58 CURVE SMOOTH",
"79 45 OFFCURVE",
"89 35 OFFCURVE",
"101 35 CURVE SMOOTH"
);
}
);
width = 201;
},
{
hints = (
{
horizontal = 1;
place = "{750, -20}";
target = down;
type = TopGhost;
},
{
horizontal = 1;
place = "{0, 21}";
target = up;
type = BottomGhost;
}
);
layerId = UUID1;
paths = (
{
closed = 1;
nodes = (
"36 199 LINE",
"161 199 LINE",
"161 765 LINE",
"36 765 LINE"
);
},
{
closed = 1;
nodes = (
"150 -14 OFFCURVE",
"182 14 OFFCURVE",
"182 57 CURVE",
"182 98 OFFCURVE",
"149 130 OFFCURVE",
"102 130 CURVE",
"55 130 OFFCURVE",
"20 98 OFFCURVE",
"20 57 CURVE",
"20 14 OFFCURVE",
"54 -14 OFFCURVE",
"102 -14 CURVE"
);
}
);
width = 202;
}
);
unicode = 0021;
},
{
glyphname = numbersign;
lastChange = "2016-08-26 20:32:07 +0000";
layers = (
{
hints = (
{
horizontal = 1;
place = "{225, 196}";
},
{
horizontal = 1;
place = "{0, 21}";
target = up;
type = BottomGhost;
},
{
horizontal = 1;
place = "{643, -20}";
target = down;
type = TopGhost;
}
);
layerId = UUID0;
paths = (
{
closed = 1;
nodes = (
"197 643 LINE",
"188 569 OFFCURVE",
"179 495 OFFCURVE",
"170 421 CURVE",
"53 421 LINE",
"53 416 OFFCURVE",
"52 412 OFFCURVE",
"52 407 CURVE",
"168 407 LINE",
"161 351 OFFCURVE",
"155 295 OFFCURVE",
"148 239 CURVE",
"30 239 LINE",
"30 234 OFFCURVE",
"29 230 OFFCURVE",
"29 225 CURVE",
"146 225 LINE",
"137 150 OFFCURVE",
"129 75 OFFCURVE",
"120 0 CURVE",
"134 0 LINE",
"143 75 OFFCURVE",
"151 150 OFFCURVE",
"160 225 CURVE",
"330 225 LINE",
"321 150 OFFCURVE",
"313 75 OFFCURVE",
"304 0 CURVE",
"318 0 LINE",
"327 75 OFFCURVE",
"335 150 OFFCURVE",
"344 225 CURVE",
"480 225 LINE",
"480 230 OFFCURVE",
"481 234 OFFCURVE",
"481 239 CURVE",
"346 239 LINE",
"353 295 OFFCURVE",
"359 351 OFFCURVE",
"366 407 CURVE",
"503 407 LINE",
"503 412 OFFCURVE",
"504 416 OFFCURVE",
"504 421 CURVE",
"368 421 LINE",
"377 495 OFFCURVE",
"386 569 OFFCURVE",
"395 643 CURVE",
"381 643 LINE",
"372 569 OFFCURVE",
"363 495 OFFCURVE",
"354 421 CURVE",
"184 421 LINE",
"193 495 OFFCURVE",
"202 569 OFFCURVE",
"211 643 CURVE"
);
},
{
closed = 1;
nodes = (
"352 407 LINE",
"345 351 OFFCURVE",
"339 295 OFFCURVE",
"332 239 CURVE",
"162 239 LINE",
"169 295 OFFCURVE",
"175 351 OFFCURVE",
"182 407 CURVE"
);
}
);
width = 571;
},
{
hints = (
{
horizontal = 1;
place = "{188, 264}";
},
{
horizontal = 1;
place = "{0, 21}";
target = up;
type = BottomGhost;
},
{
horizontal = 1;
place = "{643, -20}";
target = down;
type = TopGhost;
}
);
layerId = UUID1;
paths = (
{
closed = 1;
nodes = (
"161 656 LINE",
"153 596 OFFCURVE",
"146 539 OFFCURVE",
"138 479 CURVE",
"59 479 LINE",
"54 439 OFFCURVE",
"51 398 OFFCURVE",
"46 358 CURVE",
"125 358 LINE",
"122 336 OFFCURVE",
"120 314 OFFCURVE",
"117 292 CURVE",
"38 292 LINE",
"34 251 OFFCURVE",
"28 211 OFFCURVE",
"23 170 CURVE",
"102 170 LINE",
"96 113 OFFCURVE",
"88 57 OFFCURVE",
"82 0 CURVE",
"209 0 LINE",
"214 57 OFFCURVE",
"223 113 OFFCURVE",
"229 170 CURVE",
"290 170 LINE",
"284 113 OFFCURVE",
"276 57 OFFCURVE",
"270 0 CURVE",
"396 0 LINE",
"402 57 OFFCURVE",
"410 113 OFFCURVE",
"416 170 CURVE",
"501 170 LINE",
"505 211 OFFCURVE",
"511 251 OFFCURVE",
"516 292 CURVE",
"431 292 LINE",
"433 314 OFFCURVE",
"436 336 OFFCURVE",
"439 358 CURVE",
"524 358 LINE",
"529 398 OFFCURVE",
"532 439 OFFCURVE",
"536 479 CURVE",
"452 479 LINE",
"460 539 OFFCURVE",
"467 596 OFFCURVE",
"475 656 CURVE",
"348 656 LINE",
"341 596 OFFCURVE",
"333 539 OFFCURVE",
"326 479 CURVE",
"264 479 LINE",
"272 539 OFFCURVE",
"279 596 OFFCURVE",
"287 656 CURVE"
);
},
{
closed = 1;
nodes = (
"312 358 LINE",
"310 336 OFFCURVE",
"307 314 OFFCURVE",
"305 292 CURVE",
"243 292 LINE",
"246 314 OFFCURVE",
"249 336 OFFCURVE",
"251 358 CURVE"
);
}
);
width = 582;
}
);
unicode = 0023;
},
{
glyphname = period;
lastChange = "2016-09-28 13:55:58 +0000";
layers = (
{
hints = (
{
horizontal = 1;
place = "{0, 21}";
target = up;
type = BottomGhost;
},
{
horizontal = 1;
place = "{40, -20}";
target = down;
type = TopGhost;
}
);
layerId = UUID0;
paths = (
{
closed = 1;
nodes = (
"66 20 LINE SMOOTH",
"66 9 OFFCURVE",
"75 0 OFFCURVE",
"86 0 CURVE SMOOTH",
"97 0 OFFCURVE",
"106 9 OFFCURVE",
"106 20 CURVE SMOOTH",
"106 31 OFFCURVE",
"97 40 OFFCURVE",
"86 40 CURVE SMOOTH",
"75 40 OFFCURVE",
"66 31 OFFCURVE",
"66 20 CURVE SMOOTH"
);
}
);
width = 163;
},
{
hints = (
{
horizontal = 1;
place = "{0, 21}";
target = up;
type = BottomGhost;
},
{
horizontal = 1;
place = "{105, -20}";
target = down;
type = TopGhost;
}
);
layerId = UUID1;
paths = (
{
closed = 1;
nodes = (
"15 72 LINE SMOOTH",
"15 28 OFFCURVE",
"51 0 OFFCURVE",
"87 0 CURVE SMOOTH",
"120 0 OFFCURVE",
"157 28 OFFCURVE",
"157 72 CURVE SMOOTH",
"157 113 OFFCURVE",
"120 145 OFFCURVE",
"87 145 CURVE SMOOTH",
"51 145 OFFCURVE",
"15 113 OFFCURVE",
"15 72 CURVE SMOOTH"
);
}
);
width = 172;
}
);
leftKerningGroup = period;
unicode = 002E;
},
{
glyphname = question;
lastChange = "2016-12-12 22:21:37 +0000";
layers = (
{
hints = (
{
horizontal = 1;
place = "{25, 21}";
target = up;
type = BottomGhost;
},
{
horizontal = 1;
place = "{732, -20}";
target = down;
type = TopGhost;
}
);
layerId = UUID0;
paths = (
{
closed = 1;
nodes = (
"222 164 LINE",
"222 242 LINE SMOOTH",
"222 330 OFFCURVE",
"262 332 OFFCURVE",
"316 371 CURVE SMOOTH",
"374 413 OFFCURVE",
"412 466 OFFCURVE",
"412 537 CURVE SMOOTH",
"412 644 OFFCURVE",
"326 732 OFFCURVE",
"216 732 CURVE SMOOTH",
"130 732 OFFCURVE",
"57 676 OFFCURVE",
"31 599 CURVE",
"44 596 LINE",
"67 669 OFFCURVE",
"137 719 OFFCURVE",
"216 719 CURVE SMOOTH",
"318 719 OFFCURVE",
"398 641 OFFCURVE",
"398 537 CURVE SMOOTH",
"398 461 OFFCURVE",
"361 420 OFFCURVE",
"309 382 CURVE SMOOTH",
"257 344 OFFCURVE",
"208 338 OFFCURVE",
"208 245 CURVE SMOOTH",
"208 164 LINE"
);
},
{
closed = 1;
nodes = (
"230 35 OFFCURVE",
"240 45 OFFCURVE",
"240 58 CURVE SMOOTH",
"240 70 OFFCURVE",
"230 80 OFFCURVE",
"219 80 CURVE SMOOTH",
"207 80 OFFCURVE",
"197 70 OFFCURVE",
"197 58 CURVE SMOOTH",
"197 45 OFFCURVE",
"207 35 OFFCURVE",
"219 35 CURVE SMOOTH"
);
}
);
width = 452;
},
{
hints = (
{
horizontal = 1;
place = "{0, 21}";
target = up;
type = BottomGhost;
},
{
horizontal = 1;
place = "{732, -20}";
target = down;
type = TopGhost;
}
);
layerId = UUID1;
paths = (
{
closed = 1;
nodes = (
"282 197 LINE",
"282 218 LINE",
"282 294 OFFCURVE",
"313 333 OFFCURVE",
"348 368 CURVE SMOOTH",
"392 413 OFFCURVE",
"444 452 OFFCURVE",
"444 561 CURVE",
"444 692 OFFCURVE",
"355 746 OFFCURVE",
"242 747 CURVE",
"87 748 OFFCURVE",
"25 627 OFFCURVE",
"10 579 CURVE",
"125 525 LINE",
"143 570 OFFCURVE",
"169 617 OFFCURVE",
"227 617 CURVE",
"257 617 OFFCURVE",
"295 591 OFFCURVE",
"295 548 CURVE",
"295 495 OFFCURVE",
"262 467 OFFCURVE",
"226 434 CURVE SMOOTH",
"186 395 OFFCURVE",
"142 349 OFFCURVE",
"142 250 CURVE",
"142 197 LINE"
);
},
{
closed = 1;
nodes = (
"260 -14 OFFCURVE",
"292 14 OFFCURVE",
"292 57 CURVE",
"292 98 OFFCURVE",
"259 130 OFFCURVE",
"212 130 CURVE",
"165 130 OFFCURVE",
"130 98 OFFCURVE",
"130 57 CURVE",
"130 14 OFFCURVE",
"164 -14 OFFCURVE",
"212 -14 CURVE"
);
}
);
width = 464;
}
);
unicode = 003F;
},
{
glyphname = quotedbl;
lastChange = "2016-08-26 20:32:07 +0000";
layers = (
{
hints = (
{
place = "{63, 151}";
},
{
horizontal = 1;
place = "{472, 21}";
target = up;
type = BottomGhost;
},
{
horizontal = 1;
place = "{720, -20}";
target = down;
type = TopGhost;
}
);
layerId = UUID0;
paths = (
{
closed = 1;
nodes = (
"63 720 LINE",
"63 472 LINE",
"77 472 LINE",
"78 555 OFFCURVE",
"80 637 OFFCURVE",
"81 720 CURVE"
);
},
{
closed = 1;
nodes = (
"196 720 LINE",
"196 472 LINE",
"210 472 LINE",
"211 555 OFFCURVE",
"213 637 OFFCURVE",
"214 720 CURVE"
);
}
);
width = 293;
},
{
hints = (
{
place = "{63, 216}";
},
{
horizontal = 1;
place = "{472, 21}";
target = up;
type = BottomGhost;
},
{
horizontal = 1;
place = "{720, -20}";
target = down;
type = TopGhost;
}
);
layerId = UUID1;
paths = (
{
closed = 1;
nodes = (
"64 734 LINE",
"64 481 LINE",
"182 481 LINE",
"183 566 OFFCURVE",
"185 650 OFFCURVE",
"186 734 CURVE"
);
},
{
closed = 1;
nodes = (
"200 734 LINE",
"200 481 LINE",
"318 481 LINE",
"319 566 OFFCURVE",
"321 650 OFFCURVE",
"322 734 CURVE"
);
}
);
width = 366;
}
);
unicode = 0022;
},
{
glyphname = quotesingle;
lastChange = "2016-08-26 20:32:07 +0000";
layers = (
{
hints = (
{
horizontal = 1;
place = "{472, 21}";
target = up;
type = BottomGhost;
},
{
horizontal = 1;
place = "{720, -20}";
target = down;
type = TopGhost;
}
);
layerId = UUID0;
paths = (
{
closed = 1;
nodes = (
"67 720 LINE",
"67 472 LINE",
"81 472 LINE",
"82 555 OFFCURVE",
"84 637 OFFCURVE",
"85 720 CURVE"
);
}
);
width = 147;
},
{
hints = (
{
horizontal = 1;
place = "{472, 21}";
target = up;
type = BottomGhost;
},
{
horizontal = 1;
place = "{720, -20}";
target = down;
type = TopGhost;
}
);
layerId = UUID1;
paths = (
{
closed = 1;
nodes = (
"28 734 LINE",
"28 481 LINE",
"148 481 LINE",
"149 566 OFFCURVE",
"151 650 OFFCURVE",
"152 734 CURVE"
);
}
);
width = 175;
}
);
unicode = 0027;
},
{
glyphname = semicolon;
lastChange = "2016-08-26 20:32:07 +0000";
layers = (
{
hints = (
{
horizontal = 1;
place = "{-120, 21}";
target = up;
type = BottomGhost;
},
{
horizontal = 1;
place = "{290, -20}";
target = down;
type = TopGhost;
}
);
layerId = UUID0;
paths = (
{
closed = 1;
nodes = (
"88 270 LINE SMOOTH",
"88 259 OFFCURVE",
"97 250 OFFCURVE",
"108 250 CURVE SMOOTH",
"119 250 OFFCURVE",
"128 259 OFFCURVE",
"128 270 CURVE SMOOTH",
"128 281 OFFCURVE",
"119 290 OFFCURVE",
"108 290 CURVE SMOOTH",
"97 290 OFFCURVE",
"88 281 OFFCURVE",
"88 270 CURVE SMOOTH"
);
},
{
closed = 1;
nodes = (
"89 86 LINE",
"63 17 OFFCURVE",
"38 -51 OFFCURVE",
"12 -120 CURVE",
"26 -120 LINE",
"55 -51 OFFCURVE",
"83 17 OFFCURVE",
"112 86 CURVE"
);
}
);
width = 201;
},
{
hints = (
{
horizontal = 1;
place = "{-120, 21}";
target = up;
type = BottomGhost;
},
{
horizontal = 1;
place = "{355, -20}";
target = down;
type = TopGhost;
}
);
layerId = UUID1;
paths = (
{
closed = 1;
nodes = (
"52 327 LINE SMOOTH",
"52 283 OFFCURVE",
"88 255 OFFCURVE",
"123 255 CURVE SMOOTH",
"157 255 OFFCURVE",
"193 283 OFFCURVE",
"193 327 CURVE SMOOTH",
"193 368 OFFCURVE",
"157 400 OFFCURVE",
"123 400 CURVE SMOOTH",
"88 400 OFFCURVE",
"52 368 OFFCURVE",
"52 327 CURVE SMOOTH"
);
},
{
closed = 1;
nodes = (
"53 88 LINE",
"26 17 OFFCURVE",
"1 -52 OFFCURVE",
"-26 -122 CURVE",
"86 -122 LINE",
"115 -52 OFFCURVE",
"144 17 OFFCURVE",
"174 88 CURVE"
);
}
);
width = 205;
}
);
unicode = 003B;
},
{
glyphname = slash;
lastChange = "2016-08-26 20:32:07 +0000";
layers = (
{
hints = (
{
horizontal = 1;
place = "{-19, 21}";
target = up;
type = BottomGhost;
},
{
horizontal = 1;
place = "{736, -20}";
target = down;
type = TopGhost;
}
);
layerId = UUID0;
paths = (
{
closed = 1;
nodes = (
"295 736 LINE",
"202 484 OFFCURVE",
"110 233 OFFCURVE",
"17 -19 CURVE",
"31 -19 LINE",
"124 233 OFFCURVE",
"216 484 OFFCURVE",
"309 736 CURVE"
);
}
);
width = 322;
},
{
hints = (
{
horizontal = 1;
place = "{-19, 21}";
target = up;
type = BottomGhost;
},
{
horizontal = 1;
place = "{736, -20}";
target = down;
type = TopGhost;
}
);
layerId = UUID1;
paths = (
{
closed = 1;
nodes = (
"301 751 LINE",
"206 494 OFFCURVE",
"112 238 OFFCURVE",
"17 -19 CURVE",
"143 -19 LINE",
"238 238 OFFCURVE",
"332 494 OFFCURVE",
"427 751 CURVE"
);
}
);
width = 421;
}
);
unicode = 002F;
},
{
glyphname = underscore;
lastChange = "2016-08-26 20:32:07 +0000";
layers = (
{
hints = (
{
horizontal = 1;
place = "{14, -20}";
target = down;
type = TopGhost;
},
{
horizontal = 1;
place = "{0, 21}";
target = up;
type = BottomGhost;
}
);
layerId = UUID0;
paths = (
{
closed = 1;
nodes = (
"100 0 LINE",
"500 0 LINE",
"500 14 LINE",
"100 14 LINE"
);
}
);
width = 600;
},
{
hints = (
{
horizontal = 1;
place = "{81, -20}";
target = down;
type = TopGhost;
},
{
horizontal = 1;
place = "{0, 21}";
target = up;
type = BottomGhost;
}
);
layerId = UUID1;
paths = (
{
closed = 1;
nodes = (
"102 0 LINE",
"510 0 LINE",
"510 121 LINE",
"102 121 LINE"
);
}
);
width = 612;
}
);
unicode = 005F;
},
